<svg xmlns="http://www.w3.org/2000/svg" xmlns:xlink="http://www.w3.org/1999/xlink" width="150" zoomAndPan="magnify" viewBox="0 0 112.5 149.999998" height="200" preserveAspectRatio="xMidYMid meet" version="1.0"><defs><clipPath id="88beb799ca"><path d="M 14 0.332031 L 107.8125 0.332031 L 107.8125 129 L 14 129 Z M 14 0.332031 " clip-rule="nonzero"/></clipPath><clipPath id="3ef215c9d6"><path d="M 5.0625 125 L 28 125 L 28 149.667969 L 5.0625 149.667969 Z M 5.0625 125 " clip-rule="nonzero"/></clipPath></defs><g clip-path="url(#88beb799ca)"><path fill="#231f20" d="M 14.90625 128.351562 C 14.835938 128.351562 14.765625 128.351562 14.714844 128.328125 C 14.238281 128.210938 13.925781 127.734375 14.046875 127.257812 C 14.597656 124.925781 15.335938 122.589844 16.246094 120.328125 C 16.4375 119.875 16.960938 119.664062 17.417969 119.828125 C 17.871094 120.019531 18.085938 120.542969 17.917969 120.996094 C 17.035156 123.1875 16.316406 125.425781 15.792969 127.664062 C 15.671875 128.089844 15.3125 128.351562 14.90625 128.351562 Z M 20.234375 115.164062 C 20.070312 115.164062 19.925781 115.117188 19.78125 115.042969 C 19.351562 114.78125 19.207031 114.257812 19.472656 113.828125 C 20.714844 111.757812 22.101562 109.734375 23.628906 107.855469 C 23.941406 107.472656 24.511719 107.402344 24.894531 107.710938 C 25.277344 108.019531 25.351562 108.59375 25.039062 108.972656 C 23.582031 110.78125 22.21875 112.734375 21.046875 114.734375 C 20.832031 114.996094 20.523438 115.164062 20.234375 115.164062 Z M 29.195312 104.066406 C 28.957031 104.066406 28.71875 103.972656 28.527344 103.78125 C 28.191406 103.425781 28.21875 102.855469 28.574219 102.519531 C 30.367188 100.878906 32.304688 99.355469 34.285156 97.996094 C 34.691406 97.710938 35.242188 97.832031 35.527344 98.234375 C 35.816406 98.640625 35.695312 99.210938 35.289062 99.472656 C 33.378906 100.757812 31.515625 102.234375 29.792969 103.832031 C 29.625 103.996094 29.410156 104.066406 29.195312 104.066406 Z M 41.023438 96.09375 C 40.691406 96.09375 40.378906 95.902344 40.210938 95.59375 C 39.996094 95.140625 40.1875 94.617188 40.644531 94.402344 C 41.050781 94.210938 41.457031 94.019531 41.886719 93.855469 C 43.511719 93.140625 45.324219 92.472656 47.429688 91.785156 C 47.882812 91.640625 48.410156 91.878906 48.550781 92.355469 C 48.695312 92.832031 48.457031 93.332031 47.980469 93.472656 C 45.921875 94.140625 44.179688 94.808594 42.578125 95.496094 C 42.171875 95.664062 41.789062 95.855469 41.40625 96.019531 C 41.265625 96.070312 41.144531 96.09375 41.023438 96.09375 Z M 54.550781 91.425781 C 54.167969 91.425781 53.808594 91.164062 53.691406 90.785156 C 53.546875 90.308594 53.808594 89.808594 54.285156 89.6875 C 56.722656 88.972656 58.921875 88.332031 61.097656 87.570312 C 61.550781 87.402344 62.078125 87.664062 62.242188 88.117188 C 62.410156 88.59375 62.148438 89.09375 61.695312 89.257812 C 59.496094 90.019531 57.273438 90.664062 54.8125 91.402344 C 54.71875 91.425781 54.644531 91.425781 54.550781 91.425781 Z M 68.027344 86.59375 C 67.691406 86.59375 67.382812 86.402344 67.214844 86.09375 C 67 85.664062 67.167969 85.117188 67.621094 84.902344 C 69.867188 83.785156 71.753906 82.546875 73.425781 81.117188 C 73.808594 80.808594 74.359375 80.832031 74.695312 81.210938 C 75.003906 81.59375 74.980469 82.140625 74.597656 82.472656 C 72.828125 83.972656 70.824219 85.285156 68.433594 86.496094 C 68.289062 86.570312 68.144531 86.59375 68.027344 86.59375 Z M 78.683594 77.332031 C 78.515625 77.332031 78.347656 77.285156 78.207031 77.1875 C 77.800781 76.925781 77.65625 76.378906 77.917969 75.949219 C 79.089844 74.117188 80.070312 72.070312 80.882812 69.6875 C 81.050781 69.214844 81.574219 68.976562 82.03125 69.140625 C 82.507812 69.308594 82.746094 69.808594 82.578125 70.285156 C 81.71875 72.785156 80.691406 74.949219 79.425781 76.925781 C 79.28125 77.1875 78.972656 77.332031 78.683594 77.332031 Z M 83.558594 63.976562 C 83.511719 63.976562 83.4375 63.976562 83.390625 63.953125 C 82.914062 63.855469 82.578125 63.378906 82.675781 62.902344 C 82.984375 61.261719 83.296875 59.453125 83.582031 57.238281 L 83.75 55.90625 C 83.820312 55.40625 84.25 55.070312 84.753906 55.140625 C 85.253906 55.214844 85.589844 55.640625 85.519531 56.140625 L 85.351562 57.5 C 85.039062 59.761719 84.753906 61.570312 84.417969 63.261719 C 84.347656 63.691406 83.964844 63.976562 83.558594 63.976562 Z M 59.375 54.929688 C 59.375 54.929688 59.351562 54.929688 59.351562 54.929688 L 58.996094 54.929688 C 58.492188 54.929688 58.109375 54.5 58.109375 54.023438 C 58.109375 53.523438 58.5625 53.144531 59.019531 53.144531 L 59.328125 53.144531 C 59.328125 53.144531 59.351562 53.144531 59.351562 53.144531 C 61.457031 53.144531 63.679688 52.929688 65.949219 52.476562 C 66.449219 52.378906 66.902344 52.691406 67 53.191406 C 67.09375 53.667969 66.785156 54.144531 66.28125 54.238281 C 63.917969 54.691406 61.597656 54.929688 59.375 54.929688 Z M 51.945312 53.929688 C 51.875 53.929688 51.777344 53.929688 51.683594 53.90625 C 51.277344 53.785156 50.871094 53.667969 50.464844 53.523438 C 48.527344 52.855469 46.6875 51.90625 44.992188 50.691406 C 44.585938 50.40625 44.488281 49.855469 44.777344 49.453125 C 45.0625 49.046875 45.636719 48.953125 46.019531 49.238281 C 47.597656 50.355469 49.269531 51.238281 51.039062 51.832031 C 51.417969 51.953125 51.777344 52.070312 52.160156 52.191406 C 52.636719 52.332031 52.902344 52.832031 52.757812 53.308594 C 52.6875 53.667969 52.328125 53.929688 51.945312 53.929688 Z M 73.019531 52.285156 C 72.664062 52.285156 72.304688 52.070312 72.183594 51.714844 C 72.015625 51.261719 72.257812 50.738281 72.710938 50.570312 C 74.882812 49.761719 77.035156 48.785156 79.089844 47.644531 C 79.519531 47.40625 80.070312 47.546875 80.308594 48 C 80.546875 48.429688 80.378906 48.976562 79.949219 49.214844 C 77.800781 50.40625 75.578125 51.40625 73.332031 52.261719 C 73.234375 52.261719 73.117188 52.285156 73.019531 52.285156 Z M 85.375 49.808594 C 85.351562 49.808594 85.328125 49.808594 85.304688 49.808594 C 84.800781 49.785156 84.441406 49.355469 84.464844 48.855469 C 84.5625 47.453125 84.632812 46.09375 84.65625 44.808594 C 84.585938 44.621094 84.585938 44.382812 84.65625 44.191406 C 84.65625 43.859375 84.65625 43.523438 84.65625 43.167969 C 84.65625 42.714844 84.65625 42.238281 84.632812 41.785156 C 84.632812 41.285156 85.015625 40.882812 85.519531 40.882812 C 85.519531 40.882812 85.542969 40.882812 85.542969 40.882812 C 86.019531 40.882812 86.425781 41.261719 86.449219 41.761719 C 86.449219 42.046875 86.449219 42.332031 86.449219 42.621094 C 87.765625 41.546875 89.054688 40.40625 90.273438 39.191406 C 90.632812 38.832031 91.179688 38.859375 91.539062 39.191406 C 91.898438 39.546875 91.898438 40.097656 91.539062 40.453125 C 89.9375 42.046875 88.21875 43.546875 86.449219 44.90625 C 86.425781 46.214844 86.355469 47.546875 86.257812 48.976562 C 86.234375 49.453125 85.851562 49.808594 85.375 49.808594 Z M 40.425781 45.855469 C 40.164062 45.855469 39.878906 45.738281 39.710938 45.5 C 38.230469 43.546875 37.035156 41.359375 36.148438 39.046875 C 35.984375 38.597656 36.199219 38.070312 36.675781 37.90625 C 37.128906 37.738281 37.65625 37.953125 37.824219 38.429688 C 38.660156 40.597656 39.757812 42.621094 41.144531 44.453125 C 41.429688 44.859375 41.359375 45.40625 40.953125 45.691406 C 40.785156 45.785156 40.59375 45.855469 40.425781 45.855469 Z M 84.992188 35.570312 C 84.5625 35.570312 84.179688 35.261719 84.109375 34.808594 C 83.894531 33.382812 83.605469 31.976562 83.273438 30.644531 C 83.058594 29.761719 82.792969 28.882812 82.507812 28.023438 C 82.339844 27.550781 82.601562 27.050781 83.082031 26.90625 C 83.558594 26.738281 84.058594 27 84.203125 27.476562 C 84.515625 28.382812 84.777344 29.3125 85.015625 30.238281 C 85.375 31.644531 85.660156 33.097656 85.902344 34.597656 C 85.972656 35.074219 85.636719 35.546875 85.136719 35.621094 C 85.089844 35.570312 85.039062 35.570312 84.992188 35.570312 Z M 95.671875 35.382812 C 95.484375 35.382812 95.292969 35.308594 95.125 35.191406 C 94.742188 34.882812 94.644531 34.335938 94.957031 33.929688 C 96.390625 32.074219 97.703125 30.121094 98.875 28.097656 C 99.113281 27.667969 99.664062 27.523438 100.09375 27.761719 C 100.523438 28 100.667969 28.550781 100.429688 28.976562 C 99.210938 31.046875 97.847656 33.074219 96.367188 35 C 96.199219 35.261719 95.9375 35.382812 95.671875 35.382812 Z M 35.410156 32.667969 C 34.957031 32.667969 34.550781 32.3125 34.527344 31.835938 C 34.476562 31.214844 34.453125 30.621094 34.453125 30 C 34.453125 28.097656 34.691406 26.238281 35.148438 24.453125 C 35.265625 23.976562 35.769531 23.691406 36.246094 23.8125 C 36.722656 23.929688 37.011719 24.40625 36.890625 24.90625 C 36.484375 26.550781 36.269531 28.261719 36.269531 30 C 36.269531 30.574219 36.292969 31.144531 36.339844 31.691406 C 36.390625 32.191406 36.007812 32.621094 35.503906 32.644531 C 35.433594 32.667969 35.410156 32.667969 35.410156 32.667969 Z M 102.867188 23.050781 C 102.746094 23.050781 102.628906 23.023438 102.53125 22.976562 C 102.078125 22.789062 101.863281 22.261719 102.054688 21.8125 C 102.960938 19.644531 103.726562 17.40625 104.300781 15.167969 C 104.417969 14.691406 104.898438 14.40625 105.398438 14.527344 C 105.878906 14.644531 106.164062 15.144531 106.042969 15.621094 C 105.421875 17.929688 104.660156 20.238281 103.703125 22.5 C 103.535156 22.859375 103.199219 23.050781 102.867188 23.050781 Z M 80.453125 22.097656 C 80.140625 22.097656 79.832031 21.929688 79.664062 21.644531 C 78.46875 19.574219 77.105469 17.691406 75.578125 16.050781 C 75.242188 15.691406 75.265625 15.121094 75.625 14.789062 C 75.984375 14.453125 76.558594 14.476562 76.890625 14.835938 C 78.515625 16.574219 79.972656 18.574219 81.242188 20.761719 C 81.480469 21.191406 81.335938 21.738281 80.90625 21.976562 C 80.761719 22.074219 80.59375 22.097656 80.453125 22.097656 Z M 38.921875 19.097656 C 38.753906 19.097656 38.5625 19.050781 38.421875 18.929688 C 38.015625 18.644531 37.894531 18.097656 38.179688 17.691406 C 39.542969 15.691406 41.265625 13.882812 43.269531 12.335938 C 43.652344 12.027344 44.226562 12.097656 44.539062 12.503906 C 44.847656 12.882812 44.777344 13.453125 44.371094 13.765625 C 42.507812 15.214844 40.929688 16.882812 39.664062 18.714844 C 39.496094 18.976562 39.207031 19.097656 38.921875 19.097656 Z M 70.726562 11.8125 C 70.558594 11.8125 70.417969 11.765625 70.25 11.691406 C 69.460938 11.214844 68.625 10.765625 67.789062 10.40625 C 66.570312 9.859375 65.253906 9.429688 63.917969 9.121094 C 63.4375 9.027344 63.128906 8.527344 63.222656 8.050781 C 63.34375 7.574219 63.796875 7.265625 64.300781 7.359375 C 65.757812 7.691406 67.191406 8.144531 68.527344 8.742188 C 69.4375 9.144531 70.320312 9.621094 71.179688 10.144531 C 71.609375 10.40625 71.730469 10.953125 71.492188 11.382812 C 71.324219 11.667969 71.011719 11.8125 70.726562 11.8125 Z M 50.035156 10.40625 C 49.675781 10.40625 49.339844 10.191406 49.195312 9.835938 C 49.007812 9.382812 49.246094 8.859375 49.699219 8.667969 C 52.039062 7.742188 54.453125 7.167969 56.890625 6.929688 C 57.417969 6.882812 57.824219 7.242188 57.871094 7.742188 C 57.917969 8.242188 57.5625 8.667969 57.058594 8.714844 C 54.789062 8.929688 52.542969 9.480469 50.367188 10.335938 C 50.25 10.40625 50.152344 10.40625 50.035156 10.40625 Z M 106.472656 9.289062 C 106.449219 9.289062 106.402344 9.289062 106.378906 9.289062 C 105.878906 9.242188 105.542969 8.789062 105.589844 8.289062 C 105.78125 6.550781 105.902344 4.789062 105.902344 3.050781 C 105.902344 2.457031 105.902344 1.859375 105.875 1.289062 C 105.851562 0.789062 106.234375 0.382812 106.738281 0.359375 C 107.238281 0.40625 107.644531 0.71875 107.667969 1.21875 C 107.691406 1.835938 107.691406 2.429688 107.691406 3.050781 C 107.691406 4.859375 107.597656 6.691406 107.382812 8.480469 C 107.3125 8.953125 106.929688 9.289062 106.472656 9.289062 Z M 106.472656 9.289062 " fill-opacity="1" fill-rule="nonzero"/></g><g clip-path="url(#3ef215c9d6)"><path fill="#231f20" d="M 27.714844 129.804688 L 10.726562 150.207031 L 4.992188 125.949219 L 14.214844 132.804688 Z M 27.714844 129.804688 " fill-opacity="1" fill-rule="nonzero"/></g></svg>