<svg xmlns="http://www.w3.org/2000/svg" xmlns:xlink="http://www.w3.org/1999/xlink" width="200" zoomAndPan="magnify" viewBox="0 0 150 37.5" height="50" preserveAspectRatio="xMidYMid meet" version="1.0"><defs><clipPath id="16e91fe7e7"><path d="M 0.988281 0 L 149.011719 0 L 149.011719 37.007812 L 0.988281 37.007812 Z M 0.988281 0 " clip-rule="nonzero"/></clipPath><clipPath id="afe07657ac"><path d="M 7 16 L 140.425781 16 L 140.425781 25 L 7 25 Z M 7 16 " clip-rule="nonzero"/></clipPath><clipPath id="34cdff5068"><path d="M 6.460938 11.308594 L 17 11.308594 L 17 25.371094 L 6.460938 25.371094 Z M 6.460938 11.308594 " clip-rule="nonzero"/></clipPath></defs><g clip-path="url(#16e91fe7e7)"><path fill="#ffffff" d="M 0.988281 0 L 149.011719 0 L 149.011719 44.40625 L 0.988281 44.40625 Z M 0.988281 0 " fill-opacity="1" fill-rule="nonzero"/><path fill="#ffffff" d="M 0.988281 0 L 149.011719 0 L 149.011719 37.007812 L 0.988281 37.007812 Z M 0.988281 0 " fill-opacity="1" fill-rule="nonzero"/><path fill="#ffffff" d="M 0.988281 0 L 149.011719 0 L 149.011719 37.007812 L 0.988281 37.007812 Z M 0.988281 0 " fill-opacity="1" fill-rule="nonzero"/></g><g clip-path="url(#afe07657ac)"><path fill="#231f20" d="M 139.085938 24.410156 C 139.246094 24.410156 139.398438 24.378906 139.546875 24.320312 C 139.695312 24.261719 139.828125 24.175781 139.941406 24.066406 C 140.058594 23.953125 140.148438 23.828125 140.214844 23.679688 C 140.28125 23.535156 140.316406 23.382812 140.324219 23.222656 C 140.332031 23.0625 140.308594 22.910156 140.253906 22.757812 C 140.199219 22.605469 140.121094 22.472656 140.015625 22.351562 C 139.910156 22.230469 139.785156 22.136719 139.640625 22.0625 C 139.5 21.992188 139.347656 21.949219 139.1875 21.9375 C 137.3125 21.777344 135.410156 21.621094 133.546875 21.46875 C 133.382812 21.457031 133.222656 21.472656 133.066406 21.523438 C 132.910156 21.574219 132.769531 21.652344 132.644531 21.757812 C 132.519531 21.867188 132.417969 21.992188 132.34375 22.136719 C 132.269531 22.285156 132.222656 22.4375 132.210938 22.601562 C 132.195312 22.765625 132.214844 22.925781 132.265625 23.082031 C 132.316406 23.238281 132.394531 23.378906 132.5 23.503906 C 132.609375 23.628906 132.734375 23.730469 132.878906 23.804688 C 133.027344 23.878906 133.179688 23.921875 133.34375 23.9375 C 135.207031 24.085938 137.105469 24.246094 138.980469 24.402344 C 139.011719 24.40625 139.046875 24.410156 139.085938 24.410156 Z M 127.800781 23.496094 C 127.960938 23.496094 128.113281 23.464844 128.261719 23.40625 C 128.410156 23.34375 128.542969 23.261719 128.660156 23.148438 C 128.773438 23.039062 128.863281 22.910156 128.929688 22.761719 C 128.996094 22.617188 129.03125 22.464844 129.039062 22.304688 C 129.042969 22.144531 129.019531 21.988281 128.964844 21.835938 C 128.910156 21.6875 128.832031 21.550781 128.722656 21.433594 C 128.617188 21.3125 128.492188 21.21875 128.347656 21.148438 C 128.207031 21.074219 128.054688 21.035156 127.894531 21.023438 C 126.015625 20.878906 124.113281 20.734375 122.246094 20.597656 C 122.082031 20.582031 121.917969 20.601562 121.761719 20.648438 C 121.601562 20.699219 121.460938 20.777344 121.332031 20.886719 C 121.207031 20.992188 121.105469 21.121094 121.03125 21.269531 C 120.953125 21.417969 120.910156 21.574219 120.898438 21.738281 C 120.886719 21.90625 120.90625 22.066406 120.960938 22.226562 C 121.011719 22.382812 121.09375 22.523438 121.203125 22.648438 C 121.3125 22.773438 121.441406 22.871094 121.59375 22.945312 C 121.742188 23.015625 121.898438 23.058594 122.066406 23.066406 C 123.929688 23.203125 125.828125 23.351562 127.703125 23.492188 C 127.738281 23.492188 127.769531 23.496094 127.800781 23.496094 Z M 116.511719 22.667969 C 116.675781 22.671875 116.835938 22.648438 116.988281 22.589844 C 117.144531 22.53125 117.28125 22.445312 117.402344 22.335938 C 117.519531 22.222656 117.613281 22.09375 117.683594 21.941406 C 117.75 21.792969 117.789062 21.636719 117.792969 21.472656 C 117.796875 21.308594 117.773438 21.148438 117.714844 20.996094 C 117.65625 20.839844 117.570312 20.703125 117.460938 20.585938 C 117.347656 20.464844 117.21875 20.371094 117.066406 20.300781 C 116.917969 20.234375 116.761719 20.199219 116.597656 20.191406 C 114.714844 20.0625 112.816406 19.933594 110.945312 19.8125 C 110.78125 19.796875 110.621094 19.816406 110.460938 19.867188 C 110.304688 19.917969 110.164062 20 110.035156 20.105469 C 109.910156 20.214844 109.8125 20.34375 109.738281 20.492188 C 109.664062 20.640625 109.621094 20.796875 109.609375 20.964844 C 109.597656 21.128906 109.621094 21.289062 109.675781 21.445312 C 109.726562 21.605469 109.808594 21.746094 109.921875 21.867188 C 110.03125 21.992188 110.160156 22.089844 110.3125 22.160156 C 110.460938 22.234375 110.617188 22.273438 110.785156 22.28125 C 112.648438 22.402344 114.546875 22.53125 116.425781 22.660156 C 116.457031 22.667969 116.488281 22.667969 116.515625 22.667969 Z M 105.21875 21.925781 C 105.382812 21.933594 105.542969 21.90625 105.695312 21.847656 C 105.847656 21.789062 105.984375 21.703125 106.105469 21.589844 C 106.226562 21.476562 106.320312 21.347656 106.386719 21.199219 C 106.453125 21.046875 106.488281 20.890625 106.496094 20.726562 C 106.5 20.5625 106.472656 20.402344 106.414062 20.25 C 106.355469 20.097656 106.269531 19.960938 106.160156 19.839844 C 106.046875 19.722656 105.914062 19.628906 105.765625 19.558594 C 105.613281 19.492188 105.457031 19.457031 105.292969 19.453125 C 103.414062 19.335938 101.511719 19.222656 99.640625 19.113281 C 99.476562 19.105469 99.316406 19.125 99.164062 19.179688 C 99.007812 19.234375 98.867188 19.316406 98.746094 19.425781 C 98.625 19.535156 98.527344 19.664062 98.457031 19.8125 C 98.382812 19.957031 98.34375 20.113281 98.335938 20.277344 C 98.324219 20.441406 98.347656 20.601562 98.402344 20.757812 C 98.457031 20.910156 98.535156 21.050781 98.644531 21.171875 C 98.753906 21.296875 98.882812 21.394531 99.03125 21.464844 C 99.179688 21.535156 99.335938 21.574219 99.5 21.585938 C 101.367188 21.691406 103.265625 21.808594 105.144531 21.921875 C 105.171875 21.925781 105.195312 21.925781 105.222656 21.925781 Z M 93.921875 21.273438 C 94.085938 21.277344 94.242188 21.25 94.394531 21.191406 C 94.550781 21.132812 94.6875 21.046875 94.804688 20.933594 C 94.925781 20.820312 95.015625 20.691406 95.082031 20.539062 C 95.152344 20.390625 95.1875 20.234375 95.191406 20.070312 C 95.195312 19.90625 95.167969 19.746094 95.109375 19.59375 C 95.050781 19.4375 94.964844 19.304688 94.851562 19.183594 C 94.738281 19.066406 94.605469 18.972656 94.457031 18.90625 C 94.308594 18.835938 94.148438 18.800781 93.984375 18.796875 C 92.113281 18.695312 90.210938 18.597656 88.328125 18.503906 C 88.164062 18.496094 88.003906 18.519531 87.847656 18.574219 C 87.695312 18.628906 87.554688 18.710938 87.433594 18.820312 C 87.3125 18.933594 87.214844 19.0625 87.144531 19.210938 C 87.074219 19.359375 87.035156 19.515625 87.027344 19.679688 C 87.019531 19.84375 87.042969 20.003906 87.097656 20.15625 C 87.152344 20.3125 87.234375 20.449219 87.34375 20.574219 C 87.457031 20.695312 87.585938 20.789062 87.734375 20.859375 C 87.882812 20.929688 88.039062 20.972656 88.203125 20.980469 C 90.082031 21.074219 91.980469 21.171875 93.847656 21.273438 C 93.875 21.273438 93.902344 21.273438 93.921875 21.273438 Z M 82.617188 20.707031 C 82.78125 20.710938 82.9375 20.683594 83.09375 20.625 C 83.246094 20.566406 83.382812 20.476562 83.5 20.363281 C 83.617188 20.25 83.710938 20.121094 83.777344 19.96875 C 83.84375 19.820312 83.878906 19.660156 83.882812 19.496094 C 83.886719 19.332031 83.859375 19.175781 83.796875 19.023438 C 83.738281 18.867188 83.652344 18.734375 83.539062 18.613281 C 83.425781 18.496094 83.292969 18.402344 83.144531 18.335938 C 82.992188 18.269531 82.835938 18.234375 82.671875 18.230469 C 80.796875 18.144531 78.890625 18.0625 77.011719 17.980469 C 76.847656 17.972656 76.691406 18 76.535156 18.054688 C 76.382812 18.113281 76.242188 18.195312 76.121094 18.304688 C 76.003906 18.417969 75.90625 18.546875 75.835938 18.695312 C 75.769531 18.84375 75.730469 19.003906 75.722656 19.167969 C 75.714844 19.332031 75.742188 19.488281 75.796875 19.644531 C 75.855469 19.796875 75.9375 19.9375 76.050781 20.058594 C 76.160156 20.179688 76.289062 20.273438 76.4375 20.34375 C 76.589844 20.410156 76.746094 20.449219 76.910156 20.457031 C 78.78125 20.535156 80.683594 20.621094 82.558594 20.707031 Z M 71.308594 20.226562 C 71.472656 20.230469 71.632812 20.203125 71.785156 20.140625 C 71.9375 20.082031 72.074219 19.996094 72.191406 19.882812 C 72.308594 19.765625 72.402344 19.636719 72.464844 19.484375 C 72.53125 19.335938 72.566406 19.175781 72.570312 19.011719 C 72.574219 18.847656 72.542969 18.691406 72.484375 18.539062 C 72.425781 18.382812 72.335938 18.25 72.222656 18.128906 C 72.109375 18.011719 71.976562 17.921875 71.828125 17.855469 C 71.675781 17.789062 71.519531 17.753906 71.355469 17.75 C 69.472656 17.679688 67.566406 17.609375 65.695312 17.542969 C 65.53125 17.539062 65.371094 17.5625 65.21875 17.621094 C 65.066406 17.679688 64.929688 17.765625 64.808594 17.875 C 64.6875 17.988281 64.59375 18.117188 64.527344 18.269531 C 64.457031 18.417969 64.421875 18.574219 64.414062 18.738281 C 64.410156 18.902344 64.433594 19.0625 64.492188 19.214844 C 64.550781 19.371094 64.636719 19.507812 64.746094 19.628906 C 64.859375 19.746094 64.988281 19.839844 65.140625 19.910156 C 65.289062 19.976562 65.445312 20.015625 65.609375 20.019531 C 67.480469 20.085938 69.378906 20.15625 71.261719 20.226562 Z M 59.996094 19.835938 C 60.160156 19.835938 60.320312 19.808594 60.472656 19.746094 C 60.625 19.6875 60.757812 19.597656 60.878906 19.484375 C 60.996094 19.371094 61.085938 19.238281 61.152344 19.085938 C 61.214844 18.9375 61.25 18.777344 61.253906 18.613281 C 61.253906 18.449219 61.226562 18.292969 61.167969 18.140625 C 61.105469 17.988281 61.019531 17.851562 60.90625 17.734375 C 60.789062 17.617188 60.65625 17.523438 60.507812 17.460938 C 60.355469 17.394531 60.199219 17.359375 60.035156 17.359375 C 58.164062 17.300781 56.257812 17.246094 54.375 17.195312 C 54.210938 17.1875 54.054688 17.214844 53.898438 17.273438 C 53.746094 17.332031 53.609375 17.417969 53.492188 17.53125 C 53.371094 17.644531 53.277344 17.773438 53.210938 17.925781 C 53.144531 18.074219 53.109375 18.230469 53.101562 18.394531 C 53.097656 18.558594 53.125 18.71875 53.183594 18.871094 C 53.242188 19.027344 53.328125 19.164062 53.441406 19.28125 C 53.554688 19.402344 53.683594 19.496094 53.835938 19.5625 C 53.984375 19.628906 54.140625 19.664062 54.304688 19.667969 C 56.1875 19.71875 58.089844 19.773438 59.957031 19.832031 Z M 48.683594 19.527344 C 48.847656 19.527344 49.003906 19.5 49.15625 19.4375 C 49.308594 19.375 49.445312 19.289062 49.5625 19.175781 C 49.679688 19.058594 49.769531 18.925781 49.835938 18.777344 C 49.898438 18.625 49.933594 18.46875 49.933594 18.304688 C 49.9375 18.140625 49.90625 17.980469 49.847656 17.828125 C 49.785156 17.675781 49.695312 17.542969 49.582031 17.425781 C 49.46875 17.304688 49.335938 17.214844 49.183594 17.152344 C 49.03125 17.085938 48.875 17.054688 48.710938 17.050781 C 46.832031 17.007812 44.929688 16.964844 43.050781 16.929688 L 43.027344 16.929688 C 42.863281 16.929688 42.707031 16.957031 42.554688 17.019531 C 42.402344 17.082031 42.265625 17.167969 42.148438 17.285156 C 42.03125 17.398438 41.941406 17.53125 41.878906 17.683594 C 41.8125 17.835938 41.78125 17.992188 41.777344 18.15625 C 41.777344 18.320312 41.808594 18.480469 41.867188 18.632812 C 41.929688 18.78125 42.019531 18.917969 42.132812 19.035156 C 42.246094 19.152344 42.382812 19.242188 42.53125 19.308594 C 42.683594 19.371094 42.839844 19.40625 43.003906 19.40625 C 44.878906 19.441406 46.78125 19.484375 48.65625 19.527344 Z M 37.367188 19.308594 C 37.53125 19.308594 37.6875 19.277344 37.839844 19.214844 C 37.992188 19.15625 38.125 19.066406 38.242188 18.949219 C 38.359375 18.835938 38.449219 18.703125 38.515625 18.550781 C 38.578125 18.402344 38.609375 18.242188 38.613281 18.078125 C 38.613281 17.914062 38.582031 17.757812 38.523438 17.605469 C 38.460938 17.453125 38.371094 17.316406 38.257812 17.199219 C 38.140625 17.082031 38.007812 16.992188 37.855469 16.929688 C 37.707031 16.863281 37.546875 16.832031 37.382812 16.832031 C 35.511719 16.800781 33.605469 16.777344 31.722656 16.753906 L 31.707031 16.753906 C 31.542969 16.753906 31.382812 16.78125 31.230469 16.84375 C 31.082031 16.90625 30.945312 16.996094 30.828125 17.109375 C 30.710938 17.226562 30.621094 17.359375 30.558594 17.511719 C 30.496094 17.664062 30.460938 17.820312 30.460938 17.984375 C 30.460938 18.148438 30.492188 18.304688 30.554688 18.457031 C 30.613281 18.609375 30.703125 18.746094 30.820312 18.863281 C 30.933594 18.976562 31.066406 19.070312 31.21875 19.132812 C 31.371094 19.195312 31.527344 19.226562 31.691406 19.230469 C 33.574219 19.25 35.476562 19.277344 37.34375 19.304688 Z M 26.046875 19.175781 C 26.210938 19.175781 26.371094 19.144531 26.519531 19.082031 C 26.671875 19.019531 26.808594 18.929688 26.925781 18.816406 C 27.039062 18.699219 27.128906 18.566406 27.195312 18.414062 C 27.257812 18.261719 27.289062 18.105469 27.289062 17.941406 C 27.289062 17.777344 27.257812 17.617188 27.195312 17.464844 C 27.136719 17.316406 27.046875 17.179688 26.929688 17.0625 C 26.816406 16.949219 26.679688 16.859375 26.53125 16.792969 C 26.378906 16.730469 26.222656 16.699219 26.058594 16.699219 C 24.171875 16.683594 22.265625 16.671875 20.394531 16.664062 L 20.386719 16.664062 C 20.222656 16.664062 20.066406 16.695312 19.914062 16.757812 C 19.761719 16.820312 19.628906 16.910156 19.511719 17.023438 C 19.394531 17.140625 19.304688 17.273438 19.242188 17.425781 C 19.179688 17.578125 19.148438 17.734375 19.148438 17.898438 C 19.148438 18.0625 19.179688 18.222656 19.242188 18.375 C 19.304688 18.523438 19.390625 18.660156 19.507812 18.777344 C 19.625 18.890625 19.757812 18.980469 19.910156 19.042969 C 20.0625 19.109375 20.21875 19.140625 20.382812 19.140625 C 22.253906 19.148438 24.15625 19.160156 26.039062 19.171875 Z M 9.074219 19.136719 L 9.078125 19.136719 C 10.832031 19.132812 12.621094 19.128906 14.382812 19.128906 L 14.726562 19.128906 C 14.890625 19.128906 15.046875 19.097656 15.199219 19.035156 C 15.351562 18.972656 15.484375 18.882812 15.601562 18.765625 C 15.71875 18.648438 15.808594 18.515625 15.871094 18.363281 C 15.933594 18.210938 15.964844 18.054688 15.964844 17.890625 C 15.964844 17.726562 15.933594 17.566406 15.871094 17.417969 C 15.808594 17.265625 15.71875 17.132812 15.601562 17.015625 C 15.484375 16.898438 15.351562 16.808594 15.199219 16.746094 C 15.046875 16.683594 14.890625 16.652344 14.726562 16.652344 L 14.382812 16.652344 C 12.613281 16.652344 10.824219 16.652344 9.066406 16.664062 C 8.902344 16.664062 8.742188 16.695312 8.59375 16.757812 C 8.441406 16.820312 8.308594 16.910156 8.191406 17.027344 C 8.074219 17.144531 7.988281 17.277344 7.925781 17.429688 C 7.863281 17.582031 7.832031 17.738281 7.832031 17.902344 C 7.832031 18.066406 7.863281 18.222656 7.925781 18.375 C 7.988281 18.527344 8.078125 18.660156 8.195312 18.777344 C 8.3125 18.894531 8.445312 18.980469 8.597656 19.042969 C 8.75 19.105469 8.90625 19.136719 9.070312 19.136719 Z M 9.074219 19.136719 " fill-opacity="1" fill-rule="nonzero"/></g><g clip-path="url(#34cdff5068)"><path fill="#231f20" d="M 14.066406 25.371094 C 14.304688 25.367188 14.523438 25.304688 14.726562 25.179688 C 14.929688 25.050781 15.082031 24.878906 15.183594 24.664062 C 15.285156 24.449219 15.324219 24.222656 15.296875 23.988281 C 15.269531 23.75 15.179688 23.539062 15.03125 23.355469 C 13.417969 21.359375 11.671875 19.488281 9.796875 17.742188 C 11.910156 16.308594 14.09375 14.945312 16.304688 13.675781 C 16.445312 13.59375 16.566406 13.488281 16.667969 13.359375 C 16.769531 13.230469 16.839844 13.085938 16.882812 12.925781 C 16.925781 12.765625 16.9375 12.605469 16.914062 12.441406 C 16.894531 12.28125 16.84375 12.125 16.761719 11.984375 C 16.679688 11.839844 16.574219 11.71875 16.441406 11.621094 C 16.3125 11.519531 16.167969 11.449219 16.007812 11.40625 C 15.847656 11.363281 15.6875 11.351562 15.527344 11.371094 C 15.363281 11.394531 15.210938 11.445312 15.066406 11.527344 C 12.347656 13.089844 9.660156 14.792969 7.089844 16.59375 C 6.933594 16.703125 6.808594 16.839844 6.714844 17.007812 C 6.625 17.171875 6.570312 17.351562 6.5625 17.539062 C 6.550781 17.730469 6.582031 17.914062 6.65625 18.089844 C 6.730469 18.265625 6.839844 18.414062 6.984375 18.539062 C 9.207031 20.484375 11.246094 22.605469 13.101562 24.90625 C 13.351562 25.214844 13.671875 25.367188 14.066406 25.371094 Z M 14.066406 25.371094 " fill-opacity="1" fill-rule="nonzero"/></g></svg>