<svg xmlns="http://www.w3.org/2000/svg" xmlns:xlink="http://www.w3.org/1999/xlink" width="200" zoomAndPan="magnify" viewBox="0 0 150 37.5" height="50" preserveAspectRatio="xMidYMid meet" version="1.0"><defs><clipPath id="d88453501f"><path d="M 0.988281 0 L 149.011719 0 L 149.011719 37.007812 L 0.988281 37.007812 Z M 0.988281 0 " clip-rule="nonzero"/></clipPath><clipPath id="a9a3bf0ff2"><path d="M 6.460938 16 L 140 16 L 140 25 L 6.460938 25 Z M 6.460938 16 " clip-rule="nonzero"/></clipPath><clipPath id="d12448c6a3"><path d="M 129 11.308594 L 140.425781 11.308594 L 140.425781 25.371094 L 129 25.371094 Z M 129 11.308594 " clip-rule="nonzero"/></clipPath></defs><g clip-path="url(#d88453501f)"><path fill="#ffffff" d="M 0.988281 0 L 149.011719 0 L 149.011719 44.40625 L 0.988281 44.40625 Z M 0.988281 0 " fill-opacity="1" fill-rule="nonzero"/><path fill="#ffffff" d="M 0.988281 0 L 149.011719 0 L 149.011719 37.007812 L 0.988281 37.007812 Z M 0.988281 0 " fill-opacity="1" fill-rule="nonzero"/><path fill="#ffffff" d="M 0.988281 0 L 149.011719 0 L 149.011719 37.007812 L 0.988281 37.007812 Z M 0.988281 0 " fill-opacity="1" fill-rule="nonzero"/></g><g clip-path="url(#a9a3bf0ff2)"><path fill="#231f20" d="M 7.800781 24.410156 C 7.640625 24.410156 7.488281 24.378906 7.339844 24.320312 C 7.191406 24.261719 7.058594 24.175781 6.941406 24.066406 C 6.828125 23.953125 6.738281 23.828125 6.671875 23.679688 C 6.605469 23.535156 6.570312 23.382812 6.5625 23.222656 C 6.554688 23.0625 6.578125 22.910156 6.632812 22.757812 C 6.683594 22.605469 6.765625 22.472656 6.871094 22.351562 C 6.976562 22.230469 7.101562 22.136719 7.242188 22.0625 C 7.386719 21.992188 7.535156 21.949219 7.695312 21.9375 C 9.574219 21.777344 11.472656 21.621094 13.339844 21.46875 C 13.503906 21.457031 13.664062 21.472656 13.820312 21.523438 C 13.976562 21.574219 14.117188 21.652344 14.242188 21.757812 C 14.367188 21.867188 14.46875 21.992188 14.542969 22.136719 C 14.617188 22.285156 14.660156 22.4375 14.675781 22.601562 C 14.6875 22.765625 14.667969 22.925781 14.621094 23.082031 C 14.570312 23.238281 14.492188 23.378906 14.382812 23.503906 C 14.277344 23.628906 14.152344 23.730469 14.003906 23.804688 C 13.859375 23.878906 13.703125 23.921875 13.539062 23.9375 C 11.675781 24.085938 9.78125 24.246094 7.90625 24.402344 C 7.871094 24.40625 7.835938 24.410156 7.800781 24.410156 Z M 19.085938 23.496094 C 18.925781 23.496094 18.769531 23.464844 18.621094 23.40625 C 18.472656 23.34375 18.339844 23.261719 18.226562 23.148438 C 18.109375 23.039062 18.019531 22.910156 17.953125 22.761719 C 17.890625 22.617188 17.851562 22.464844 17.847656 22.304688 C 17.839844 22.144531 17.863281 21.988281 17.917969 21.835938 C 17.972656 21.6875 18.054688 21.550781 18.160156 21.433594 C 18.265625 21.3125 18.390625 21.21875 18.535156 21.148438 C 18.679688 21.074219 18.832031 21.035156 18.992188 21.023438 C 20.871094 20.878906 22.769531 20.734375 24.636719 20.597656 C 24.804688 20.582031 24.964844 20.601562 25.125 20.648438 C 25.28125 20.699219 25.425781 20.777344 25.550781 20.886719 C 25.679688 20.992188 25.78125 21.121094 25.855469 21.269531 C 25.929688 21.417969 25.976562 21.574219 25.988281 21.738281 C 26 21.90625 25.980469 22.066406 25.925781 22.226562 C 25.871094 22.382812 25.792969 22.523438 25.679688 22.648438 C 25.570312 22.773438 25.441406 22.871094 25.292969 22.945312 C 25.144531 23.015625 24.984375 23.058594 24.820312 23.066406 C 22.953125 23.203125 21.058594 23.351562 19.179688 23.492188 C 19.144531 23.492188 19.113281 23.496094 19.085938 23.496094 Z M 30.371094 22.667969 C 30.207031 22.671875 30.050781 22.648438 29.894531 22.589844 C 29.742188 22.53125 29.605469 22.445312 29.484375 22.335938 C 29.363281 22.222656 29.269531 22.09375 29.203125 21.941406 C 29.132812 21.792969 29.097656 21.636719 29.09375 21.472656 C 29.085938 21.308594 29.113281 21.148438 29.171875 20.996094 C 29.226562 20.839844 29.3125 20.703125 29.425781 20.585938 C 29.539062 20.464844 29.667969 20.371094 29.816406 20.300781 C 29.96875 20.234375 30.125 20.199219 30.289062 20.191406 C 32.167969 20.0625 34.070312 19.933594 35.9375 19.8125 C 36.105469 19.796875 36.265625 19.816406 36.421875 19.867188 C 36.582031 19.917969 36.722656 20 36.847656 20.105469 C 36.972656 20.214844 37.074219 20.34375 37.148438 20.492188 C 37.222656 20.640625 37.265625 20.796875 37.277344 20.964844 C 37.285156 21.128906 37.265625 21.289062 37.210938 21.445312 C 37.15625 21.605469 37.074219 21.746094 36.964844 21.867188 C 36.855469 21.992188 36.722656 22.089844 36.574219 22.160156 C 36.425781 22.234375 36.265625 22.273438 36.101562 22.28125 C 34.234375 22.402344 32.335938 22.53125 30.460938 22.660156 C 30.425781 22.667969 30.398438 22.667969 30.371094 22.667969 Z M 41.667969 21.925781 C 41.503906 21.933594 41.34375 21.90625 41.191406 21.847656 C 41.035156 21.789062 40.898438 21.703125 40.78125 21.589844 C 40.660156 21.476562 40.566406 21.347656 40.5 21.199219 C 40.433594 21.046875 40.394531 20.890625 40.390625 20.726562 C 40.386719 20.5625 40.414062 20.402344 40.46875 20.25 C 40.527344 20.097656 40.613281 19.960938 40.726562 19.839844 C 40.839844 19.722656 40.96875 19.628906 41.121094 19.558594 C 41.269531 19.492188 41.425781 19.457031 41.589844 19.453125 C 43.472656 19.335938 45.375 19.222656 47.246094 19.113281 C 47.410156 19.105469 47.566406 19.125 47.722656 19.179688 C 47.878906 19.234375 48.015625 19.316406 48.140625 19.425781 C 48.261719 19.535156 48.359375 19.664062 48.429688 19.8125 C 48.5 19.957031 48.542969 20.113281 48.550781 20.277344 C 48.558594 20.441406 48.539062 20.601562 48.484375 20.757812 C 48.429688 20.910156 48.347656 21.050781 48.238281 21.171875 C 48.128906 21.296875 48 21.394531 47.851562 21.464844 C 47.707031 21.535156 47.550781 21.574219 47.386719 21.585938 C 45.519531 21.691406 43.621094 21.808594 41.742188 21.921875 C 41.714844 21.925781 41.6875 21.925781 41.664062 21.925781 Z M 52.964844 21.273438 C 52.800781 21.277344 52.640625 21.25 52.488281 21.191406 C 52.335938 21.132812 52.199219 21.046875 52.082031 20.933594 C 51.960938 20.820312 51.867188 20.691406 51.800781 20.539062 C 51.734375 20.390625 51.699219 20.234375 51.695312 20.070312 C 51.691406 19.90625 51.71875 19.746094 51.777344 19.59375 C 51.835938 19.4375 51.921875 19.304688 52.035156 19.183594 C 52.148438 19.066406 52.277344 18.972656 52.429688 18.90625 C 52.578125 18.835938 52.734375 18.800781 52.898438 18.796875 C 54.769531 18.695312 56.671875 18.597656 58.558594 18.503906 C 58.722656 18.496094 58.882812 18.519531 59.035156 18.574219 C 59.191406 18.628906 59.328125 18.710938 59.453125 18.820312 C 59.574219 18.933594 59.667969 19.0625 59.742188 19.210938 C 59.8125 19.359375 59.851562 19.515625 59.859375 19.679688 C 59.867188 19.84375 59.84375 20.003906 59.789062 20.15625 C 59.734375 20.3125 59.648438 20.449219 59.539062 20.574219 C 59.429688 20.695312 59.300781 20.789062 59.152344 20.859375 C 59.003906 20.929688 58.847656 20.972656 58.683594 20.980469 C 56.804688 21.074219 54.902344 21.171875 53.035156 21.273438 C 53.007812 21.273438 52.984375 21.273438 52.960938 21.273438 Z M 64.269531 20.707031 C 64.105469 20.710938 63.945312 20.683594 63.792969 20.625 C 63.640625 20.566406 63.503906 20.476562 63.386719 20.363281 C 63.265625 20.25 63.175781 20.121094 63.109375 19.96875 C 63.042969 19.820312 63.007812 19.660156 63.003906 19.496094 C 63 19.332031 63.027344 19.175781 63.085938 19.023438 C 63.144531 18.867188 63.230469 18.734375 63.347656 18.613281 C 63.460938 18.496094 63.589844 18.402344 63.742188 18.335938 C 63.890625 18.269531 64.046875 18.234375 64.210938 18.230469 C 66.089844 18.144531 67.992188 18.0625 69.871094 17.980469 C 70.035156 17.972656 70.195312 18 70.347656 18.054688 C 70.503906 18.113281 70.640625 18.195312 70.761719 18.304688 C 70.882812 18.417969 70.976562 18.546875 71.046875 18.695312 C 71.117188 18.84375 71.15625 19.003906 71.160156 19.167969 C 71.167969 19.332031 71.144531 19.488281 71.085938 19.644531 C 71.03125 19.796875 70.949219 19.9375 70.835938 20.058594 C 70.726562 20.179688 70.59375 20.273438 70.445312 20.34375 C 70.296875 20.410156 70.140625 20.449219 69.976562 20.457031 C 68.101562 20.535156 66.203125 20.621094 64.328125 20.707031 Z M 75.578125 20.226562 C 75.414062 20.230469 75.253906 20.203125 75.101562 20.140625 C 74.949219 20.082031 74.8125 19.996094 74.695312 19.882812 C 74.578125 19.765625 74.484375 19.636719 74.417969 19.484375 C 74.351562 19.335938 74.320312 19.175781 74.316406 19.011719 C 74.3125 18.847656 74.339844 18.691406 74.402344 18.539062 C 74.460938 18.382812 74.546875 18.25 74.660156 18.128906 C 74.777344 18.011719 74.90625 17.921875 75.058594 17.855469 C 75.207031 17.789062 75.367188 17.753906 75.53125 17.75 C 77.414062 17.679688 79.316406 17.609375 81.1875 17.542969 C 81.351562 17.539062 81.511719 17.5625 81.667969 17.621094 C 81.820312 17.679688 81.957031 17.765625 82.078125 17.875 C 82.199219 17.988281 82.292969 18.117188 82.359375 18.269531 C 82.429688 18.417969 82.464844 18.574219 82.46875 18.738281 C 82.476562 18.902344 82.449219 19.0625 82.394531 19.214844 C 82.335938 19.371094 82.25 19.507812 82.136719 19.628906 C 82.027344 19.746094 81.894531 19.839844 81.746094 19.910156 C 81.597656 19.976562 81.441406 20.015625 81.273438 20.019531 C 79.40625 20.085938 77.503906 20.15625 75.625 20.226562 Z M 86.886719 19.835938 C 86.722656 19.835938 86.566406 19.808594 86.414062 19.746094 C 86.261719 19.6875 86.125 19.597656 86.007812 19.484375 C 85.890625 19.371094 85.796875 19.238281 85.734375 19.085938 C 85.667969 18.9375 85.632812 18.777344 85.632812 18.613281 C 85.628906 18.449219 85.660156 18.292969 85.71875 18.140625 C 85.78125 17.988281 85.867188 17.851562 85.980469 17.734375 C 86.09375 17.617188 86.226562 17.523438 86.378906 17.460938 C 86.527344 17.394531 86.6875 17.359375 86.851562 17.359375 C 88.722656 17.300781 90.628906 17.246094 92.507812 17.195312 C 92.671875 17.1875 92.832031 17.214844 92.984375 17.273438 C 93.140625 17.332031 93.273438 17.417969 93.394531 17.53125 C 93.515625 17.644531 93.605469 17.773438 93.675781 17.925781 C 93.742188 18.074219 93.777344 18.230469 93.78125 18.394531 C 93.785156 18.558594 93.761719 18.71875 93.703125 18.871094 C 93.644531 19.027344 93.558594 19.164062 93.445312 19.28125 C 93.332031 19.402344 93.199219 19.496094 93.050781 19.5625 C 92.902344 19.628906 92.742188 19.664062 92.578125 19.667969 C 90.699219 19.71875 88.796875 19.773438 86.929688 19.832031 Z M 98.203125 19.527344 C 98.039062 19.527344 97.878906 19.5 97.726562 19.4375 C 97.574219 19.375 97.441406 19.289062 97.324219 19.175781 C 97.207031 19.058594 97.113281 18.925781 97.050781 18.777344 C 96.984375 18.625 96.953125 18.46875 96.949219 18.304688 C 96.949219 18.140625 96.976562 17.980469 97.039062 17.828125 C 97.101562 17.675781 97.1875 17.542969 97.304688 17.425781 C 97.417969 17.304688 97.550781 17.214844 97.699219 17.152344 C 97.851562 17.085938 98.007812 17.054688 98.171875 17.050781 C 100.050781 17.007812 101.957031 16.964844 103.832031 16.929688 L 103.855469 16.929688 C 104.019531 16.929688 104.179688 16.957031 104.332031 17.019531 C 104.484375 17.082031 104.617188 17.167969 104.734375 17.285156 C 104.851562 17.398438 104.945312 17.53125 105.007812 17.683594 C 105.070312 17.835938 105.105469 17.992188 105.105469 18.15625 C 105.109375 18.320312 105.078125 18.480469 105.015625 18.632812 C 104.957031 18.78125 104.867188 18.917969 104.753906 19.035156 C 104.636719 19.152344 104.503906 19.242188 104.351562 19.308594 C 104.203125 19.371094 104.042969 19.40625 103.878906 19.40625 C 102.003906 19.441406 100.101562 19.484375 98.226562 19.527344 Z M 109.519531 19.308594 C 109.355469 19.308594 109.199219 19.277344 109.046875 19.214844 C 108.894531 19.15625 108.757812 19.066406 108.640625 18.949219 C 108.523438 18.835938 108.433594 18.703125 108.371094 18.550781 C 108.308594 18.402344 108.273438 18.242188 108.273438 18.078125 C 108.273438 17.914062 108.300781 17.757812 108.363281 17.605469 C 108.425781 17.453125 108.511719 17.316406 108.628906 17.199219 C 108.742188 17.082031 108.875 16.992188 109.027344 16.929688 C 109.179688 16.863281 109.335938 16.832031 109.5 16.832031 C 111.375 16.800781 113.28125 16.777344 115.164062 16.753906 L 115.179688 16.753906 C 115.34375 16.753906 115.5 16.78125 115.652344 16.84375 C 115.804688 16.90625 115.941406 16.996094 116.054688 17.109375 C 116.171875 17.226562 116.261719 17.359375 116.328125 17.511719 C 116.390625 17.664062 116.421875 17.820312 116.421875 17.984375 C 116.425781 18.148438 116.394531 18.304688 116.332031 18.457031 C 116.269531 18.609375 116.183594 18.746094 116.066406 18.863281 C 115.949219 18.976562 115.816406 19.070312 115.667969 19.132812 C 115.515625 19.195312 115.355469 19.226562 115.191406 19.230469 C 113.3125 19.25 111.410156 19.277344 109.539062 19.304688 Z M 120.835938 19.175781 C 120.671875 19.175781 120.515625 19.144531 120.363281 19.082031 C 120.210938 19.019531 120.078125 18.929688 119.960938 18.816406 C 119.84375 18.699219 119.753906 18.566406 119.691406 18.414062 C 119.628906 18.261719 119.597656 18.105469 119.597656 17.941406 C 119.59375 17.777344 119.625 17.617188 119.6875 17.464844 C 119.75 17.316406 119.839844 17.179688 119.953125 17.0625 C 120.070312 16.949219 120.203125 16.859375 120.355469 16.792969 C 120.507812 16.730469 120.664062 16.699219 120.828125 16.699219 C 122.714844 16.683594 124.617188 16.671875 126.492188 16.664062 L 126.496094 16.664062 C 126.660156 16.664062 126.820312 16.695312 126.96875 16.757812 C 127.121094 16.820312 127.257812 16.910156 127.371094 17.023438 C 127.488281 17.140625 127.578125 17.273438 127.640625 17.425781 C 127.707031 17.578125 127.738281 17.734375 127.738281 17.898438 C 127.738281 18.0625 127.707031 18.222656 127.644531 18.375 C 127.582031 18.523438 127.492188 18.660156 127.375 18.777344 C 127.261719 18.890625 127.128906 18.980469 126.976562 19.042969 C 126.824219 19.109375 126.667969 19.140625 126.503906 19.140625 C 124.632812 19.148438 122.730469 19.160156 120.847656 19.171875 Z M 137.8125 19.136719 L 137.808594 19.136719 C 136.050781 19.132812 134.265625 19.128906 132.5 19.128906 L 132.160156 19.128906 C 131.996094 19.128906 131.835938 19.097656 131.683594 19.035156 C 131.535156 18.972656 131.398438 18.882812 131.285156 18.765625 C 131.167969 18.648438 131.078125 18.515625 131.015625 18.363281 C 130.953125 18.210938 130.921875 18.054688 130.921875 17.890625 C 130.921875 17.726562 130.953125 17.566406 131.015625 17.417969 C 131.078125 17.265625 131.167969 17.132812 131.285156 17.015625 C 131.398438 16.898438 131.535156 16.808594 131.683594 16.746094 C 131.835938 16.683594 131.996094 16.652344 132.160156 16.652344 L 132.5 16.652344 C 134.269531 16.652344 136.0625 16.652344 137.820312 16.664062 C 137.984375 16.664062 138.140625 16.695312 138.292969 16.757812 C 138.445312 16.820312 138.578125 16.910156 138.695312 17.027344 C 138.808594 17.144531 138.898438 17.277344 138.960938 17.429688 C 139.023438 17.582031 139.054688 17.738281 139.054688 17.902344 C 139.054688 18.066406 139.023438 18.222656 138.960938 18.375 C 138.894531 18.527344 138.804688 18.660156 138.691406 18.777344 C 138.574219 18.894531 138.441406 18.980469 138.289062 19.042969 C 138.136719 19.105469 137.980469 19.136719 137.816406 19.136719 Z M 137.8125 19.136719 " fill-opacity="1" fill-rule="nonzero"/></g><g clip-path="url(#d12448c6a3)"><path fill="#231f20" d="M 132.820312 25.371094 C 132.582031 25.367188 132.359375 25.304688 132.160156 25.179688 C 131.957031 25.050781 131.804688 24.878906 131.703125 24.664062 C 131.597656 24.449219 131.5625 24.222656 131.589844 23.988281 C 131.617188 23.75 131.707031 23.539062 131.855469 23.355469 C 133.464844 21.359375 135.210938 19.488281 137.089844 17.742188 C 134.972656 16.308594 132.789062 14.945312 130.582031 13.675781 C 130.441406 13.59375 130.316406 13.488281 130.21875 13.359375 C 130.117188 13.230469 130.046875 13.085938 130.003906 12.925781 C 129.960938 12.765625 129.949219 12.605469 129.96875 12.441406 C 129.992188 12.28125 130.042969 12.125 130.125 11.984375 C 130.207031 11.839844 130.3125 11.71875 130.441406 11.621094 C 130.574219 11.519531 130.71875 11.449219 130.875 11.40625 C 131.035156 11.363281 131.195312 11.351562 131.359375 11.371094 C 131.523438 11.394531 131.675781 11.445312 131.816406 11.527344 C 134.539062 13.089844 137.222656 14.792969 139.796875 16.59375 C 139.953125 16.703125 140.078125 16.839844 140.167969 17.007812 C 140.261719 17.171875 140.3125 17.351562 140.324219 17.539062 C 140.332031 17.730469 140.300781 17.914062 140.226562 18.089844 C 140.152344 18.265625 140.046875 18.414062 139.902344 18.539062 C 137.679688 20.484375 135.640625 22.605469 133.78125 24.90625 C 133.535156 25.214844 133.214844 25.367188 132.820312 25.371094 Z M 132.820312 25.371094 " fill-opacity="1" fill-rule="nonzero"/></g></svg>