<svg xmlns="http://www.w3.org/2000/svg" xmlns:xlink="http://www.w3.org/1999/xlink" width="40" zoomAndPan="magnify" viewBox="0 0 30 30.000001" height="40" preserveAspectRatio="xMidYMid meet" version="1.0"><defs><filter x="0%" y="0%" width="100%" height="100%" id="03e4222593"><feColorMatrix values="0 0 0 0 1 0 0 0 0 1 0 0 0 0 1 0 0 0 1 0" color-interpolation-filters="sRGB"/></filter><clipPath id="5b6a5b431a"><path d="M 0.484375 0 L 29.515625 0 L 29.515625 29.03125 L 0.484375 29.03125 Z M 0.484375 0 " clip-rule="nonzero"/></clipPath><clipPath id="efd9e82c29"><path d="M 0.484375 6.109375 L 19 6.109375 L 19 23.527344 L 0.484375 23.527344 Z M 0.484375 6.109375 " clip-rule="nonzero"/></clipPath><clipPath id="07dacd79b9"><path d="M 11 6.109375 L 29.515625 6.109375 L 29.515625 23.527344 L 11 23.527344 Z M 11 6.109375 " clip-rule="nonzero"/></clipPath><clipPath id="b0028306da"><path d="M 11.804688 8.117188 L 18.195312 8.117188 L 18.195312 11 L 11.804688 11 Z M 11.804688 8.117188 " clip-rule="nonzero"/></clipPath><clipPath id="245ec1ef22"><path d="M 18.164062 14.820312 C 18.164062 17.503906 16.933594 19.898438 15 21.5 C 13.066406 19.90625 11.835938 17.503906 11.835938 14.820312 C 11.835938 12.140625 13.066406 9.746094 15 8.148438 C 16.933594 9.746094 18.164062 12.140625 18.164062 14.820312 Z M 18.164062 14.820312 " clip-rule="nonzero"/></clipPath><mask id="2be28cc30c"><g filter="url(#03e4222593)"><rect x="-3" width="36" fill="#000000" y="-3" height="36.000001" fill-opacity="0.698"/></g></mask><clipPath id="582251dea6"><path d="M 0.804688 0.128906 L 7.195312 0.128906 L 7.195312 2.683594 L 0.804688 2.683594 Z M 0.804688 0.128906 " clip-rule="nonzero"/></clipPath><clipPath id="96d5e8fbaa"><path d="M 7.164062 6.820312 C 7.164062 9.503906 5.933594 11.898438 4 13.5 C 2.066406 11.90625 0.835938 9.503906 0.835938 6.820312 C 0.835938 4.140625 2.066406 1.746094 4 0.148438 C 5.933594 1.746094 7.164062 4.140625 7.164062 6.820312 Z M 7.164062 6.820312 " clip-rule="nonzero"/></clipPath><clipPath id="bca8e894b4"><rect x="0" width="8" y="0" height="3"/></clipPath><clipPath id="d5fe0bd6ee"><path d="M 11.804688 8.117188 L 18.195312 8.117188 L 18.195312 12 L 11.804688 12 Z M 11.804688 8.117188 " clip-rule="nonzero"/></clipPath><clipPath id="b13eaeb093"><path d="M 18.164062 14.820312 C 18.164062 17.503906 16.933594 19.898438 15 21.5 C 13.066406 19.90625 11.835938 17.503906 11.835938 14.820312 C 11.835938 12.140625 13.066406 9.746094 15 8.148438 C 16.933594 9.746094 18.164062 12.140625 18.164062 14.820312 Z M 18.164062 14.820312 " clip-rule="nonzero"/></clipPath><mask id="788d3ab819"><g filter="url(#03e4222593)"><rect x="-3" width="36" fill="#000000" y="-3" height="36.000001" fill-opacity="0.698"/></g></mask><clipPath id="1447d7d2cd"><path d="M 0.804688 0.128906 L 7.195312 0.128906 L 7.195312 3.378906 L 0.804688 3.378906 Z M 0.804688 0.128906 " clip-rule="nonzero"/></clipPath><clipPath id="61ee38c432"><path d="M 7.164062 6.820312 C 7.164062 9.503906 5.933594 11.898438 4 13.5 C 2.066406 11.90625 0.835938 9.503906 0.835938 6.820312 C 0.835938 4.140625 2.066406 1.746094 4 0.148438 C 5.933594 1.746094 7.164062 4.140625 7.164062 6.820312 Z M 7.164062 6.820312 " clip-rule="nonzero"/></clipPath><clipPath id="dcd32983ca"><rect x="0" width="8" y="0" height="4"/></clipPath><clipPath id="bfb80955ef"><path d="M 11.804688 8.117188 L 18.195312 8.117188 L 18.195312 13 L 11.804688 13 Z M 11.804688 8.117188 " clip-rule="nonzero"/></clipPath><clipPath id="5a99f75701"><path d="M 18.164062 14.820312 C 18.164062 17.503906 16.933594 19.898438 15 21.5 C 13.066406 19.90625 11.835938 17.503906 11.835938 14.820312 C 11.835938 12.140625 13.066406 9.746094 15 8.148438 C 16.933594 9.746094 18.164062 12.140625 18.164062 14.820312 Z M 18.164062 14.820312 " clip-rule="nonzero"/></clipPath><mask id="920816a728"><g filter="url(#03e4222593)"><rect x="-3" width="36" fill="#000000" y="-3" height="36.000001" fill-opacity="0.698"/></g></mask><clipPath id="302d87c56e"><path d="M 0.804688 0.824219 L 7.195312 0.824219 L 7.195312 4 L 0.804688 4 Z M 0.804688 0.824219 " clip-rule="nonzero"/></clipPath><clipPath id="ccf0f7c2f1"><path d="M 7.164062 6.820312 C 7.164062 9.503906 5.933594 11.898438 4 13.5 C 2.066406 11.90625 0.835938 9.503906 0.835938 6.820312 C 0.835938 4.140625 2.066406 1.746094 4 0.148438 C 5.933594 1.746094 7.164062 4.140625 7.164062 6.820312 Z M 7.164062 6.820312 " clip-rule="nonzero"/></clipPath><clipPath id="95c1fbcabb"><rect x="0" width="8" y="0" height="5"/></clipPath><clipPath id="225deb1058"><path d="M 11.804688 9 L 18.195312 9 L 18.195312 13 L 11.804688 13 Z M 11.804688 9 " clip-rule="nonzero"/></clipPath><clipPath id="6c742ad3b1"><path d="M 18.164062 14.820312 C 18.164062 17.503906 16.933594 19.898438 15 21.5 C 13.066406 19.90625 11.835938 17.503906 11.835938 14.820312 C 11.835938 12.140625 13.066406 9.746094 15 8.148438 C 16.933594 9.746094 18.164062 12.140625 18.164062 14.820312 Z M 18.164062 14.820312 " clip-rule="nonzero"/></clipPath><mask id="db4461c9ea"><g filter="url(#03e4222593)"><rect x="-3" width="36" fill="#000000" y="-3" height="36.000001" fill-opacity="0.698"/></g></mask><clipPath id="3c5d535356"><path d="M 0.804688 0.523438 L 7.195312 0.523438 L 7.195312 3.773438 L 0.804688 3.773438 Z M 0.804688 0.523438 " clip-rule="nonzero"/></clipPath><clipPath id="6a178ce326"><path d="M 7.164062 5.820312 C 7.164062 8.503906 5.933594 10.898438 4 12.5 C 2.066406 10.90625 0.835938 8.503906 0.835938 5.820312 C 0.835938 3.140625 2.066406 0.746094 4 -0.851562 C 5.933594 0.746094 7.164062 3.140625 7.164062 5.820312 Z M 7.164062 5.820312 " clip-rule="nonzero"/></clipPath><clipPath id="11e8a97c8d"><rect x="0" width="8" y="0" height="4"/></clipPath><clipPath id="f3b7d280f4"><path d="M 11.804688 10 L 18.195312 10 L 18.195312 14 L 11.804688 14 Z M 11.804688 10 " clip-rule="nonzero"/></clipPath><clipPath id="8a90bd35bd"><path d="M 18.164062 14.820312 C 18.164062 17.503906 16.933594 19.898438 15 21.5 C 13.066406 19.90625 11.835938 17.503906 11.835938 14.820312 C 11.835938 12.140625 13.066406 9.746094 15 8.148438 C 16.933594 9.746094 18.164062 12.140625 18.164062 14.820312 Z M 18.164062 14.820312 " clip-rule="nonzero"/></clipPath><mask id="60901f3238"><g filter="url(#03e4222593)"><rect x="-3" width="36" fill="#000000" y="-3" height="36.000001" fill-opacity="0.698"/></g></mask><clipPath id="598bbbbcb1"><path d="M 0.804688 0.21875 L 7.195312 0.21875 L 7.195312 3.703125 L 0.804688 3.703125 Z M 0.804688 0.21875 " clip-rule="nonzero"/></clipPath><clipPath id="7f6f5224b6"><path d="M 7.164062 4.820312 C 7.164062 7.503906 5.933594 9.898438 4 11.5 C 2.066406 9.90625 0.835938 7.503906 0.835938 4.820312 C 0.835938 2.140625 2.066406 -0.253906 4 -1.851562 C 5.933594 -0.253906 7.164062 2.140625 7.164062 4.820312 Z M 7.164062 4.820312 " clip-rule="nonzero"/></clipPath><clipPath id="eca84fe2d9"><rect x="0" width="8" y="0" height="4"/></clipPath><clipPath id="cc145a8ccc"><path d="M 11.804688 10 L 18.195312 10 L 18.195312 15 L 11.804688 15 Z M 11.804688 10 " clip-rule="nonzero"/></clipPath><clipPath id="8aaeb832b8"><path d="M 18.164062 14.820312 C 18.164062 17.503906 16.933594 19.898438 15 21.5 C 13.066406 19.90625 11.835938 17.503906 11.835938 14.820312 C 11.835938 12.140625 13.066406 9.746094 15 8.148438 C 16.933594 9.746094 18.164062 12.140625 18.164062 14.820312 Z M 18.164062 14.820312 " clip-rule="nonzero"/></clipPath><mask id="45eca5a241"><g filter="url(#03e4222593)"><rect x="-3" width="36" fill="#000000" y="-3" height="36.000001" fill-opacity="0.698"/></g></mask><clipPath id="e18473aa16"><path d="M 0.804688 1 L 7.195312 1 L 7.195312 4.398438 L 0.804688 4.398438 Z M 0.804688 1 " clip-rule="nonzero"/></clipPath><clipPath id="9e2c774714"><path d="M 7.164062 4.820312 C 7.164062 7.503906 5.933594 9.898438 4 11.5 C 2.066406 9.90625 0.835938 7.503906 0.835938 4.820312 C 0.835938 2.140625 2.066406 -0.253906 4 -1.851562 C 5.933594 -0.253906 7.164062 2.140625 7.164062 4.820312 Z M 7.164062 4.820312 " clip-rule="nonzero"/></clipPath><clipPath id="0f2118b5c0"><rect x="0" width="8" y="0" height="5"/></clipPath><clipPath id="c91bb144bb"><path d="M 11.804688 11 L 18.195312 11 L 18.195312 16 L 11.804688 16 Z M 11.804688 11 " clip-rule="nonzero"/></clipPath><clipPath id="a71ace2354"><path d="M 18.164062 14.820312 C 18.164062 17.503906 16.933594 19.898438 15 21.5 C 13.066406 19.90625 11.835938 17.503906 11.835938 14.820312 C 11.835938 12.140625 13.066406 9.746094 15 8.148438 C 16.933594 9.746094 18.164062 12.140625 18.164062 14.820312 Z M 18.164062 14.820312 " clip-rule="nonzero"/></clipPath><mask id="b33a41c4cf"><g filter="url(#03e4222593)"><rect x="-3" width="36" fill="#000000" y="-3" height="36.000001" fill-opacity="0.698"/></g></mask><clipPath id="280c4cb48b"><path d="M 0.804688 0.84375 L 7.195312 0.84375 L 7.195312 4 L 0.804688 4 Z M 0.804688 0.84375 " clip-rule="nonzero"/></clipPath><clipPath id="75b31a0ab0"><path d="M 7.164062 3.820312 C 7.164062 6.503906 5.933594 8.898438 4 10.5 C 2.066406 8.90625 0.835938 6.503906 0.835938 3.820312 C 0.835938 1.140625 2.066406 -1.253906 4 -2.851562 C 5.933594 -1.253906 7.164062 1.140625 7.164062 3.820312 Z M 7.164062 3.820312 " clip-rule="nonzero"/></clipPath><clipPath id="b670202785"><rect x="0" width="8" y="0" height="5"/></clipPath><clipPath id="c7ac314878"><path d="M 11.804688 12 L 18.195312 12 L 18.195312 16 L 11.804688 16 Z M 11.804688 12 " clip-rule="nonzero"/></clipPath><clipPath id="8aa3cf9d43"><path d="M 18.164062 14.820312 C 18.164062 17.503906 16.933594 19.898438 15 21.5 C 13.066406 19.90625 11.835938 17.503906 11.835938 14.820312 C 11.835938 12.140625 13.066406 9.746094 15 8.148438 C 16.933594 9.746094 18.164062 12.140625 18.164062 14.820312 Z M 18.164062 14.820312 " clip-rule="nonzero"/></clipPath><mask id="c0c8005a32"><g filter="url(#03e4222593)"><rect x="-3" width="36" fill="#000000" y="-3" height="36.000001" fill-opacity="0.698"/></g></mask><clipPath id="fa890856e5"><path d="M 0.804688 0.542969 L 7.195312 0.542969 L 7.195312 3.792969 L 0.804688 3.792969 Z M 0.804688 0.542969 " clip-rule="nonzero"/></clipPath><clipPath id="458b4617b2"><path d="M 7.164062 2.820312 C 7.164062 5.503906 5.933594 7.898438 4 9.5 C 2.066406 7.90625 0.835938 5.503906 0.835938 2.820312 C 0.835938 0.140625 2.066406 -2.253906 4 -3.851562 C 5.933594 -2.253906 7.164062 0.140625 7.164062 2.820312 Z M 7.164062 2.820312 " clip-rule="nonzero"/></clipPath><clipPath id="5258368f74"><rect x="0" width="8" y="0" height="4"/></clipPath><clipPath id="a3f199b3be"><path d="M 11.804688 13 L 18.195312 13 L 18.195312 17 L 11.804688 17 Z M 11.804688 13 " clip-rule="nonzero"/></clipPath><clipPath id="29762a25ed"><path d="M 18.164062 14.820312 C 18.164062 17.503906 16.933594 19.898438 15 21.5 C 13.066406 19.90625 11.835938 17.503906 11.835938 14.820312 C 11.835938 12.140625 13.066406 9.746094 15 8.148438 C 16.933594 9.746094 18.164062 12.140625 18.164062 14.820312 Z M 18.164062 14.820312 " clip-rule="nonzero"/></clipPath><mask id="8023b94b48"><g filter="url(#03e4222593)"><rect x="-3" width="36" fill="#000000" y="-3" height="36.000001" fill-opacity="0.698"/></g></mask><clipPath id="89a10c5199"><path d="M 0.804688 0.238281 L 7.195312 0.238281 L 7.195312 3.492188 L 0.804688 3.492188 Z M 0.804688 0.238281 " clip-rule="nonzero"/></clipPath><clipPath id="1a8e0406d9"><path d="M 7.164062 1.820312 C 7.164062 4.503906 5.933594 6.898438 4 8.5 C 2.066406 6.90625 0.835938 4.503906 0.835938 1.820312 C 0.835938 -0.859375 2.066406 -3.253906 4 -4.851562 C 5.933594 -3.253906 7.164062 -0.859375 7.164062 1.820312 Z M 7.164062 1.820312 " clip-rule="nonzero"/></clipPath><clipPath id="936103b8ee"><rect x="0" width="8" y="0" height="4"/></clipPath><clipPath id="1d9906e020"><path d="M 11.804688 13 L 18.195312 13 L 18.195312 18 L 11.804688 18 Z M 11.804688 13 " clip-rule="nonzero"/></clipPath><clipPath id="1746633351"><path d="M 18.164062 14.820312 C 18.164062 17.503906 16.933594 19.898438 15 21.5 C 13.066406 19.90625 11.835938 17.503906 11.835938 14.820312 C 11.835938 12.140625 13.066406 9.746094 15 8.148438 C 16.933594 9.746094 18.164062 12.140625 18.164062 14.820312 Z M 18.164062 14.820312 " clip-rule="nonzero"/></clipPath><mask id="da35e2d650"><g filter="url(#03e4222593)"><rect x="-3" width="36" fill="#000000" y="-3" height="36.000001" fill-opacity="0.698"/></g></mask><clipPath id="e3d82bf7e3"><path d="M 0.804688 1 L 7.195312 1 L 7.195312 4.1875 L 0.804688 4.1875 Z M 0.804688 1 " clip-rule="nonzero"/></clipPath><clipPath id="3f506f28d6"><path d="M 7.164062 1.820312 C 7.164062 4.503906 5.933594 6.898438 4 8.5 C 2.066406 6.90625 0.835938 4.503906 0.835938 1.820312 C 0.835938 -0.859375 2.066406 -3.253906 4 -4.851562 C 5.933594 -3.253906 7.164062 -0.859375 7.164062 1.820312 Z M 7.164062 1.820312 " clip-rule="nonzero"/></clipPath><clipPath id="230799a944"><rect x="0" width="8" y="0" height="5"/></clipPath><clipPath id="819764b26c"><path d="M 11.804688 14 L 18.195312 14 L 18.195312 19 L 11.804688 19 Z M 11.804688 14 " clip-rule="nonzero"/></clipPath><clipPath id="3d623ab28c"><path d="M 18.164062 14.820312 C 18.164062 17.503906 16.933594 19.898438 15 21.5 C 13.066406 19.90625 11.835938 17.503906 11.835938 14.820312 C 11.835938 12.140625 13.066406 9.746094 15 8.148438 C 16.933594 9.746094 18.164062 12.140625 18.164062 14.820312 Z M 18.164062 14.820312 " clip-rule="nonzero"/></clipPath><mask id="5f88ba3660"><g filter="url(#03e4222593)"><rect x="-3" width="36" fill="#000000" y="-3" height="36.000001" fill-opacity="0.698"/></g></mask><clipPath id="bb8d793a98"><path d="M 0.804688 0.632812 L 7.195312 0.632812 L 7.195312 4 L 0.804688 4 Z M 0.804688 0.632812 " clip-rule="nonzero"/></clipPath><clipPath id="4d04b8ca67"><path d="M 7.164062 0.820312 C 7.164062 3.503906 5.933594 5.898438 4 7.5 C 2.066406 5.90625 0.835938 3.503906 0.835938 0.820312 C 0.835938 -1.859375 2.066406 -4.253906 4 -5.851562 C 5.933594 -4.253906 7.164062 -1.859375 7.164062 0.820312 Z M 7.164062 0.820312 " clip-rule="nonzero"/></clipPath><clipPath id="b73839ceb2"><rect x="0" width="8" y="0" height="5"/></clipPath><clipPath id="f993510d0b"><path d="M 11.804688 15 L 18.195312 15 L 18.195312 19 L 11.804688 19 Z M 11.804688 15 " clip-rule="nonzero"/></clipPath><clipPath id="090e75bae5"><path d="M 18.164062 14.820312 C 18.164062 17.503906 16.933594 19.898438 15 21.5 C 13.066406 19.90625 11.835938 17.503906 11.835938 14.820312 C 11.835938 12.140625 13.066406 9.746094 15 8.148438 C 16.933594 9.746094 18.164062 12.140625 18.164062 14.820312 Z M 18.164062 14.820312 " clip-rule="nonzero"/></clipPath><mask id="60496707d7"><g filter="url(#03e4222593)"><rect x="-3" width="36" fill="#000000" y="-3" height="36.000001" fill-opacity="0.698"/></g></mask><clipPath id="d4b0caafb3"><path d="M 0.804688 0.5625 L 7.195312 0.5625 L 7.195312 3.8125 L 0.804688 3.8125 Z M 0.804688 0.5625 " clip-rule="nonzero"/></clipPath><clipPath id="a036fa1ee4"><path d="M 7.164062 -0.179688 C 7.164062 2.503906 5.933594 4.898438 4 6.5 C 2.066406 4.90625 0.835938 2.503906 0.835938 -0.179688 C 0.835938 -2.859375 2.066406 -5.253906 4 -6.851562 C 5.933594 -5.253906 7.164062 -2.859375 7.164062 -0.179688 Z M 7.164062 -0.179688 " clip-rule="nonzero"/></clipPath><clipPath id="ba45039985"><rect x="0" width="8" y="0" height="4"/></clipPath><clipPath id="56329d7c6d"><path d="M 11.804688 16 L 18.195312 16 L 18.195312 20 L 11.804688 20 Z M 11.804688 16 " clip-rule="nonzero"/></clipPath><clipPath id="18c9b25d47"><path d="M 18.164062 14.820312 C 18.164062 17.503906 16.933594 19.898438 15 21.5 C 13.066406 19.90625 11.835938 17.503906 11.835938 14.820312 C 11.835938 12.140625 13.066406 9.746094 15 8.148438 C 16.933594 9.746094 18.164062 12.140625 18.164062 14.820312 Z M 18.164062 14.820312 " clip-rule="nonzero"/></clipPath><mask id="d828853af9"><g filter="url(#03e4222593)"><rect x="-3" width="36" fill="#000000" y="-3" height="36.000001" fill-opacity="0.698"/></g></mask><clipPath id="b9112cae2a"><path d="M 0.804688 0.257812 L 7.195312 0.257812 L 7.195312 3.507812 L 0.804688 3.507812 Z M 0.804688 0.257812 " clip-rule="nonzero"/></clipPath><clipPath id="2342517f92"><path d="M 7.164062 -1.179688 C 7.164062 1.503906 5.933594 3.898438 4 5.5 C 2.066406 3.90625 0.835938 1.503906 0.835938 -1.179688 C 0.835938 -3.859375 2.066406 -6.253906 4 -7.851562 C 5.933594 -6.253906 7.164062 -3.859375 7.164062 -1.179688 Z M 7.164062 -1.179688 " clip-rule="nonzero"/></clipPath><clipPath id="b46ee7dba0"><rect x="0" width="8" y="0" height="4"/></clipPath><clipPath id="adfdcb5e4f"><path d="M 11.804688 16 L 18.195312 16 L 18.195312 21 L 11.804688 21 Z M 11.804688 16 " clip-rule="nonzero"/></clipPath><clipPath id="f0471109cb"><path d="M 18.164062 14.820312 C 18.164062 17.503906 16.933594 19.898438 15 21.5 C 13.066406 19.90625 11.835938 17.503906 11.835938 14.820312 C 11.835938 12.140625 13.066406 9.746094 15 8.148438 C 16.933594 9.746094 18.164062 12.140625 18.164062 14.820312 Z M 18.164062 14.820312 " clip-rule="nonzero"/></clipPath><mask id="b8bd3e9281"><g filter="url(#03e4222593)"><rect x="-3" width="36" fill="#000000" y="-3" height="36.000001" fill-opacity="0.698"/></g></mask><clipPath id="a62f098102"><path d="M 0.804688 1 L 7.195312 1 L 7.195312 4.207031 L 0.804688 4.207031 Z M 0.804688 1 " clip-rule="nonzero"/></clipPath><clipPath id="3256ffb14b"><path d="M 7.164062 -1.179688 C 7.164062 1.503906 5.933594 3.898438 4 5.5 C 2.066406 3.90625 0.835938 1.503906 0.835938 -1.179688 C 0.835938 -3.859375 2.066406 -6.253906 4 -7.851562 C 5.933594 -6.253906 7.164062 -3.859375 7.164062 -1.179688 Z M 7.164062 -1.179688 " clip-rule="nonzero"/></clipPath><clipPath id="819c380586"><rect x="0" width="8" y="0" height="5"/></clipPath><clipPath id="1d0905649b"><path d="M 11.804688 17 L 18.195312 17 L 18.195312 21 L 11.804688 21 Z M 11.804688 17 " clip-rule="nonzero"/></clipPath><clipPath id="abb17ff547"><path d="M 18.164062 14.820312 C 18.164062 17.503906 16.933594 19.898438 15 21.5 C 13.066406 19.90625 11.835938 17.503906 11.835938 14.820312 C 11.835938 12.140625 13.066406 9.746094 15 8.148438 C 16.933594 9.746094 18.164062 12.140625 18.164062 14.820312 Z M 18.164062 14.820312 " clip-rule="nonzero"/></clipPath><mask id="442caf83b1"><g filter="url(#03e4222593)"><rect x="-3" width="36" fill="#000000" y="-3" height="36.000001" fill-opacity="0.698"/></g></mask><clipPath id="ba2440ca2d"><path d="M 0.804688 0.652344 L 7.195312 0.652344 L 7.195312 3.902344 L 0.804688 3.902344 Z M 0.804688 0.652344 " clip-rule="nonzero"/></clipPath><clipPath id="a790c87bda"><path d="M 7.164062 -2.179688 C 7.164062 0.503906 5.933594 2.898438 4 4.5 C 2.066406 2.90625 0.835938 0.503906 0.835938 -2.179688 C 0.835938 -4.859375 2.066406 -7.253906 4 -8.851562 C 5.933594 -7.253906 7.164062 -4.859375 7.164062 -2.179688 Z M 7.164062 -2.179688 " clip-rule="nonzero"/></clipPath><clipPath id="b35c278903"><rect x="0" width="8" y="0" height="4"/></clipPath><clipPath id="e6657887a0"><path d="M 11.804688 18 L 18.195312 18 L 18.195312 21.550781 L 11.804688 21.550781 Z M 11.804688 18 " clip-rule="nonzero"/></clipPath><clipPath id="69e6861adb"><path d="M 18.164062 14.820312 C 18.164062 17.503906 16.933594 19.898438 15 21.5 C 13.066406 19.90625 11.835938 17.503906 11.835938 14.820312 C 11.835938 12.140625 13.066406 9.746094 15 8.148438 C 16.933594 9.746094 18.164062 12.140625 18.164062 14.820312 Z M 18.164062 14.820312 " clip-rule="nonzero"/></clipPath><mask id="4298974bd9"><g filter="url(#03e4222593)"><rect x="-3" width="36" fill="#000000" y="-3" height="36.000001" fill-opacity="0.698"/></g></mask><clipPath id="c2d56f488e"><path d="M 0.804688 0.347656 L 7.195312 0.347656 L 7.195312 3.550781 L 0.804688 3.550781 Z M 0.804688 0.347656 " clip-rule="nonzero"/></clipPath><clipPath id="4349205dbb"><path d="M 7.164062 -3.179688 C 7.164062 -0.496094 5.933594 1.898438 4 3.5 C 2.066406 1.90625 0.835938 -0.496094 0.835938 -3.179688 C 0.835938 -5.859375 2.066406 -8.253906 4 -9.851562 C 5.933594 -8.253906 7.164062 -5.859375 7.164062 -3.179688 Z M 7.164062 -3.179688 " clip-rule="nonzero"/></clipPath><clipPath id="7e0c27137f"><rect x="0" width="8" y="0" height="4"/></clipPath><clipPath id="4a90c479a5"><path d="M 11.804688 19 L 18.195312 19 L 18.195312 21.550781 L 11.804688 21.550781 Z M 11.804688 19 " clip-rule="nonzero"/></clipPath><clipPath id="fd9016830d"><path d="M 18.164062 14.820312 C 18.164062 17.503906 16.933594 19.898438 15 21.5 C 13.066406 19.90625 11.835938 17.503906 11.835938 14.820312 C 11.835938 12.140625 13.066406 9.746094 15 8.148438 C 16.933594 9.746094 18.164062 12.140625 18.164062 14.820312 Z M 18.164062 14.820312 " clip-rule="nonzero"/></clipPath><mask id="06649e718f"><g filter="url(#03e4222593)"><rect x="-3" width="36" fill="#000000" y="-3" height="36.000001" fill-opacity="0.698"/></g></mask><clipPath id="0626d52fc4"><path d="M 0.804688 0.277344 L 7.195312 0.277344 L 7.195312 2.550781 L 0.804688 2.550781 Z M 0.804688 0.277344 " clip-rule="nonzero"/></clipPath><clipPath id="7c8bc32cd9"><path d="M 7.164062 -4.179688 C 7.164062 -1.496094 5.933594 0.898438 4 2.5 C 2.066406 0.90625 0.835938 -1.496094 0.835938 -4.179688 C 0.835938 -6.859375 2.066406 -9.253906 4 -10.851562 C 5.933594 -9.253906 7.164062 -6.859375 7.164062 -4.179688 Z M 7.164062 -4.179688 " clip-rule="nonzero"/></clipPath><clipPath id="2c57b816ec"><rect x="0" width="8" y="0" height="3"/></clipPath></defs><g clip-path="url(#5b6a5b431a)"><path fill="#ffffff" d="M 0.484375 0 L 29.515625 0 L 29.515625 36.289062 L 0.484375 36.289062 Z M 0.484375 0 " fill-opacity="1" fill-rule="nonzero"/><path fill="#ffffff" d="M 0.484375 0 L 29.515625 0 L 29.515625 29.03125 L 0.484375 29.03125 Z M 0.484375 0 " fill-opacity="1" fill-rule="nonzero"/><path fill="#ffffff" d="M 0.484375 0 L 29.515625 0 L 29.515625 29.03125 L 0.484375 29.03125 Z M 0.484375 0 " fill-opacity="1" fill-rule="nonzero"/></g><g clip-path="url(#efd9e82c29)"><path fill="#03989e" d="M 18.171875 14.820312 C 18.171875 15.394531 18.113281 15.960938 18 16.519531 C 17.886719 17.082031 17.71875 17.625 17.496094 18.152344 C 17.273438 18.683594 17.003906 19.183594 16.679688 19.660156 C 16.355469 20.136719 15.992188 20.574219 15.582031 20.980469 C 15.167969 21.382812 14.722656 21.746094 14.238281 22.0625 C 13.757812 22.378906 13.246094 22.648438 12.710938 22.867188 C 12.175781 23.085938 11.621094 23.25 11.050781 23.363281 C 10.484375 23.472656 9.90625 23.527344 9.328125 23.527344 C 8.746094 23.527344 8.171875 23.472656 7.601562 23.363281 C 7.03125 23.25 6.480469 23.085938 5.941406 22.867188 C 5.40625 22.648438 4.898438 22.378906 4.414062 22.0625 C 3.929688 21.746094 3.484375 21.382812 3.074219 20.980469 C 2.664062 20.574219 2.296875 20.136719 1.972656 19.660156 C 1.652344 19.183594 1.378906 18.683594 1.15625 18.152344 C 0.933594 17.625 0.765625 17.082031 0.652344 16.519531 C 0.539062 15.960938 0.484375 15.394531 0.484375 14.820312 C 0.484375 14.25 0.539062 13.683594 0.652344 13.125 C 0.765625 12.5625 0.933594 12.019531 1.15625 11.488281 C 1.378906 10.960938 1.652344 10.460938 1.972656 9.984375 C 2.296875 9.507812 2.664062 9.070312 3.074219 8.664062 C 3.484375 8.261719 3.929688 7.898438 4.414062 7.582031 C 4.898438 7.265625 5.40625 6.996094 5.941406 6.777344 C 6.480469 6.558594 7.03125 6.394531 7.601562 6.28125 C 8.171875 6.171875 8.746094 6.113281 9.328125 6.113281 C 9.90625 6.113281 10.484375 6.171875 11.050781 6.28125 C 11.621094 6.394531 12.175781 6.558594 12.710938 6.777344 C 13.246094 6.996094 13.757812 7.265625 14.238281 7.582031 C 14.722656 7.898438 15.167969 8.261719 15.582031 8.664062 C 15.992188 9.070312 16.355469 9.507812 16.679688 9.984375 C 17.003906 10.460938 17.273438 10.960938 17.496094 11.488281 C 17.71875 12.019531 17.886719 12.5625 18 13.125 C 18.113281 13.683594 18.171875 14.25 18.171875 14.820312 Z M 18.171875 14.820312 " fill-opacity="1" fill-rule="nonzero"/></g><g clip-path="url(#07dacd79b9)"><path fill="#f38e64" d="M 29.515625 14.820312 C 29.515625 15.394531 29.460938 15.960938 29.347656 16.519531 C 29.234375 17.082031 29.066406 17.625 28.84375 18.152344 C 28.621094 18.683594 28.347656 19.183594 28.027344 19.660156 C 27.703125 20.136719 27.335938 20.574219 26.925781 20.980469 C 26.515625 21.382812 26.070312 21.746094 25.585938 22.0625 C 25.101562 22.378906 24.59375 22.648438 24.058594 22.867188 C 23.519531 23.085938 22.96875 23.25 22.398438 23.363281 C 21.828125 23.472656 21.253906 23.527344 20.671875 23.527344 C 20.09375 23.527344 19.515625 23.472656 18.949219 23.363281 C 18.378906 23.25 17.824219 23.085938 17.289062 22.867188 C 16.753906 22.648438 16.242188 22.378906 15.761719 22.0625 C 15.277344 21.746094 14.832031 21.382812 14.417969 20.980469 C 14.007812 20.574219 13.644531 20.136719 13.320312 19.660156 C 12.996094 19.183594 12.726562 18.683594 12.503906 18.152344 C 12.28125 17.625 12.113281 17.082031 12 16.519531 C 11.886719 15.960938 11.828125 15.394531 11.828125 14.820312 C 11.828125 14.25 11.886719 13.683594 12 13.125 C 12.113281 12.5625 12.28125 12.019531 12.503906 11.488281 C 12.726562 10.960938 12.996094 10.460938 13.320312 9.984375 C 13.644531 9.507812 14.007812 9.070312 14.417969 8.664062 C 14.832031 8.261719 15.277344 7.898438 15.761719 7.582031 C 16.242188 7.265625 16.753906 6.996094 17.289062 6.777344 C 17.824219 6.558594 18.378906 6.394531 18.949219 6.28125 C 19.515625 6.171875 20.09375 6.113281 20.671875 6.113281 C 21.253906 6.113281 21.828125 6.171875 22.398438 6.28125 C 22.96875 6.394531 23.519531 6.558594 24.058594 6.777344 C 24.59375 6.996094 25.101562 7.265625 25.585938 7.582031 C 26.070312 7.898438 26.515625 8.261719 26.925781 8.664062 C 27.335938 9.070312 27.703125 9.507812 28.027344 9.984375 C 28.347656 10.460938 28.621094 10.960938 28.84375 11.488281 C 29.066406 12.019531 29.234375 12.5625 29.347656 13.125 C 29.460938 13.683594 29.515625 14.25 29.515625 14.820312 Z M 29.515625 14.820312 " fill-opacity="1" fill-rule="nonzero"/></g><path fill="#506f96" d="M 18.164062 14.820312 C 18.164062 17.503906 16.933594 19.898438 15 21.5 C 13.066406 19.90625 11.835938 17.503906 11.835938 14.820312 C 11.835938 12.140625 13.066406 9.746094 15 8.148438 C 16.933594 9.746094 18.164062 12.140625 18.164062 14.820312 Z M 18.164062 14.820312 " fill-opacity="1" fill-rule="nonzero"/><g clip-path="url(#b0028306da)"><g clip-path="url(#245ec1ef22)"><g mask="url(#2be28cc30c)"><g transform="matrix(1, 0, 0, 1, 11, 8)"><g clip-path="url(#bca8e894b4)"><g clip-path="url(#582251dea6)"><g clip-path="url(#96d5e8fbaa)"><path fill="#f1f2f2" d="M -0.664062 2.488281 L -0.679688 2.449219 L 7.542969 -0.523438 L 7.554688 -0.484375 Z M -0.664062 2.488281 " fill-opacity="1" fill-rule="nonzero"/></g></g></g></g></g></g></g><g clip-path="url(#d5fe0bd6ee)"><g clip-path="url(#b13eaeb093)"><g mask="url(#788d3ab819)"><g transform="matrix(1, 0, 0, 1, 11, 8)"><g clip-path="url(#dcd32983ca)"><g clip-path="url(#1447d7d2cd)"><g clip-path="url(#61ee38c432)"><path fill="#f1f2f2" d="M -0.664062 3.226562 L -0.679688 3.1875 L 7.542969 0.21875 L 7.554688 0.257812 Z M -0.664062 3.226562 " fill-opacity="1" fill-rule="nonzero"/></g></g></g></g></g></g></g><g clip-path="url(#bfb80955ef)"><g clip-path="url(#5a99f75701)"><g mask="url(#920816a728)"><g transform="matrix(1, 0, 0, 1, 11, 8)"><g clip-path="url(#95c1fbcabb)"><g clip-path="url(#302d87c56e)"><g clip-path="url(#ccf0f7c2f1)"><path fill="#f1f2f2" d="M -0.664062 3.96875 L -0.679688 3.929688 L 7.542969 0.957031 L 7.554688 0.996094 Z M -0.664062 3.96875 " fill-opacity="1" fill-rule="nonzero"/></g></g></g></g></g></g></g><g clip-path="url(#225deb1058)"><g clip-path="url(#6c742ad3b1)"><g mask="url(#db4461c9ea)"><g transform="matrix(1, 0, 0, 1, 11, 9)"><g clip-path="url(#11e8a97c8d)"><g clip-path="url(#3c5d535356)"><g clip-path="url(#6a178ce326)"><path fill="#f1f2f2" d="M -0.664062 3.707031 L -0.679688 3.667969 L 7.542969 0.699219 L 7.554688 0.738281 Z M -0.664062 3.707031 " fill-opacity="1" fill-rule="nonzero"/></g></g></g></g></g></g></g><g clip-path="url(#f3b7d280f4)"><g clip-path="url(#8a90bd35bd)"><g mask="url(#60901f3238)"><g transform="matrix(1, 0, 0, 1, 11, 10)"><g clip-path="url(#eca84fe2d9)"><g clip-path="url(#598bbbbcb1)"><g clip-path="url(#7f6f5224b6)"><path fill="#f1f2f2" d="M -0.664062 3.449219 L -0.679688 3.410156 L 7.542969 0.4375 L 7.554688 0.476562 Z M -0.664062 3.449219 " fill-opacity="1" fill-rule="nonzero"/></g></g></g></g></g></g></g><g clip-path="url(#cc145a8ccc)"><g clip-path="url(#8aaeb832b8)"><g mask="url(#45eca5a241)"><g transform="matrix(1, 0, 0, 1, 11, 10)"><g clip-path="url(#0f2118b5c0)"><g clip-path="url(#e18473aa16)"><g clip-path="url(#9e2c774714)"><path fill="#f1f2f2" d="M -0.664062 4.1875 L -0.679688 4.148438 L 7.542969 1.179688 L 7.554688 1.21875 Z M -0.664062 4.1875 " fill-opacity="1" fill-rule="nonzero"/></g></g></g></g></g></g></g><g clip-path="url(#c91bb144bb)"><g clip-path="url(#a71ace2354)"><g mask="url(#b33a41c4cf)"><g transform="matrix(1, 0, 0, 1, 11, 11)"><g clip-path="url(#b670202785)"><g clip-path="url(#280c4cb48b)"><g clip-path="url(#75b31a0ab0)"><path fill="#f1f2f2" d="M -0.664062 3.929688 L -0.679688 3.890625 L 7.542969 0.917969 L 7.554688 0.957031 Z M -0.664062 3.929688 " fill-opacity="1" fill-rule="nonzero"/></g></g></g></g></g></g></g><g clip-path="url(#c7ac314878)"><g clip-path="url(#8aa3cf9d43)"><g mask="url(#c0c8005a32)"><g transform="matrix(1, 0, 0, 1, 11, 12)"><g clip-path="url(#5258368f74)"><g clip-path="url(#fa890856e5)"><g clip-path="url(#458b4617b2)"><path fill="#f1f2f2" d="M -0.664062 3.667969 L -0.679688 3.628906 L 7.542969 0.660156 L 7.554688 0.699219 Z M -0.664062 3.667969 " fill-opacity="1" fill-rule="nonzero"/></g></g></g></g></g></g></g><g clip-path="url(#a3f199b3be)"><g clip-path="url(#29762a25ed)"><g mask="url(#8023b94b48)"><g transform="matrix(1, 0, 0, 1, 11, 13)"><g clip-path="url(#936103b8ee)"><g clip-path="url(#89a10c5199)"><g clip-path="url(#1a8e0406d9)"><path fill="#f1f2f2" d="M -0.664062 3.410156 L -0.679688 3.371094 L 7.542969 0.402344 L 7.554688 0.4375 Z M -0.664062 3.410156 " fill-opacity="1" fill-rule="nonzero"/></g></g></g></g></g></g></g><g clip-path="url(#1d9906e020)"><g clip-path="url(#1746633351)"><g mask="url(#da35e2d650)"><g transform="matrix(1, 0, 0, 1, 11, 13)"><g clip-path="url(#230799a944)"><g clip-path="url(#e3d82bf7e3)"><g clip-path="url(#3f506f28d6)"><path fill="#f1f2f2" d="M -0.664062 4.148438 L -0.679688 4.109375 L 7.542969 1.140625 L 7.554688 1.183594 Z M -0.664062 4.148438 " fill-opacity="1" fill-rule="nonzero"/></g></g></g></g></g></g></g><g clip-path="url(#819764b26c)"><g clip-path="url(#3d623ab28c)"><g mask="url(#5f88ba3660)"><g transform="matrix(1, 0, 0, 1, 11, 14)"><g clip-path="url(#b73839ceb2)"><g clip-path="url(#bb8d793a98)"><g clip-path="url(#4d04b8ca67)"><path fill="#f1f2f2" d="M -0.664062 3.890625 L -0.679688 3.851562 L 7.542969 0.886719 L 7.554688 0.917969 Z M -0.664062 3.890625 " fill-opacity="1" fill-rule="nonzero"/></g></g></g></g></g></g></g><g clip-path="url(#f993510d0b)"><g clip-path="url(#090e75bae5)"><g mask="url(#60496707d7)"><g transform="matrix(1, 0, 0, 1, 11, 15)"><g clip-path="url(#ba45039985)"><g clip-path="url(#d4b0caafb3)"><g clip-path="url(#a036fa1ee4)"><path fill="#f1f2f2" d="M -0.664062 3.628906 L -0.679688 3.59375 L 7.542969 0.621094 L 7.554688 0.664062 Z M -0.664062 3.628906 " fill-opacity="1" fill-rule="nonzero"/></g></g></g></g></g></g></g><g clip-path="url(#56329d7c6d)"><g clip-path="url(#18c9b25d47)"><g mask="url(#d828853af9)"><g transform="matrix(1, 0, 0, 1, 11, 16)"><g clip-path="url(#b46ee7dba0)"><g clip-path="url(#b9112cae2a)"><g clip-path="url(#2342517f92)"><path fill="#f1f2f2" d="M -0.664062 3.371094 L -0.679688 3.332031 L 7.542969 0.367188 L 7.554688 0.40625 Z M -0.664062 3.371094 " fill-opacity="1" fill-rule="nonzero"/></g></g></g></g></g></g></g><g clip-path="url(#adfdcb5e4f)"><g clip-path="url(#f0471109cb)"><g mask="url(#b8bd3e9281)"><g transform="matrix(1, 0, 0, 1, 11, 16)"><g clip-path="url(#819c380586)"><g clip-path="url(#a62f098102)"><g clip-path="url(#3256ffb14b)"><path fill="#f1f2f2" d="M -0.664062 4.109375 L -0.679688 4.074219 L 7.542969 1.101562 L 7.554688 1.144531 Z M -0.664062 4.109375 " fill-opacity="1" fill-rule="nonzero"/></g></g></g></g></g></g></g><g clip-path="url(#1d0905649b)"><g clip-path="url(#abb17ff547)"><g mask="url(#442caf83b1)"><g transform="matrix(1, 0, 0, 1, 11, 17)"><g clip-path="url(#b35c278903)"><g clip-path="url(#ba2440ca2d)"><g clip-path="url(#a790c87bda)"><path fill="#f1f2f2" d="M -0.664062 3.855469 L -0.679688 3.8125 L 7.542969 0.847656 L 7.554688 0.886719 Z M -0.664062 3.855469 " fill-opacity="1" fill-rule="nonzero"/></g></g></g></g></g></g></g><g clip-path="url(#e6657887a0)"><g clip-path="url(#69e6861adb)"><g mask="url(#4298974bd9)"><g transform="matrix(1, 0, 0, 1, 11, 18)"><g clip-path="url(#7e0c27137f)"><g clip-path="url(#c2d56f488e)"><g clip-path="url(#4349205dbb)"><path fill="#f1f2f2" d="M -0.664062 3.589844 L -0.679688 3.558594 L 7.542969 0.582031 L 7.554688 0.625 Z M -0.664062 3.589844 " fill-opacity="1" fill-rule="nonzero"/></g></g></g></g></g></g></g><g clip-path="url(#4a90c479a5)"><g clip-path="url(#fd9016830d)"><g mask="url(#06649e718f)"><g transform="matrix(1, 0, 0, 1, 11, 19)"><g clip-path="url(#2c57b816ec)"><g clip-path="url(#0626d52fc4)"><g clip-path="url(#7c8bc32cd9)"><path fill="#f1f2f2" d="M -0.664062 3.335938 L -0.679688 3.292969 L 7.542969 0.328125 L 7.554688 0.367188 Z M -0.664062 3.335938 " fill-opacity="1" fill-rule="nonzero"/></g></g></g></g></g></g></g></svg>