<svg xmlns="http://www.w3.org/2000/svg" xmlns:xlink="http://www.w3.org/1999/xlink" width="300" zoomAndPan="magnify" viewBox="0 0 224.87999 187.499995" height="250" preserveAspectRatio="xMidYMid meet" version="1.0"><defs><g/><clipPath id="3ad16673f4"><path d="M 0.238281 0 L 224.519531 0 L 224.519531 187 L 0.238281 187 Z M 0.238281 0 " clip-rule="nonzero"/></clipPath><clipPath id="cbf5d7bab6"><path d="M 137 118.570312 L 224.519531 118.570312 L 224.519531 187 L 137 187 Z M 137 118.570312 " clip-rule="nonzero"/></clipPath><clipPath id="55b3e01667"><path d="M 0.238281 0 L 76 0 L 76 68.355469 L 0.238281 68.355469 Z M 0.238281 0 " clip-rule="nonzero"/></clipPath><clipPath id="84478bf80a"><path d="M 38.011719 33.160156 L 186.867188 33.160156 L 186.867188 155.085938 L 38.011719 155.085938 Z M 38.011719 33.160156 " clip-rule="nonzero"/></clipPath><clipPath id="97667d71dc"><path d="M 96.527344 18.699219 L 112 18.699219 L 112 42.636719 L 96.527344 42.636719 Z M 96.527344 18.699219 " clip-rule="nonzero"/></clipPath><clipPath id="87d554880f"><path d="M 113 18.699219 L 128.691406 18.699219 L 128.691406 42.636719 L 113 42.636719 Z M 113 18.699219 " clip-rule="nonzero"/></clipPath></defs><g clip-path="url(#3ad16673f4)"><path fill="#ffffff" d="M 0.238281 0 L 224.640625 0 L 224.640625 194.480469 L 0.238281 194.480469 Z M 0.238281 0 " fill-opacity="1" fill-rule="nonzero"/><path fill="#ffffff" d="M 0.238281 0 L 224.640625 0 L 224.640625 187 L 0.238281 187 Z M 0.238281 0 " fill-opacity="1" fill-rule="nonzero"/><path fill="#ffc035" d="M 0.238281 0 L 224.640625 0 L 224.640625 187 L 0.238281 187 Z M 0.238281 0 " fill-opacity="1" fill-rule="nonzero"/></g><g clip-path="url(#cbf5d7bab6)"><path fill="#ff8435" d="M 193.460938 205.941406 C 189.09375 206.085938 184.722656 205.570312 180.503906 204.238281 C 178.355469 203.648438 176.433594 202.6875 174.65625 201.355469 C 170.507812 198.105469 166.882812 194.261719 163.84375 189.898438 C 161.03125 185.761719 158.144531 181.769531 155.332031 177.703125 C 154.074219 175.855469 152.886719 173.933594 151.777344 172.011719 C 149.777344 168.390625 147.777344 164.769531 145.855469 161.074219 C 144.964844 159.445312 144.226562 157.820312 143.484375 156.121094 C 141.78125 152.128906 140.078125 148.0625 138.300781 144.074219 C 137.414062 142.296875 137.117188 140.15625 137.636719 138.085938 C 137.933594 137.199219 138.300781 136.3125 138.894531 135.570312 C 142.671875 130.546875 147.335938 126.480469 151.925781 122.339844 C 154.515625 120.050781 157.847656 118.71875 161.328125 118.71875 C 165.253906 118.570312 169.175781 119.089844 172.878906 120.34375 C 181.46875 123.007812 190.054688 125.667969 198.347656 129.140625 C 199.976562 129.804688 201.53125 130.695312 203.085938 131.507812 C 205.011719 132.46875 206.863281 133.503906 208.789062 134.390625 C 211.601562 135.570312 214.117188 137.273438 216.339844 139.339844 C 217.375 140.449219 218.265625 141.707031 219.300781 142.890625 C 219.671875 143.40625 220.1875 143.925781 220.78125 144.292969 C 223.003906 145.476562 225.222656 146.511719 227.519531 147.398438 C 229.371094 147.988281 231.296875 148.359375 233.21875 148.507812 C 235.960938 148.804688 238.625 149.394531 241.140625 150.355469 C 245.734375 151.980469 250.398438 153.609375 254.988281 155.308594 C 257.429688 156.195312 258.46875 157.449219 258.617188 159.964844 C 258.761719 162.109375 258.910156 164.175781 258.984375 166.320312 C 259.058594 167.652344 258.6875 168.90625 257.875 169.941406 C 257.058594 170.976562 256.246094 172.160156 255.503906 173.269531 C 253.949219 175.632812 251.730469 177.554688 249.136719 178.738281 C 247.140625 179.699219 245.363281 180.957031 243.882812 182.582031 C 240.476562 186.128906 237.070312 189.679688 233.738281 193.226562 C 232.257812 194.851562 230.925781 196.625 229.738281 198.402344 C 228.703125 199.953125 227.148438 201.0625 225.445312 201.578125 C 221.667969 202.761719 217.820312 203.648438 213.820312 204.09375 C 208.417969 204.757812 203.011719 205.421875 197.605469 206.015625 C 196.199219 206.015625 194.867188 206.015625 193.460938 205.941406 Z M 192.71875 201.503906 C 194.203125 201.429688 195.683594 201.429688 197.164062 201.285156 C 201.605469 200.765625 205.972656 200.25 210.34375 199.65625 C 214.785156 199.140625 219.078125 198.253906 223.296875 196.921875 C 224.335938 196.625 225.148438 195.960938 225.742188 195.074219 C 227 193.152344 228.40625 191.304688 230.035156 189.679688 C 233.738281 185.910156 237.515625 182.285156 241.363281 178.738281 C 242.992188 177.335938 244.84375 176.078125 246.769531 175.042969 C 248.769531 173.933594 250.472656 172.53125 251.878906 170.757812 C 252.691406 169.722656 253.582031 168.761719 254.46875 167.875 C 255.136719 167.355469 255.503906 166.542969 255.503906 165.730469 C 255.503906 163.957031 255.578125 162.183594 255.578125 160.40625 C 255.578125 158.632812 255.285156 158.339844 253.582031 157.820312 C 253.210938 157.671875 252.765625 157.597656 252.394531 157.523438 C 249.65625 157.15625 246.917969 156.785156 244.175781 156.417969 C 240.03125 155.898438 235.886719 154.863281 232.035156 153.3125 C 227.371094 151.390625 222.78125 149.023438 217.894531 147.695312 C 216.855469 147.324219 216.042969 146.660156 215.449219 145.773438 C 214.710938 144.8125 213.820312 143.925781 212.933594 143.039062 C 211.007812 141.410156 208.789062 140.082031 206.492188 139.046875 C 204.492188 138.160156 202.566406 137.050781 200.644531 136.089844 C 199.160156 135.351562 197.753906 134.464844 196.199219 133.871094 C 188.054688 130.324219 179.542969 127.738281 171.101562 125.148438 C 167.917969 124.113281 164.660156 123.671875 161.328125 123.746094 C 158.886719 123.746094 156.515625 124.632812 154.664062 126.257812 C 150.445312 129.953125 146.078125 133.355469 142.597656 137.714844 C 141.707031 138.75 141.410156 140.230469 141.855469 141.484375 C 142.078125 142.078125 142.300781 142.59375 142.597656 143.113281 C 144.003906 146.214844 145.484375 149.320312 146.816406 152.5 C 150 159.964844 154.292969 166.839844 158.292969 173.859375 C 158.367188 174.007812 158.515625 174.15625 158.589844 174.304688 C 161.773438 178.886719 165.03125 183.394531 168.214844 187.90625 C 170.878906 191.675781 174.0625 195.074219 177.691406 197.882812 C 178.800781 198.695312 180.058594 199.363281 181.394531 199.804688 C 185.019531 200.988281 188.871094 201.578125 192.71875 201.503906 Z M 192.71875 201.503906 " fill-opacity="1" fill-rule="nonzero"/></g><g clip-path="url(#55b3e01667)"><path fill="#ff8435" d="M 10.359375 68.207031 C 5.988281 68.355469 1.621094 67.839844 -2.597656 66.507812 C -4.746094 65.917969 -6.671875 64.957031 -8.449219 63.625 C -12.59375 60.371094 -16.222656 56.527344 -19.257812 52.167969 C -22.070312 48.027344 -24.957031 44.035156 -27.773438 39.972656 C -29.03125 38.125 -30.214844 36.203125 -31.324219 34.28125 C -33.324219 30.65625 -35.324219 27.035156 -37.25 23.339844 C -38.136719 21.714844 -38.878906 20.089844 -39.617188 18.386719 C -41.320312 14.398438 -43.023438 10.332031 -44.800781 6.339844 C -45.691406 4.566406 -45.984375 2.421875 -45.46875 0.351562 C -45.171875 -0.535156 -44.800781 -1.421875 -44.207031 -2.160156 C -40.433594 -7.1875 -35.769531 -11.253906 -31.179688 -15.390625 C -28.585938 -17.683594 -25.253906 -19.011719 -21.773438 -19.011719 C -17.851562 -19.160156 -13.925781 -18.644531 -10.226562 -17.386719 C -1.636719 -14.726562 6.953125 -12.066406 15.246094 -8.589844 C 16.875 -7.925781 18.429688 -7.039062 19.984375 -6.226562 C 21.90625 -5.265625 23.757812 -4.230469 25.683594 -3.34375 C 28.496094 -2.160156 31.015625 -0.460938 33.234375 1.609375 C 34.273438 2.71875 35.160156 3.972656 36.199219 5.15625 C 36.566406 5.675781 37.085938 6.191406 37.679688 6.5625 C 39.898438 7.746094 42.121094 8.777344 44.414062 9.664062 C 46.265625 10.257812 48.191406 10.625 50.117188 10.773438 C 52.855469 11.070312 55.523438 11.660156 58.039062 12.621094 C 62.628906 14.25 67.292969 15.875 71.882812 17.574219 C 74.328125 18.460938 75.363281 19.71875 75.511719 22.230469 C 75.660156 24.375 75.808594 26.445312 75.882812 28.589844 C 75.957031 29.917969 75.585938 31.175781 74.773438 32.210938 C 73.957031 33.246094 73.144531 34.429688 72.402344 35.535156 C 70.847656 37.902344 68.625 39.824219 66.035156 41.007812 C 64.035156 41.96875 62.257812 43.222656 60.777344 44.851562 C 57.371094 48.398438 53.964844 51.945312 50.636719 55.492188 C 49.152344 57.121094 47.820312 58.894531 46.636719 60.667969 C 45.601562 62.21875 44.046875 63.328125 42.34375 63.847656 C 38.566406 65.027344 34.714844 65.917969 30.71875 66.359375 C 25.3125 67.023438 19.910156 67.691406 14.503906 68.28125 C 13.097656 68.28125 11.765625 68.28125 10.359375 68.207031 Z M 9.617188 63.773438 C 11.097656 63.699219 12.578125 63.699219 14.058594 63.550781 C 18.503906 63.035156 22.871094 62.515625 27.238281 61.925781 C 31.679688 61.40625 35.976562 60.519531 40.195312 59.191406 C 41.230469 58.894531 42.046875 58.230469 42.640625 57.34375 C 43.898438 55.421875 45.304688 53.570312 46.933594 51.945312 C 50.636719 48.175781 54.410156 44.554688 58.261719 41.007812 C 59.890625 39.601562 61.742188 38.34375 63.664062 37.3125 C 65.664062 36.203125 67.367188 34.796875 68.773438 33.023438 C 69.589844 31.988281 70.476562 31.027344 71.367188 30.140625 C 72.03125 29.625 72.402344 28.808594 72.402344 27.996094 C 72.402344 26.222656 72.476562 24.449219 72.476562 22.675781 C 72.476562 20.902344 72.179688 20.605469 70.476562 20.089844 C 70.105469 19.941406 69.664062 19.867188 69.292969 19.792969 C 66.554688 19.421875 63.8125 19.054688 61.074219 18.683594 C 56.929688 18.167969 52.78125 17.132812 48.933594 15.578125 C 44.269531 13.65625 39.675781 11.292969 34.789062 9.960938 C 33.753906 9.59375 32.941406 8.925781 32.347656 8.039062 C 31.605469 7.078125 30.71875 6.191406 29.832031 5.304688 C 27.90625 3.679688 25.683594 2.347656 23.390625 1.3125 C 21.390625 0.425781 19.464844 -0.683594 17.539062 -1.644531 C 16.058594 -2.382812 14.652344 -3.269531 13.097656 -3.859375 C 4.953125 -7.410156 -3.5625 -9.996094 -12 -12.582031 C -15.183594 -13.617188 -18.441406 -14.0625 -21.773438 -13.988281 C -24.21875 -13.988281 -26.585938 -13.101562 -28.4375 -11.472656 C -32.660156 -7.777344 -37.027344 -4.378906 -40.507812 -0.015625 C -41.394531 1.019531 -41.691406 2.496094 -41.246094 3.753906 C -41.023438 4.34375 -40.804688 4.863281 -40.507812 5.378906 C -39.101562 8.484375 -37.621094 11.585938 -36.285156 14.765625 C -33.101562 22.230469 -28.808594 29.105469 -24.8125 36.128906 C -24.738281 36.277344 -24.589844 36.421875 -24.515625 36.570312 C -21.332031 41.152344 -18.074219 45.664062 -14.890625 50.171875 C -12.222656 53.941406 -9.039062 57.34375 -5.414062 60.152344 C -4.300781 60.964844 -3.042969 61.628906 -1.710938 62.074219 C 1.917969 63.253906 5.765625 63.847656 9.617188 63.773438 Z M 9.617188 63.773438 " fill-opacity="1" fill-rule="nonzero"/></g><g clip-path="url(#84478bf80a)"><path fill="#ffffff" d="M 180.691406 155.085938 L 44.1875 155.085938 C 40.789062 155.085938 38.015625 152.3125 38.015625 148.910156 L 38.015625 39.332031 C 38.015625 35.933594 40.789062 33.160156 44.1875 33.160156 L 180.691406 33.160156 C 184.089844 33.160156 186.863281 35.933594 186.863281 39.332031 L 186.863281 148.910156 C 186.863281 152.3125 184.089844 155.085938 180.691406 155.085938 " fill-opacity="1" fill-rule="nonzero"/></g><g fill="#303030" fill-opacity="1"><g transform="translate(60.62537, 61.31886)"><g><path d="M 1.71875 -6.421875 L 0.328125 -6.421875 L 1.640625 -9.515625 L 2.53125 -9.515625 Z M 3.9375 -6.421875 L 2.546875 -6.421875 L 3.84375 -9.515625 L 4.734375 -9.515625 Z M 3.9375 -6.421875 "/></g></g></g><g fill="#303030" fill-opacity="1"><g transform="translate(65.812785, 61.31886)"><g><path d="M 5.84375 -9.515625 L 5.84375 -2.484375 C 5.84375 -1.703125 5.597656 -1.078125 5.109375 -0.609375 C 4.628906 -0.140625 3.992188 0.09375 3.203125 0.09375 C 2.398438 0.09375 1.757812 -0.144531 1.28125 -0.625 C 0.800781 -1.101562 0.5625 -1.753906 0.5625 -2.578125 L 1.796875 -2.578125 C 1.804688 -2.117188 1.925781 -1.742188 2.15625 -1.453125 C 2.394531 -1.160156 2.742188 -1.015625 3.203125 -1.015625 C 3.671875 -1.015625 4.019531 -1.148438 4.25 -1.421875 C 4.476562 -1.703125 4.59375 -2.054688 4.59375 -2.484375 L 4.59375 -9.515625 Z M 5.84375 -9.515625 "/></g></g></g><g fill="#303030" fill-opacity="1"><g transform="translate(73.047866, 61.31886)"><g><path d="M 7.6875 -7.484375 L 7.6875 0 L 6.453125 0 L 6.453125 -1.109375 C 6.210938 -0.722656 5.878906 -0.421875 5.453125 -0.203125 C 5.035156 0.00390625 4.570312 0.109375 4.0625 0.109375 C 3.476562 0.109375 2.953125 -0.0078125 2.484375 -0.25 C 2.015625 -0.488281 1.644531 -0.847656 1.375 -1.328125 C 1.113281 -1.816406 0.984375 -2.40625 0.984375 -3.09375 L 0.984375 -7.484375 L 2.21875 -7.484375 L 2.21875 -3.265625 C 2.21875 -2.523438 2.398438 -1.957031 2.765625 -1.5625 C 3.140625 -1.164062 3.648438 -0.96875 4.296875 -0.96875 C 4.960938 -0.96875 5.488281 -1.171875 5.875 -1.578125 C 6.257812 -1.992188 6.453125 -2.59375 6.453125 -3.375 L 6.453125 -7.484375 Z M 7.6875 -7.484375 "/></g></g></g><g fill="#303030" fill-opacity="1"><g transform="translate(81.784562, 61.31886)"><g><path d="M 3.703125 0.125 C 3.128906 0.125 2.613281 0.0234375 2.15625 -0.171875 C 1.695312 -0.367188 1.335938 -0.640625 1.078125 -0.984375 C 0.816406 -1.335938 0.671875 -1.742188 0.640625 -2.203125 L 1.921875 -2.203125 C 1.960938 -1.828125 2.140625 -1.519531 2.453125 -1.28125 C 2.765625 -1.039062 3.175781 -0.921875 3.6875 -0.921875 C 4.15625 -0.921875 4.523438 -1.023438 4.796875 -1.234375 C 5.078125 -1.453125 5.21875 -1.71875 5.21875 -2.03125 C 5.21875 -2.363281 5.070312 -2.609375 4.78125 -2.765625 C 4.488281 -2.921875 4.035156 -3.078125 3.421875 -3.234375 C 2.867188 -3.378906 2.414062 -3.523438 2.0625 -3.671875 C 1.71875 -3.828125 1.421875 -4.050781 1.171875 -4.34375 C 0.921875 -4.644531 0.796875 -5.035156 0.796875 -5.515625 C 0.796875 -5.898438 0.90625 -6.25 1.125 -6.5625 C 1.351562 -6.882812 1.675781 -7.140625 2.09375 -7.328125 C 2.519531 -7.515625 3 -7.609375 3.53125 -7.609375 C 4.363281 -7.609375 5.035156 -7.394531 5.546875 -6.96875 C 6.054688 -6.550781 6.328125 -5.976562 6.359375 -5.25 L 5.125 -5.25 C 5.09375 -5.644531 4.929688 -5.960938 4.640625 -6.203125 C 4.359375 -6.441406 3.976562 -6.5625 3.5 -6.5625 C 3.050781 -6.5625 2.691406 -6.460938 2.421875 -6.265625 C 2.160156 -6.078125 2.03125 -5.828125 2.03125 -5.515625 C 2.03125 -5.265625 2.109375 -5.0625 2.265625 -4.90625 C 2.429688 -4.75 2.632812 -4.625 2.875 -4.53125 C 3.113281 -4.4375 3.445312 -4.328125 3.875 -4.203125 C 4.414062 -4.054688 4.851562 -3.910156 5.1875 -3.765625 C 5.519531 -3.628906 5.804688 -3.421875 6.046875 -3.140625 C 6.296875 -2.859375 6.425781 -2.488281 6.4375 -2.03125 C 6.4375 -1.625 6.320312 -1.253906 6.09375 -0.921875 C 5.863281 -0.597656 5.539062 -0.34375 5.125 -0.15625 C 4.707031 0.03125 4.234375 0.125 3.703125 0.125 Z M 3.703125 0.125 "/></g></g></g><g fill="#303030" fill-opacity="1"><g transform="translate(88.910426, 61.31886)"><g><path d="M 2.5625 -6.453125 L 2.5625 -2.046875 C 2.5625 -1.679688 2.640625 -1.421875 2.796875 -1.265625 C 2.953125 -1.117188 3.222656 -1.046875 3.609375 -1.046875 L 4.515625 -1.046875 L 4.515625 0 L 3.40625 0 C 2.707031 0 2.1875 -0.15625 1.84375 -0.46875 C 1.5 -0.789062 1.328125 -1.316406 1.328125 -2.046875 L 1.328125 -6.453125 L 0.359375 -6.453125 L 0.359375 -7.484375 L 1.328125 -7.484375 L 1.328125 -9.375 L 2.5625 -9.375 L 2.5625 -7.484375 L 4.515625 -7.484375 L 4.515625 -6.453125 Z M 2.5625 -6.453125 "/></g></g></g><g fill="#303030" fill-opacity="1"><g transform="translate(93.879418, 61.31886)"><g/></g></g><g fill="#303030" fill-opacity="1"><g transform="translate(97.524254, 61.31886)"><g><path d="M 4.3125 0.125 C 3.613281 0.125 2.976562 -0.03125 2.40625 -0.34375 C 1.84375 -0.664062 1.398438 -1.117188 1.078125 -1.703125 C 0.753906 -2.296875 0.59375 -2.976562 0.59375 -3.75 C 0.59375 -4.519531 0.753906 -5.195312 1.078125 -5.78125 C 1.410156 -6.375 1.863281 -6.828125 2.4375 -7.140625 C 3.019531 -7.453125 3.664062 -7.609375 4.375 -7.609375 C 5.082031 -7.609375 5.722656 -7.453125 6.296875 -7.140625 C 6.867188 -6.828125 7.320312 -6.378906 7.65625 -5.796875 C 7.988281 -5.210938 8.15625 -4.53125 8.15625 -3.75 C 8.15625 -2.976562 7.984375 -2.296875 7.640625 -1.703125 C 7.296875 -1.117188 6.832031 -0.664062 6.25 -0.34375 C 5.664062 -0.03125 5.019531 0.125 4.3125 0.125 Z M 4.3125 -0.96875 C 4.757812 -0.96875 5.175781 -1.070312 5.5625 -1.28125 C 5.957031 -1.488281 6.273438 -1.800781 6.515625 -2.21875 C 6.753906 -2.644531 6.875 -3.15625 6.875 -3.75 C 6.875 -4.351562 6.753906 -4.863281 6.515625 -5.28125 C 6.285156 -5.695312 5.976562 -6.007812 5.59375 -6.21875 C 5.21875 -6.425781 4.804688 -6.53125 4.359375 -6.53125 C 3.898438 -6.53125 3.484375 -6.425781 3.109375 -6.21875 C 2.734375 -6.007812 2.429688 -5.695312 2.203125 -5.28125 C 1.972656 -4.863281 1.859375 -4.351562 1.859375 -3.75 C 1.859375 -3.144531 1.96875 -2.628906 2.1875 -2.203125 C 2.414062 -1.785156 2.710938 -1.472656 3.078125 -1.265625 C 3.453125 -1.066406 3.863281 -0.96875 4.3125 -0.96875 Z M 4.3125 -0.96875 "/></g></g></g><g fill="#303030" fill-opacity="1"><g transform="translate(106.26095, 61.31886)"><g><path d="M 4.703125 -7.625 C 5.609375 -7.625 6.34375 -7.347656 6.90625 -6.796875 C 7.46875 -6.242188 7.75 -5.445312 7.75 -4.40625 L 7.75 0 L 6.53125 0 L 6.53125 -4.234375 C 6.53125 -4.984375 6.34375 -5.554688 5.96875 -5.953125 C 5.59375 -6.347656 5.082031 -6.546875 4.4375 -6.546875 C 3.78125 -6.546875 3.257812 -6.335938 2.875 -5.921875 C 2.488281 -5.515625 2.296875 -4.921875 2.296875 -4.140625 L 2.296875 0 L 1.046875 0 L 1.046875 -7.484375 L 2.296875 -7.484375 L 2.296875 -6.421875 C 2.535156 -6.796875 2.867188 -7.085938 3.296875 -7.296875 C 3.722656 -7.515625 4.191406 -7.625 4.703125 -7.625 Z M 4.703125 -7.625 "/></g></g></g><g fill="#303030" fill-opacity="1"><g transform="translate(114.997646, 61.31886)"><g><path d="M 7.875 -4.03125 C 7.875 -3.789062 7.863281 -3.539062 7.84375 -3.28125 L 1.859375 -3.28125 C 1.898438 -2.539062 2.148438 -1.960938 2.609375 -1.546875 C 3.078125 -1.128906 3.632812 -0.921875 4.28125 -0.921875 C 4.820312 -0.921875 5.269531 -1.046875 5.625 -1.296875 C 5.988281 -1.554688 6.242188 -1.894531 6.390625 -2.3125 L 7.734375 -2.3125 C 7.523438 -1.59375 7.117188 -1.003906 6.515625 -0.546875 C 5.921875 -0.0976562 5.175781 0.125 4.28125 0.125 C 3.570312 0.125 2.9375 -0.03125 2.375 -0.34375 C 1.820312 -0.664062 1.382812 -1.117188 1.0625 -1.703125 C 0.75 -2.296875 0.59375 -2.976562 0.59375 -3.75 C 0.59375 -4.53125 0.742188 -5.210938 1.046875 -5.796875 C 1.359375 -6.378906 1.796875 -6.828125 2.359375 -7.140625 C 2.921875 -7.453125 3.5625 -7.609375 4.28125 -7.609375 C 5 -7.609375 5.628906 -7.453125 6.171875 -7.140625 C 6.710938 -6.828125 7.128906 -6.398438 7.421875 -5.859375 C 7.722656 -5.316406 7.875 -4.707031 7.875 -4.03125 Z M 6.59375 -4.28125 C 6.59375 -4.757812 6.488281 -5.164062 6.28125 -5.5 C 6.070312 -5.84375 5.785156 -6.101562 5.421875 -6.28125 C 5.066406 -6.46875 4.671875 -6.5625 4.234375 -6.5625 C 3.609375 -6.5625 3.070312 -6.359375 2.625 -5.953125 C 2.1875 -5.554688 1.9375 -5 1.875 -4.28125 Z M 6.59375 -4.28125 "/></g></g></g><g fill="#303030" fill-opacity="1"><g transform="translate(123.461316, 61.31886)"><g/></g></g><g fill="#303030" fill-opacity="1"><g transform="translate(127.106153, 61.31886)"><g><path d="M 3.703125 0.125 C 3.128906 0.125 2.613281 0.0234375 2.15625 -0.171875 C 1.695312 -0.367188 1.335938 -0.640625 1.078125 -0.984375 C 0.816406 -1.335938 0.671875 -1.742188 0.640625 -2.203125 L 1.921875 -2.203125 C 1.960938 -1.828125 2.140625 -1.519531 2.453125 -1.28125 C 2.765625 -1.039062 3.175781 -0.921875 3.6875 -0.921875 C 4.15625 -0.921875 4.523438 -1.023438 4.796875 -1.234375 C 5.078125 -1.453125 5.21875 -1.71875 5.21875 -2.03125 C 5.21875 -2.363281 5.070312 -2.609375 4.78125 -2.765625 C 4.488281 -2.921875 4.035156 -3.078125 3.421875 -3.234375 C 2.867188 -3.378906 2.414062 -3.523438 2.0625 -3.671875 C 1.71875 -3.828125 1.421875 -4.050781 1.171875 -4.34375 C 0.921875 -4.644531 0.796875 -5.035156 0.796875 -5.515625 C 0.796875 -5.898438 0.90625 -6.25 1.125 -6.5625 C 1.351562 -6.882812 1.675781 -7.140625 2.09375 -7.328125 C 2.519531 -7.515625 3 -7.609375 3.53125 -7.609375 C 4.363281 -7.609375 5.035156 -7.394531 5.546875 -6.96875 C 6.054688 -6.550781 6.328125 -5.976562 6.359375 -5.25 L 5.125 -5.25 C 5.09375 -5.644531 4.929688 -5.960938 4.640625 -6.203125 C 4.359375 -6.441406 3.976562 -6.5625 3.5 -6.5625 C 3.050781 -6.5625 2.691406 -6.460938 2.421875 -6.265625 C 2.160156 -6.078125 2.03125 -5.828125 2.03125 -5.515625 C 2.03125 -5.265625 2.109375 -5.0625 2.265625 -4.90625 C 2.429688 -4.75 2.632812 -4.625 2.875 -4.53125 C 3.113281 -4.4375 3.445312 -4.328125 3.875 -4.203125 C 4.414062 -4.054688 4.851562 -3.910156 5.1875 -3.765625 C 5.519531 -3.628906 5.804688 -3.421875 6.046875 -3.140625 C 6.296875 -2.859375 6.425781 -2.488281 6.4375 -2.03125 C 6.4375 -1.625 6.320312 -1.253906 6.09375 -0.921875 C 5.863281 -0.597656 5.539062 -0.34375 5.125 -0.15625 C 4.707031 0.03125 4.234375 0.125 3.703125 0.125 Z M 3.703125 0.125 "/></g></g></g><g fill="#303030" fill-opacity="1"><g transform="translate(134.232017, 61.31886)"><g><path d="M 10.046875 -7.625 C 10.628906 -7.625 11.148438 -7.5 11.609375 -7.25 C 12.066406 -7.007812 12.425781 -6.648438 12.6875 -6.171875 C 12.945312 -5.691406 13.078125 -5.101562 13.078125 -4.40625 L 13.078125 0 L 11.859375 0 L 11.859375 -4.234375 C 11.859375 -4.984375 11.671875 -5.554688 11.296875 -5.953125 C 10.929688 -6.347656 10.4375 -6.546875 9.8125 -6.546875 C 9.15625 -6.546875 8.632812 -6.335938 8.25 -5.921875 C 7.875 -5.503906 7.6875 -4.90625 7.6875 -4.125 L 7.6875 0 L 6.453125 0 L 6.453125 -4.234375 C 6.453125 -4.984375 6.269531 -5.554688 5.90625 -5.953125 C 5.539062 -6.347656 5.039062 -6.546875 4.40625 -6.546875 C 3.757812 -6.546875 3.242188 -6.335938 2.859375 -5.921875 C 2.484375 -5.503906 2.296875 -4.90625 2.296875 -4.125 L 2.296875 0 L 1.046875 0 L 1.046875 -7.484375 L 2.296875 -7.484375 L 2.296875 -6.40625 C 2.535156 -6.789062 2.863281 -7.085938 3.28125 -7.296875 C 3.695312 -7.515625 4.15625 -7.625 4.65625 -7.625 C 5.28125 -7.625 5.832031 -7.484375 6.3125 -7.203125 C 6.800781 -6.921875 7.164062 -6.503906 7.40625 -5.953125 C 7.613281 -6.484375 7.957031 -6.894531 8.4375 -7.1875 C 8.914062 -7.476562 9.453125 -7.625 10.046875 -7.625 Z M 10.046875 -7.625 "/></g></g></g><g fill="#303030" fill-opacity="1"><g transform="translate(148.292635, 61.31886)"><g><path d="M 0.59375 -3.765625 C 0.59375 -4.535156 0.742188 -5.207031 1.046875 -5.78125 C 1.359375 -6.363281 1.785156 -6.8125 2.328125 -7.125 C 2.867188 -7.445312 3.472656 -7.609375 4.140625 -7.609375 C 4.796875 -7.609375 5.363281 -7.46875 5.84375 -7.1875 C 6.320312 -6.90625 6.679688 -6.550781 6.921875 -6.125 L 6.921875 -7.484375 L 8.1875 -7.484375 L 8.1875 0 L 6.921875 0 L 6.921875 -1.390625 C 6.679688 -0.953125 6.316406 -0.585938 5.828125 -0.296875 C 5.335938 -0.015625 4.769531 0.125 4.125 0.125 C 3.457031 0.125 2.851562 -0.0351562 2.3125 -0.359375 C 1.78125 -0.691406 1.359375 -1.15625 1.046875 -1.75 C 0.742188 -2.34375 0.59375 -3.015625 0.59375 -3.765625 Z M 6.921875 -3.75 C 6.921875 -4.320312 6.804688 -4.816406 6.578125 -5.234375 C 6.347656 -5.648438 6.039062 -5.96875 5.65625 -6.1875 C 5.269531 -6.414062 4.847656 -6.53125 4.390625 -6.53125 C 3.921875 -6.53125 3.492188 -6.421875 3.109375 -6.203125 C 2.734375 -5.984375 2.429688 -5.660156 2.203125 -5.234375 C 1.972656 -4.816406 1.859375 -4.328125 1.859375 -3.765625 C 1.859375 -3.191406 1.972656 -2.691406 2.203125 -2.265625 C 2.429688 -1.847656 2.734375 -1.523438 3.109375 -1.296875 C 3.492188 -1.078125 3.921875 -0.96875 4.390625 -0.96875 C 4.847656 -0.96875 5.269531 -1.078125 5.65625 -1.296875 C 6.039062 -1.523438 6.347656 -1.847656 6.578125 -2.265625 C 6.804688 -2.691406 6.921875 -3.1875 6.921875 -3.75 Z M 6.921875 -3.75 "/></g></g></g><g fill="#303030" fill-opacity="1"><g transform="translate(157.520769, 61.31886)"><g><path d="M 2.296875 -10.109375 L 2.296875 0 L 1.046875 0 L 1.046875 -10.109375 Z M 2.296875 -10.109375 "/></g></g></g><g fill="#303030" fill-opacity="1"><g transform="translate(160.87894, 61.31886)"><g><path d="M 2.296875 -10.109375 L 2.296875 0 L 1.046875 0 L 1.046875 -10.109375 Z M 2.296875 -10.109375 "/></g></g></g><g fill="#303030" fill-opacity="1"><g transform="translate(49.241665, 80.018992)"><g><path d="M 2.296875 -6.109375 C 2.535156 -6.535156 2.898438 -6.890625 3.390625 -7.171875 C 3.878906 -7.460938 4.445312 -7.609375 5.09375 -7.609375 C 5.757812 -7.609375 6.363281 -7.445312 6.90625 -7.125 C 7.445312 -6.8125 7.867188 -6.363281 8.171875 -5.78125 C 8.484375 -5.207031 8.640625 -4.535156 8.640625 -3.765625 C 8.640625 -3.015625 8.484375 -2.34375 8.171875 -1.75 C 7.867188 -1.15625 7.445312 -0.691406 6.90625 -0.359375 C 6.363281 -0.0351562 5.757812 0.125 5.09375 0.125 C 4.457031 0.125 3.894531 -0.015625 3.40625 -0.296875 C 2.914062 -0.585938 2.546875 -0.945312 2.296875 -1.375 L 2.296875 3.546875 L 1.046875 3.546875 L 1.046875 -7.484375 L 2.296875 -7.484375 Z M 7.375 -3.765625 C 7.375 -4.328125 7.257812 -4.816406 7.03125 -5.234375 C 6.800781 -5.660156 6.492188 -5.984375 6.109375 -6.203125 C 5.722656 -6.421875 5.296875 -6.53125 4.828125 -6.53125 C 4.378906 -6.53125 3.957031 -6.414062 3.5625 -6.1875 C 3.175781 -5.96875 2.867188 -5.644531 2.640625 -5.21875 C 2.410156 -4.800781 2.296875 -4.3125 2.296875 -3.75 C 2.296875 -3.1875 2.410156 -2.691406 2.640625 -2.265625 C 2.867188 -1.847656 3.175781 -1.523438 3.5625 -1.296875 C 3.957031 -1.078125 4.378906 -0.96875 4.828125 -0.96875 C 5.296875 -0.96875 5.722656 -1.078125 6.109375 -1.296875 C 6.492188 -1.523438 6.800781 -1.847656 7.03125 -2.265625 C 7.257812 -2.691406 7.375 -3.191406 7.375 -3.765625 Z M 7.375 -3.765625 "/></g></g></g><g fill="#303030" fill-opacity="1"><g transform="translate(58.469799, 80.018992)"><g><path d="M 4.3125 0.125 C 3.613281 0.125 2.976562 -0.03125 2.40625 -0.34375 C 1.84375 -0.664062 1.398438 -1.117188 1.078125 -1.703125 C 0.753906 -2.296875 0.59375 -2.976562 0.59375 -3.75 C 0.59375 -4.519531 0.753906 -5.195312 1.078125 -5.78125 C 1.410156 -6.375 1.863281 -6.828125 2.4375 -7.140625 C 3.019531 -7.453125 3.664062 -7.609375 4.375 -7.609375 C 5.082031 -7.609375 5.722656 -7.453125 6.296875 -7.140625 C 6.867188 -6.828125 7.320312 -6.378906 7.65625 -5.796875 C 7.988281 -5.210938 8.15625 -4.53125 8.15625 -3.75 C 8.15625 -2.976562 7.984375 -2.296875 7.640625 -1.703125 C 7.296875 -1.117188 6.832031 -0.664062 6.25 -0.34375 C 5.664062 -0.03125 5.019531 0.125 4.3125 0.125 Z M 4.3125 -0.96875 C 4.757812 -0.96875 5.175781 -1.070312 5.5625 -1.28125 C 5.957031 -1.488281 6.273438 -1.800781 6.515625 -2.21875 C 6.753906 -2.644531 6.875 -3.15625 6.875 -3.75 C 6.875 -4.351562 6.753906 -4.863281 6.515625 -5.28125 C 6.285156 -5.695312 5.976562 -6.007812 5.59375 -6.21875 C 5.21875 -6.425781 4.804688 -6.53125 4.359375 -6.53125 C 3.898438 -6.53125 3.484375 -6.425781 3.109375 -6.21875 C 2.734375 -6.007812 2.429688 -5.695312 2.203125 -5.28125 C 1.972656 -4.863281 1.859375 -4.351562 1.859375 -3.75 C 1.859375 -3.144531 1.96875 -2.628906 2.1875 -2.203125 C 2.414062 -1.785156 2.710938 -1.472656 3.078125 -1.265625 C 3.453125 -1.066406 3.863281 -0.96875 4.3125 -0.96875 Z M 4.3125 -0.96875 "/></g></g></g><g fill="#303030" fill-opacity="1"><g transform="translate(67.206495, 80.018992)"><g><path d="M 3.703125 0.125 C 3.128906 0.125 2.613281 0.0234375 2.15625 -0.171875 C 1.695312 -0.367188 1.335938 -0.640625 1.078125 -0.984375 C 0.816406 -1.335938 0.671875 -1.742188 0.640625 -2.203125 L 1.921875 -2.203125 C 1.960938 -1.828125 2.140625 -1.519531 2.453125 -1.28125 C 2.765625 -1.039062 3.175781 -0.921875 3.6875 -0.921875 C 4.15625 -0.921875 4.523438 -1.023438 4.796875 -1.234375 C 5.078125 -1.453125 5.21875 -1.71875 5.21875 -2.03125 C 5.21875 -2.363281 5.070312 -2.609375 4.78125 -2.765625 C 4.488281 -2.921875 4.035156 -3.078125 3.421875 -3.234375 C 2.867188 -3.378906 2.414062 -3.523438 2.0625 -3.671875 C 1.71875 -3.828125 1.421875 -4.050781 1.171875 -4.34375 C 0.921875 -4.644531 0.796875 -5.035156 0.796875 -5.515625 C 0.796875 -5.898438 0.90625 -6.25 1.125 -6.5625 C 1.351562 -6.882812 1.675781 -7.140625 2.09375 -7.328125 C 2.519531 -7.515625 3 -7.609375 3.53125 -7.609375 C 4.363281 -7.609375 5.035156 -7.394531 5.546875 -6.96875 C 6.054688 -6.550781 6.328125 -5.976562 6.359375 -5.25 L 5.125 -5.25 C 5.09375 -5.644531 4.929688 -5.960938 4.640625 -6.203125 C 4.359375 -6.441406 3.976562 -6.5625 3.5 -6.5625 C 3.050781 -6.5625 2.691406 -6.460938 2.421875 -6.265625 C 2.160156 -6.078125 2.03125 -5.828125 2.03125 -5.515625 C 2.03125 -5.265625 2.109375 -5.0625 2.265625 -4.90625 C 2.429688 -4.75 2.632812 -4.625 2.875 -4.53125 C 3.113281 -4.4375 3.445312 -4.328125 3.875 -4.203125 C 4.414062 -4.054688 4.851562 -3.910156 5.1875 -3.765625 C 5.519531 -3.628906 5.804688 -3.421875 6.046875 -3.140625 C 6.296875 -2.859375 6.425781 -2.488281 6.4375 -2.03125 C 6.4375 -1.625 6.320312 -1.253906 6.09375 -0.921875 C 5.863281 -0.597656 5.539062 -0.34375 5.125 -0.15625 C 4.707031 0.03125 4.234375 0.125 3.703125 0.125 Z M 3.703125 0.125 "/></g></g></g><g fill="#303030" fill-opacity="1"><g transform="translate(74.332359, 80.018992)"><g><path d="M 1.6875 -8.703125 C 1.457031 -8.703125 1.257812 -8.78125 1.09375 -8.9375 C 0.925781 -9.101562 0.84375 -9.304688 0.84375 -9.546875 C 0.84375 -9.785156 0.925781 -9.984375 1.09375 -10.140625 C 1.257812 -10.304688 1.457031 -10.390625 1.6875 -10.390625 C 1.914062 -10.390625 2.109375 -10.304688 2.265625 -10.140625 C 2.429688 -9.984375 2.515625 -9.785156 2.515625 -9.546875 C 2.515625 -9.304688 2.429688 -9.101562 2.265625 -8.9375 C 2.109375 -8.78125 1.914062 -8.703125 1.6875 -8.703125 Z M 2.296875 -7.484375 L 2.296875 0 L 1.046875 0 L 1.046875 -7.484375 Z M 2.296875 -7.484375 "/></g></g></g><g fill="#303030" fill-opacity="1"><g transform="translate(77.69053, 80.018992)"><g><path d="M 2.5625 -6.453125 L 2.5625 -2.046875 C 2.5625 -1.679688 2.640625 -1.421875 2.796875 -1.265625 C 2.953125 -1.117188 3.222656 -1.046875 3.609375 -1.046875 L 4.515625 -1.046875 L 4.515625 0 L 3.40625 0 C 2.707031 0 2.1875 -0.15625 1.84375 -0.46875 C 1.5 -0.789062 1.328125 -1.316406 1.328125 -2.046875 L 1.328125 -6.453125 L 0.359375 -6.453125 L 0.359375 -7.484375 L 1.328125 -7.484375 L 1.328125 -9.375 L 2.5625 -9.375 L 2.5625 -7.484375 L 4.515625 -7.484375 L 4.515625 -6.453125 Z M 2.5625 -6.453125 "/></g></g></g><g fill="#303030" fill-opacity="1"><g transform="translate(82.659521, 80.018992)"><g><path d="M 1.6875 -8.703125 C 1.457031 -8.703125 1.257812 -8.78125 1.09375 -8.9375 C 0.925781 -9.101562 0.84375 -9.304688 0.84375 -9.546875 C 0.84375 -9.785156 0.925781 -9.984375 1.09375 -10.140625 C 1.257812 -10.304688 1.457031 -10.390625 1.6875 -10.390625 C 1.914062 -10.390625 2.109375 -10.304688 2.265625 -10.140625 C 2.429688 -9.984375 2.515625 -9.785156 2.515625 -9.546875 C 2.515625 -9.304688 2.429688 -9.101562 2.265625 -8.9375 C 2.109375 -8.78125 1.914062 -8.703125 1.6875 -8.703125 Z M 2.296875 -7.484375 L 2.296875 0 L 1.046875 0 L 1.046875 -7.484375 Z M 2.296875 -7.484375 "/></g></g></g><g fill="#303030" fill-opacity="1"><g transform="translate(86.017693, 80.018992)"><g><path d="M 3.84375 -1.140625 L 6.15625 -7.484375 L 7.484375 -7.484375 L 4.546875 0 L 3.09375 0 L 0.15625 -7.484375 L 1.5 -7.484375 Z M 3.84375 -1.140625 "/></g></g></g><g fill="#303030" fill-opacity="1"><g transform="translate(93.675958, 80.018992)"><g><path d="M 7.875 -4.03125 C 7.875 -3.789062 7.863281 -3.539062 7.84375 -3.28125 L 1.859375 -3.28125 C 1.898438 -2.539062 2.148438 -1.960938 2.609375 -1.546875 C 3.078125 -1.128906 3.632812 -0.921875 4.28125 -0.921875 C 4.820312 -0.921875 5.269531 -1.046875 5.625 -1.296875 C 5.988281 -1.554688 6.242188 -1.894531 6.390625 -2.3125 L 7.734375 -2.3125 C 7.523438 -1.59375 7.117188 -1.003906 6.515625 -0.546875 C 5.921875 -0.0976562 5.175781 0.125 4.28125 0.125 C 3.570312 0.125 2.9375 -0.03125 2.375 -0.34375 C 1.820312 -0.664062 1.382812 -1.117188 1.0625 -1.703125 C 0.75 -2.296875 0.59375 -2.976562 0.59375 -3.75 C 0.59375 -4.53125 0.742188 -5.210938 1.046875 -5.796875 C 1.359375 -6.378906 1.796875 -6.828125 2.359375 -7.140625 C 2.921875 -7.453125 3.5625 -7.609375 4.28125 -7.609375 C 5 -7.609375 5.628906 -7.453125 6.171875 -7.140625 C 6.710938 -6.828125 7.128906 -6.398438 7.421875 -5.859375 C 7.722656 -5.316406 7.875 -4.707031 7.875 -4.03125 Z M 6.59375 -4.28125 C 6.59375 -4.757812 6.488281 -5.164062 6.28125 -5.5 C 6.070312 -5.84375 5.785156 -6.101562 5.421875 -6.28125 C 5.066406 -6.46875 4.671875 -6.5625 4.234375 -6.5625 C 3.609375 -6.5625 3.070312 -6.359375 2.625 -5.953125 C 2.1875 -5.554688 1.9375 -5 1.875 -4.28125 Z M 6.59375 -4.28125 "/></g></g></g><g fill="#303030" fill-opacity="1"><g transform="translate(102.139628, 80.018992)"><g/></g></g><g fill="#303030" fill-opacity="1"><g transform="translate(105.784465, 80.018992)"><g><path d="M 2.5625 -6.453125 L 2.5625 -2.046875 C 2.5625 -1.679688 2.640625 -1.421875 2.796875 -1.265625 C 2.953125 -1.117188 3.222656 -1.046875 3.609375 -1.046875 L 4.515625 -1.046875 L 4.515625 0 L 3.40625 0 C 2.707031 0 2.1875 -0.15625 1.84375 -0.46875 C 1.5 -0.789062 1.328125 -1.316406 1.328125 -2.046875 L 1.328125 -6.453125 L 0.359375 -6.453125 L 0.359375 -7.484375 L 1.328125 -7.484375 L 1.328125 -9.375 L 2.5625 -9.375 L 2.5625 -7.484375 L 4.515625 -7.484375 L 4.515625 -6.453125 Z M 2.5625 -6.453125 "/></g></g></g><g fill="#303030" fill-opacity="1"><g transform="translate(110.753456, 80.018992)"><g><path d="M 4.765625 -7.625 C 5.328125 -7.625 5.835938 -7.5 6.296875 -7.25 C 6.753906 -7.007812 7.109375 -6.648438 7.359375 -6.171875 C 7.617188 -5.691406 7.75 -5.101562 7.75 -4.40625 L 7.75 0 L 6.53125 0 L 6.53125 -4.234375 C 6.53125 -4.984375 6.34375 -5.554688 5.96875 -5.953125 C 5.59375 -6.347656 5.082031 -6.546875 4.4375 -6.546875 C 3.78125 -6.546875 3.257812 -6.335938 2.875 -5.921875 C 2.488281 -5.515625 2.296875 -4.921875 2.296875 -4.140625 L 2.296875 0 L 1.046875 0 L 1.046875 -10.109375 L 2.296875 -10.109375 L 2.296875 -6.421875 C 2.535156 -6.796875 2.867188 -7.085938 3.296875 -7.296875 C 3.734375 -7.515625 4.222656 -7.625 4.765625 -7.625 Z M 4.765625 -7.625 "/></g></g></g><g fill="#303030" fill-opacity="1"><g transform="translate(119.490152, 80.018992)"><g><path d="M 4.3125 0.125 C 3.613281 0.125 2.976562 -0.03125 2.40625 -0.34375 C 1.84375 -0.664062 1.398438 -1.117188 1.078125 -1.703125 C 0.753906 -2.296875 0.59375 -2.976562 0.59375 -3.75 C 0.59375 -4.519531 0.753906 -5.195312 1.078125 -5.78125 C 1.410156 -6.375 1.863281 -6.828125 2.4375 -7.140625 C 3.019531 -7.453125 3.664062 -7.609375 4.375 -7.609375 C 5.082031 -7.609375 5.722656 -7.453125 6.296875 -7.140625 C 6.867188 -6.828125 7.320312 -6.378906 7.65625 -5.796875 C 7.988281 -5.210938 8.15625 -4.53125 8.15625 -3.75 C 8.15625 -2.976562 7.984375 -2.296875 7.640625 -1.703125 C 7.296875 -1.117188 6.832031 -0.664062 6.25 -0.34375 C 5.664062 -0.03125 5.019531 0.125 4.3125 0.125 Z M 4.3125 -0.96875 C 4.757812 -0.96875 5.175781 -1.070312 5.5625 -1.28125 C 5.957031 -1.488281 6.273438 -1.800781 6.515625 -2.21875 C 6.753906 -2.644531 6.875 -3.15625 6.875 -3.75 C 6.875 -4.351562 6.753906 -4.863281 6.515625 -5.28125 C 6.285156 -5.695312 5.976562 -6.007812 5.59375 -6.21875 C 5.21875 -6.425781 4.804688 -6.53125 4.359375 -6.53125 C 3.898438 -6.53125 3.484375 -6.425781 3.109375 -6.21875 C 2.734375 -6.007812 2.429688 -5.695312 2.203125 -5.28125 C 1.972656 -4.863281 1.859375 -4.351562 1.859375 -3.75 C 1.859375 -3.144531 1.96875 -2.628906 2.1875 -2.203125 C 2.414062 -1.785156 2.710938 -1.472656 3.078125 -1.265625 C 3.453125 -1.066406 3.863281 -0.96875 4.3125 -0.96875 Z M 4.3125 -0.96875 "/></g></g></g><g fill="#303030" fill-opacity="1"><g transform="translate(128.226848, 80.018992)"><g><path d="M 7.6875 -7.484375 L 7.6875 0 L 6.453125 0 L 6.453125 -1.109375 C 6.210938 -0.722656 5.878906 -0.421875 5.453125 -0.203125 C 5.035156 0.00390625 4.570312 0.109375 4.0625 0.109375 C 3.476562 0.109375 2.953125 -0.0078125 2.484375 -0.25 C 2.015625 -0.488281 1.644531 -0.847656 1.375 -1.328125 C 1.113281 -1.816406 0.984375 -2.40625 0.984375 -3.09375 L 0.984375 -7.484375 L 2.21875 -7.484375 L 2.21875 -3.265625 C 2.21875 -2.523438 2.398438 -1.957031 2.765625 -1.5625 C 3.140625 -1.164062 3.648438 -0.96875 4.296875 -0.96875 C 4.960938 -0.96875 5.488281 -1.171875 5.875 -1.578125 C 6.257812 -1.992188 6.453125 -2.59375 6.453125 -3.375 L 6.453125 -7.484375 Z M 7.6875 -7.484375 "/></g></g></g><g fill="#303030" fill-opacity="1"><g transform="translate(136.963544, 80.018992)"><g><path d="M 4.140625 -7.609375 C 4.785156 -7.609375 5.347656 -7.46875 5.828125 -7.1875 C 6.316406 -6.90625 6.679688 -6.550781 6.921875 -6.125 L 6.921875 -7.484375 L 8.1875 -7.484375 L 8.1875 0.15625 C 8.1875 0.84375 8.039062 1.453125 7.75 1.984375 C 7.457031 2.515625 7.039062 2.929688 6.5 3.234375 C 5.957031 3.535156 5.328125 3.6875 4.609375 3.6875 C 3.617188 3.6875 2.796875 3.453125 2.140625 2.984375 C 1.484375 2.523438 1.097656 1.894531 0.984375 1.09375 L 2.21875 1.09375 C 2.351562 1.550781 2.632812 1.914062 3.0625 2.1875 C 3.488281 2.46875 4.003906 2.609375 4.609375 2.609375 C 5.285156 2.609375 5.835938 2.394531 6.265625 1.96875 C 6.703125 1.539062 6.921875 0.9375 6.921875 0.15625 L 6.921875 -1.40625 C 6.679688 -0.96875 6.316406 -0.601562 5.828125 -0.3125 C 5.347656 -0.0195312 4.785156 0.125 4.140625 0.125 C 3.472656 0.125 2.867188 -0.0351562 2.328125 -0.359375 C 1.785156 -0.691406 1.359375 -1.15625 1.046875 -1.75 C 0.742188 -2.34375 0.59375 -3.015625 0.59375 -3.765625 C 0.59375 -4.535156 0.742188 -5.207031 1.046875 -5.78125 C 1.359375 -6.363281 1.785156 -6.8125 2.328125 -7.125 C 2.867188 -7.445312 3.472656 -7.609375 4.140625 -7.609375 Z M 6.921875 -3.75 C 6.921875 -4.320312 6.804688 -4.816406 6.578125 -5.234375 C 6.347656 -5.648438 6.039062 -5.96875 5.65625 -6.1875 C 5.269531 -6.414062 4.847656 -6.53125 4.390625 -6.53125 C 3.921875 -6.53125 3.492188 -6.421875 3.109375 -6.203125 C 2.734375 -5.984375 2.429688 -5.660156 2.203125 -5.234375 C 1.972656 -4.816406 1.859375 -4.328125 1.859375 -3.765625 C 1.859375 -3.191406 1.972656 -2.691406 2.203125 -2.265625 C 2.429688 -1.847656 2.734375 -1.523438 3.109375 -1.296875 C 3.492188 -1.078125 3.921875 -0.96875 4.390625 -0.96875 C 4.847656 -0.96875 5.269531 -1.078125 5.65625 -1.296875 C 6.039062 -1.523438 6.347656 -1.847656 6.578125 -2.265625 C 6.804688 -2.691406 6.921875 -3.1875 6.921875 -3.75 Z M 6.921875 -3.75 "/></g></g></g><g fill="#303030" fill-opacity="1"><g transform="translate(146.191678, 80.018992)"><g><path d="M 4.765625 -7.625 C 5.328125 -7.625 5.835938 -7.5 6.296875 -7.25 C 6.753906 -7.007812 7.109375 -6.648438 7.359375 -6.171875 C 7.617188 -5.691406 7.75 -5.101562 7.75 -4.40625 L 7.75 0 L 6.53125 0 L 6.53125 -4.234375 C 6.53125 -4.984375 6.34375 -5.554688 5.96875 -5.953125 C 5.59375 -6.347656 5.082031 -6.546875 4.4375 -6.546875 C 3.78125 -6.546875 3.257812 -6.335938 2.875 -5.921875 C 2.488281 -5.515625 2.296875 -4.921875 2.296875 -4.140625 L 2.296875 0 L 1.046875 0 L 1.046875 -10.109375 L 2.296875 -10.109375 L 2.296875 -6.421875 C 2.535156 -6.796875 2.867188 -7.085938 3.296875 -7.296875 C 3.734375 -7.515625 4.222656 -7.625 4.765625 -7.625 Z M 4.765625 -7.625 "/></g></g></g><g fill="#303030" fill-opacity="1"><g transform="translate(154.928374, 80.018992)"><g><path d="M 2.5625 -6.453125 L 2.5625 -2.046875 C 2.5625 -1.679688 2.640625 -1.421875 2.796875 -1.265625 C 2.953125 -1.117188 3.222656 -1.046875 3.609375 -1.046875 L 4.515625 -1.046875 L 4.515625 0 L 3.40625 0 C 2.707031 0 2.1875 -0.15625 1.84375 -0.46875 C 1.5 -0.789062 1.328125 -1.316406 1.328125 -2.046875 L 1.328125 -6.453125 L 0.359375 -6.453125 L 0.359375 -7.484375 L 1.328125 -7.484375 L 1.328125 -9.375 L 2.5625 -9.375 L 2.5625 -7.484375 L 4.515625 -7.484375 L 4.515625 -6.453125 Z M 2.5625 -6.453125 "/></g></g></g><g fill="#303030" fill-opacity="1"><g transform="translate(159.897366, 80.018992)"><g/></g></g><g fill="#303030" fill-opacity="1"><g transform="translate(163.542202, 80.018992)"><g><path d="M 1.6875 -8.703125 C 1.457031 -8.703125 1.257812 -8.78125 1.09375 -8.9375 C 0.925781 -9.101562 0.84375 -9.304688 0.84375 -9.546875 C 0.84375 -9.785156 0.925781 -9.984375 1.09375 -10.140625 C 1.257812 -10.304688 1.457031 -10.390625 1.6875 -10.390625 C 1.914062 -10.390625 2.109375 -10.304688 2.265625 -10.140625 C 2.429688 -9.984375 2.515625 -9.785156 2.515625 -9.546875 C 2.515625 -9.304688 2.429688 -9.101562 2.265625 -8.9375 C 2.109375 -8.78125 1.914062 -8.703125 1.6875 -8.703125 Z M 2.296875 -7.484375 L 2.296875 0 L 1.046875 0 L 1.046875 -7.484375 Z M 2.296875 -7.484375 "/></g></g></g><g fill="#303030" fill-opacity="1"><g transform="translate(166.900373, 80.018992)"><g><path d="M 4.703125 -7.625 C 5.609375 -7.625 6.34375 -7.347656 6.90625 -6.796875 C 7.46875 -6.242188 7.75 -5.445312 7.75 -4.40625 L 7.75 0 L 6.53125 0 L 6.53125 -4.234375 C 6.53125 -4.984375 6.34375 -5.554688 5.96875 -5.953125 C 5.59375 -6.347656 5.082031 -6.546875 4.4375 -6.546875 C 3.78125 -6.546875 3.257812 -6.335938 2.875 -5.921875 C 2.488281 -5.515625 2.296875 -4.921875 2.296875 -4.140625 L 2.296875 0 L 1.046875 0 L 1.046875 -7.484375 L 2.296875 -7.484375 L 2.296875 -6.421875 C 2.535156 -6.796875 2.867188 -7.085938 3.296875 -7.296875 C 3.722656 -7.515625 4.191406 -7.625 4.703125 -7.625 Z M 4.703125 -7.625 "/></g></g></g><g fill="#303030" fill-opacity="1"><g transform="translate(55.611397, 98.719124)"><g><path d="M 2.5625 -6.453125 L 2.5625 -2.046875 C 2.5625 -1.679688 2.640625 -1.421875 2.796875 -1.265625 C 2.953125 -1.117188 3.222656 -1.046875 3.609375 -1.046875 L 4.515625 -1.046875 L 4.515625 0 L 3.40625 0 C 2.707031 0 2.1875 -0.15625 1.84375 -0.46875 C 1.5 -0.789062 1.328125 -1.316406 1.328125 -2.046875 L 1.328125 -6.453125 L 0.359375 -6.453125 L 0.359375 -7.484375 L 1.328125 -7.484375 L 1.328125 -9.375 L 2.5625 -9.375 L 2.5625 -7.484375 L 4.515625 -7.484375 L 4.515625 -6.453125 Z M 2.5625 -6.453125 "/></g></g></g><g fill="#303030" fill-opacity="1"><g transform="translate(60.580389, 98.719124)"><g><path d="M 4.765625 -7.625 C 5.328125 -7.625 5.835938 -7.5 6.296875 -7.25 C 6.753906 -7.007812 7.109375 -6.648438 7.359375 -6.171875 C 7.617188 -5.691406 7.75 -5.101562 7.75 -4.40625 L 7.75 0 L 6.53125 0 L 6.53125 -4.234375 C 6.53125 -4.984375 6.34375 -5.554688 5.96875 -5.953125 C 5.59375 -6.347656 5.082031 -6.546875 4.4375 -6.546875 C 3.78125 -6.546875 3.257812 -6.335938 2.875 -5.921875 C 2.488281 -5.515625 2.296875 -4.921875 2.296875 -4.140625 L 2.296875 0 L 1.046875 0 L 1.046875 -10.109375 L 2.296875 -10.109375 L 2.296875 -6.421875 C 2.535156 -6.796875 2.867188 -7.085938 3.296875 -7.296875 C 3.734375 -7.515625 4.222656 -7.625 4.765625 -7.625 Z M 4.765625 -7.625 "/></g></g></g><g fill="#303030" fill-opacity="1"><g transform="translate(69.317085, 98.719124)"><g><path d="M 7.875 -4.03125 C 7.875 -3.789062 7.863281 -3.539062 7.84375 -3.28125 L 1.859375 -3.28125 C 1.898438 -2.539062 2.148438 -1.960938 2.609375 -1.546875 C 3.078125 -1.128906 3.632812 -0.921875 4.28125 -0.921875 C 4.820312 -0.921875 5.269531 -1.046875 5.625 -1.296875 C 5.988281 -1.554688 6.242188 -1.894531 6.390625 -2.3125 L 7.734375 -2.3125 C 7.523438 -1.59375 7.117188 -1.003906 6.515625 -0.546875 C 5.921875 -0.0976562 5.175781 0.125 4.28125 0.125 C 3.570312 0.125 2.9375 -0.03125 2.375 -0.34375 C 1.820312 -0.664062 1.382812 -1.117188 1.0625 -1.703125 C 0.75 -2.296875 0.59375 -2.976562 0.59375 -3.75 C 0.59375 -4.53125 0.742188 -5.210938 1.046875 -5.796875 C 1.359375 -6.378906 1.796875 -6.828125 2.359375 -7.140625 C 2.921875 -7.453125 3.5625 -7.609375 4.28125 -7.609375 C 5 -7.609375 5.628906 -7.453125 6.171875 -7.140625 C 6.710938 -6.828125 7.128906 -6.398438 7.421875 -5.859375 C 7.722656 -5.316406 7.875 -4.707031 7.875 -4.03125 Z M 6.59375 -4.28125 C 6.59375 -4.757812 6.488281 -5.164062 6.28125 -5.5 C 6.070312 -5.84375 5.785156 -6.101562 5.421875 -6.28125 C 5.066406 -6.46875 4.671875 -6.5625 4.234375 -6.5625 C 3.609375 -6.5625 3.070312 -6.359375 2.625 -5.953125 C 2.1875 -5.554688 1.9375 -5 1.875 -4.28125 Z M 6.59375 -4.28125 "/></g></g></g><g fill="#303030" fill-opacity="1"><g transform="translate(77.780755, 98.719124)"><g/></g></g><g fill="#303030" fill-opacity="1"><g transform="translate(81.425591, 98.719124)"><g><path d="M 10.046875 -7.625 C 10.628906 -7.625 11.148438 -7.5 11.609375 -7.25 C 12.066406 -7.007812 12.425781 -6.648438 12.6875 -6.171875 C 12.945312 -5.691406 13.078125 -5.101562 13.078125 -4.40625 L 13.078125 0 L 11.859375 0 L 11.859375 -4.234375 C 11.859375 -4.984375 11.671875 -5.554688 11.296875 -5.953125 C 10.929688 -6.347656 10.4375 -6.546875 9.8125 -6.546875 C 9.15625 -6.546875 8.632812 -6.335938 8.25 -5.921875 C 7.875 -5.503906 7.6875 -4.90625 7.6875 -4.125 L 7.6875 0 L 6.453125 0 L 6.453125 -4.234375 C 6.453125 -4.984375 6.269531 -5.554688 5.90625 -5.953125 C 5.539062 -6.347656 5.039062 -6.546875 4.40625 -6.546875 C 3.757812 -6.546875 3.242188 -6.335938 2.859375 -5.921875 C 2.484375 -5.503906 2.296875 -4.90625 2.296875 -4.125 L 2.296875 0 L 1.046875 0 L 1.046875 -7.484375 L 2.296875 -7.484375 L 2.296875 -6.40625 C 2.535156 -6.789062 2.863281 -7.085938 3.28125 -7.296875 C 3.695312 -7.515625 4.15625 -7.625 4.65625 -7.625 C 5.28125 -7.625 5.832031 -7.484375 6.3125 -7.203125 C 6.800781 -6.921875 7.164062 -6.503906 7.40625 -5.953125 C 7.613281 -6.484375 7.957031 -6.894531 8.4375 -7.1875 C 8.914062 -7.476562 9.453125 -7.625 10.046875 -7.625 Z M 10.046875 -7.625 "/></g></g></g><g fill="#303030" fill-opacity="1"><g transform="translate(95.486209, 98.719124)"><g><path d="M 4.3125 0.125 C 3.613281 0.125 2.976562 -0.03125 2.40625 -0.34375 C 1.84375 -0.664062 1.398438 -1.117188 1.078125 -1.703125 C 0.753906 -2.296875 0.59375 -2.976562 0.59375 -3.75 C 0.59375 -4.519531 0.753906 -5.195312 1.078125 -5.78125 C 1.410156 -6.375 1.863281 -6.828125 2.4375 -7.140625 C 3.019531 -7.453125 3.664062 -7.609375 4.375 -7.609375 C 5.082031 -7.609375 5.722656 -7.453125 6.296875 -7.140625 C 6.867188 -6.828125 7.320312 -6.378906 7.65625 -5.796875 C 7.988281 -5.210938 8.15625 -4.53125 8.15625 -3.75 C 8.15625 -2.976562 7.984375 -2.296875 7.640625 -1.703125 C 7.296875 -1.117188 6.832031 -0.664062 6.25 -0.34375 C 5.664062 -0.03125 5.019531 0.125 4.3125 0.125 Z M 4.3125 -0.96875 C 4.757812 -0.96875 5.175781 -1.070312 5.5625 -1.28125 C 5.957031 -1.488281 6.273438 -1.800781 6.515625 -2.21875 C 6.753906 -2.644531 6.875 -3.15625 6.875 -3.75 C 6.875 -4.351562 6.753906 -4.863281 6.515625 -5.28125 C 6.285156 -5.695312 5.976562 -6.007812 5.59375 -6.21875 C 5.21875 -6.425781 4.804688 -6.53125 4.359375 -6.53125 C 3.898438 -6.53125 3.484375 -6.425781 3.109375 -6.21875 C 2.734375 -6.007812 2.429688 -5.695312 2.203125 -5.28125 C 1.972656 -4.863281 1.859375 -4.351562 1.859375 -3.75 C 1.859375 -3.144531 1.96875 -2.628906 2.1875 -2.203125 C 2.414062 -1.785156 2.710938 -1.472656 3.078125 -1.265625 C 3.453125 -1.066406 3.863281 -0.96875 4.3125 -0.96875 Z M 4.3125 -0.96875 "/></g></g></g><g fill="#303030" fill-opacity="1"><g transform="translate(104.222905, 98.719124)"><g><path d="M 2.296875 -6.265625 C 2.515625 -6.691406 2.828125 -7.023438 3.234375 -7.265625 C 3.640625 -7.503906 4.132812 -7.625 4.71875 -7.625 L 4.71875 -6.34375 L 4.390625 -6.34375 C 2.992188 -6.34375 2.296875 -5.582031 2.296875 -4.0625 L 2.296875 0 L 1.046875 0 L 1.046875 -7.484375 L 2.296875 -7.484375 Z M 2.296875 -6.265625 "/></g></g></g><g fill="#303030" fill-opacity="1"><g transform="translate(109.314765, 98.719124)"><g><path d="M 4.703125 -7.625 C 5.609375 -7.625 6.34375 -7.347656 6.90625 -6.796875 C 7.46875 -6.242188 7.75 -5.445312 7.75 -4.40625 L 7.75 0 L 6.53125 0 L 6.53125 -4.234375 C 6.53125 -4.984375 6.34375 -5.554688 5.96875 -5.953125 C 5.59375 -6.347656 5.082031 -6.546875 4.4375 -6.546875 C 3.78125 -6.546875 3.257812 -6.335938 2.875 -5.921875 C 2.488281 -5.515625 2.296875 -4.921875 2.296875 -4.140625 L 2.296875 0 L 1.046875 0 L 1.046875 -7.484375 L 2.296875 -7.484375 L 2.296875 -6.421875 C 2.535156 -6.796875 2.867188 -7.085938 3.296875 -7.296875 C 3.722656 -7.515625 4.191406 -7.625 4.703125 -7.625 Z M 4.703125 -7.625 "/></g></g></g><g fill="#303030" fill-opacity="1"><g transform="translate(118.051461, 98.719124)"><g><path d="M 1.6875 -8.703125 C 1.457031 -8.703125 1.257812 -8.78125 1.09375 -8.9375 C 0.925781 -9.101562 0.84375 -9.304688 0.84375 -9.546875 C 0.84375 -9.785156 0.925781 -9.984375 1.09375 -10.140625 C 1.257812 -10.304688 1.457031 -10.390625 1.6875 -10.390625 C 1.914062 -10.390625 2.109375 -10.304688 2.265625 -10.140625 C 2.429688 -9.984375 2.515625 -9.785156 2.515625 -9.546875 C 2.515625 -9.304688 2.429688 -9.101562 2.265625 -8.9375 C 2.109375 -8.78125 1.914062 -8.703125 1.6875 -8.703125 Z M 2.296875 -7.484375 L 2.296875 0 L 1.046875 0 L 1.046875 -7.484375 Z M 2.296875 -7.484375 "/></g></g></g><g fill="#303030" fill-opacity="1"><g transform="translate(121.409632, 98.719124)"><g><path d="M 4.703125 -7.625 C 5.609375 -7.625 6.34375 -7.347656 6.90625 -6.796875 C 7.46875 -6.242188 7.75 -5.445312 7.75 -4.40625 L 7.75 0 L 6.53125 0 L 6.53125 -4.234375 C 6.53125 -4.984375 6.34375 -5.554688 5.96875 -5.953125 C 5.59375 -6.347656 5.082031 -6.546875 4.4375 -6.546875 C 3.78125 -6.546875 3.257812 -6.335938 2.875 -5.921875 C 2.488281 -5.515625 2.296875 -4.921875 2.296875 -4.140625 L 2.296875 0 L 1.046875 0 L 1.046875 -7.484375 L 2.296875 -7.484375 L 2.296875 -6.421875 C 2.535156 -6.796875 2.867188 -7.085938 3.296875 -7.296875 C 3.722656 -7.515625 4.191406 -7.625 4.703125 -7.625 Z M 4.703125 -7.625 "/></g></g></g><g fill="#303030" fill-opacity="1"><g transform="translate(130.146328, 98.719124)"><g><path d="M 4.140625 -7.609375 C 4.785156 -7.609375 5.347656 -7.46875 5.828125 -7.1875 C 6.316406 -6.90625 6.679688 -6.550781 6.921875 -6.125 L 6.921875 -7.484375 L 8.1875 -7.484375 L 8.1875 0.15625 C 8.1875 0.84375 8.039062 1.453125 7.75 1.984375 C 7.457031 2.515625 7.039062 2.929688 6.5 3.234375 C 5.957031 3.535156 5.328125 3.6875 4.609375 3.6875 C 3.617188 3.6875 2.796875 3.453125 2.140625 2.984375 C 1.484375 2.523438 1.097656 1.894531 0.984375 1.09375 L 2.21875 1.09375 C 2.351562 1.550781 2.632812 1.914062 3.0625 2.1875 C 3.488281 2.46875 4.003906 2.609375 4.609375 2.609375 C 5.285156 2.609375 5.835938 2.394531 6.265625 1.96875 C 6.703125 1.539062 6.921875 0.9375 6.921875 0.15625 L 6.921875 -1.40625 C 6.679688 -0.96875 6.316406 -0.601562 5.828125 -0.3125 C 5.347656 -0.0195312 4.785156 0.125 4.140625 0.125 C 3.472656 0.125 2.867188 -0.0351562 2.328125 -0.359375 C 1.785156 -0.691406 1.359375 -1.15625 1.046875 -1.75 C 0.742188 -2.34375 0.59375 -3.015625 0.59375 -3.765625 C 0.59375 -4.535156 0.742188 -5.207031 1.046875 -5.78125 C 1.359375 -6.363281 1.785156 -6.8125 2.328125 -7.125 C 2.867188 -7.445312 3.472656 -7.609375 4.140625 -7.609375 Z M 6.921875 -3.75 C 6.921875 -4.320312 6.804688 -4.816406 6.578125 -5.234375 C 6.347656 -5.648438 6.039062 -5.96875 5.65625 -6.1875 C 5.269531 -6.414062 4.847656 -6.53125 4.390625 -6.53125 C 3.921875 -6.53125 3.492188 -6.421875 3.109375 -6.203125 C 2.734375 -5.984375 2.429688 -5.660156 2.203125 -5.234375 C 1.972656 -4.816406 1.859375 -4.328125 1.859375 -3.765625 C 1.859375 -3.191406 1.972656 -2.691406 2.203125 -2.265625 C 2.429688 -1.847656 2.734375 -1.523438 3.109375 -1.296875 C 3.492188 -1.078125 3.921875 -0.96875 4.390625 -0.96875 C 4.847656 -0.96875 5.269531 -1.078125 5.65625 -1.296875 C 6.039062 -1.523438 6.347656 -1.847656 6.578125 -2.265625 C 6.804688 -2.691406 6.921875 -3.1875 6.921875 -3.75 Z M 6.921875 -3.75 "/></g></g></g><g fill="#303030" fill-opacity="1"><g transform="translate(139.374462, 98.719124)"><g/></g></g><g fill="#303030" fill-opacity="1"><g transform="translate(143.019298, 98.719124)"><g><path d="M 0.59375 -3.75 C 0.59375 -4.53125 0.742188 -5.207031 1.046875 -5.78125 C 1.359375 -6.363281 1.789062 -6.8125 2.34375 -7.125 C 2.894531 -7.445312 3.523438 -7.609375 4.234375 -7.609375 C 5.148438 -7.609375 5.90625 -7.382812 6.5 -6.9375 C 7.101562 -6.488281 7.5 -5.867188 7.6875 -5.078125 L 6.34375 -5.078125 C 6.21875 -5.535156 5.96875 -5.894531 5.59375 -6.15625 C 5.226562 -6.425781 4.773438 -6.5625 4.234375 -6.5625 C 3.523438 -6.5625 2.953125 -6.316406 2.515625 -5.828125 C 2.078125 -5.335938 1.859375 -4.644531 1.859375 -3.75 C 1.859375 -2.851562 2.078125 -2.15625 2.515625 -1.65625 C 2.953125 -1.164062 3.523438 -0.921875 4.234375 -0.921875 C 4.773438 -0.921875 5.226562 -1.046875 5.59375 -1.296875 C 5.957031 -1.554688 6.207031 -1.925781 6.34375 -2.40625 L 7.6875 -2.40625 C 7.488281 -1.632812 7.085938 -1.019531 6.484375 -0.5625 C 5.878906 -0.101562 5.128906 0.125 4.234375 0.125 C 3.523438 0.125 2.894531 -0.03125 2.34375 -0.34375 C 1.789062 -0.664062 1.359375 -1.117188 1.046875 -1.703125 C 0.742188 -2.285156 0.59375 -2.96875 0.59375 -3.75 Z M 0.59375 -3.75 "/></g></g></g><g fill="#303030" fill-opacity="1"><g transform="translate(151.305509, 98.719124)"><g><path d="M 0.59375 -3.765625 C 0.59375 -4.535156 0.742188 -5.207031 1.046875 -5.78125 C 1.359375 -6.363281 1.785156 -6.8125 2.328125 -7.125 C 2.867188 -7.445312 3.472656 -7.609375 4.140625 -7.609375 C 4.796875 -7.609375 5.363281 -7.46875 5.84375 -7.1875 C 6.320312 -6.90625 6.679688 -6.550781 6.921875 -6.125 L 6.921875 -7.484375 L 8.1875 -7.484375 L 8.1875 0 L 6.921875 0 L 6.921875 -1.390625 C 6.679688 -0.953125 6.316406 -0.585938 5.828125 -0.296875 C 5.335938 -0.015625 4.769531 0.125 4.125 0.125 C 3.457031 0.125 2.851562 -0.0351562 2.3125 -0.359375 C 1.78125 -0.691406 1.359375 -1.15625 1.046875 -1.75 C 0.742188 -2.34375 0.59375 -3.015625 0.59375 -3.765625 Z M 6.921875 -3.75 C 6.921875 -4.320312 6.804688 -4.816406 6.578125 -5.234375 C 6.347656 -5.648438 6.039062 -5.96875 5.65625 -6.1875 C 5.269531 -6.414062 4.847656 -6.53125 4.390625 -6.53125 C 3.921875 -6.53125 3.492188 -6.421875 3.109375 -6.203125 C 2.734375 -5.984375 2.429688 -5.660156 2.203125 -5.234375 C 1.972656 -4.816406 1.859375 -4.328125 1.859375 -3.765625 C 1.859375 -3.191406 1.972656 -2.691406 2.203125 -2.265625 C 2.429688 -1.847656 2.734375 -1.523438 3.109375 -1.296875 C 3.492188 -1.078125 3.921875 -0.96875 4.390625 -0.96875 C 4.847656 -0.96875 5.269531 -1.078125 5.65625 -1.296875 C 6.039062 -1.523438 6.347656 -1.847656 6.578125 -2.265625 C 6.804688 -2.691406 6.921875 -3.1875 6.921875 -3.75 Z M 6.921875 -3.75 "/></g></g></g><g fill="#303030" fill-opacity="1"><g transform="translate(160.533642, 98.719124)"><g><path d="M 4.703125 -7.625 C 5.609375 -7.625 6.34375 -7.347656 6.90625 -6.796875 C 7.46875 -6.242188 7.75 -5.445312 7.75 -4.40625 L 7.75 0 L 6.53125 0 L 6.53125 -4.234375 C 6.53125 -4.984375 6.34375 -5.554688 5.96875 -5.953125 C 5.59375 -6.347656 5.082031 -6.546875 4.4375 -6.546875 C 3.78125 -6.546875 3.257812 -6.335938 2.875 -5.921875 C 2.488281 -5.515625 2.296875 -4.921875 2.296875 -4.140625 L 2.296875 0 L 1.046875 0 L 1.046875 -7.484375 L 2.296875 -7.484375 L 2.296875 -6.421875 C 2.535156 -6.796875 2.867188 -7.085938 3.296875 -7.296875 C 3.722656 -7.515625 4.191406 -7.625 4.703125 -7.625 Z M 4.703125 -7.625 "/></g></g></g><g fill="#303030" fill-opacity="1"><g transform="translate(47.079462, 117.419255)"><g><path d="M 0.59375 -3.75 C 0.59375 -4.53125 0.742188 -5.207031 1.046875 -5.78125 C 1.359375 -6.363281 1.789062 -6.8125 2.34375 -7.125 C 2.894531 -7.445312 3.523438 -7.609375 4.234375 -7.609375 C 5.148438 -7.609375 5.90625 -7.382812 6.5 -6.9375 C 7.101562 -6.488281 7.5 -5.867188 7.6875 -5.078125 L 6.34375 -5.078125 C 6.21875 -5.535156 5.96875 -5.894531 5.59375 -6.15625 C 5.226562 -6.425781 4.773438 -6.5625 4.234375 -6.5625 C 3.523438 -6.5625 2.953125 -6.316406 2.515625 -5.828125 C 2.078125 -5.335938 1.859375 -4.644531 1.859375 -3.75 C 1.859375 -2.851562 2.078125 -2.15625 2.515625 -1.65625 C 2.953125 -1.164062 3.523438 -0.921875 4.234375 -0.921875 C 4.773438 -0.921875 5.226562 -1.046875 5.59375 -1.296875 C 5.957031 -1.554688 6.207031 -1.925781 6.34375 -2.40625 L 7.6875 -2.40625 C 7.488281 -1.632812 7.085938 -1.019531 6.484375 -0.5625 C 5.878906 -0.101562 5.128906 0.125 4.234375 0.125 C 3.523438 0.125 2.894531 -0.03125 2.34375 -0.34375 C 1.789062 -0.664062 1.359375 -1.117188 1.046875 -1.703125 C 0.742188 -2.285156 0.59375 -2.96875 0.59375 -3.75 Z M 0.59375 -3.75 "/></g></g></g><g fill="#303030" fill-opacity="1"><g transform="translate(55.365672, 117.419255)"><g><path d="M 4.765625 -7.625 C 5.328125 -7.625 5.835938 -7.5 6.296875 -7.25 C 6.753906 -7.007812 7.109375 -6.648438 7.359375 -6.171875 C 7.617188 -5.691406 7.75 -5.101562 7.75 -4.40625 L 7.75 0 L 6.53125 0 L 6.53125 -4.234375 C 6.53125 -4.984375 6.34375 -5.554688 5.96875 -5.953125 C 5.59375 -6.347656 5.082031 -6.546875 4.4375 -6.546875 C 3.78125 -6.546875 3.257812 -6.335938 2.875 -5.921875 C 2.488281 -5.515625 2.296875 -4.921875 2.296875 -4.140625 L 2.296875 0 L 1.046875 0 L 1.046875 -10.109375 L 2.296875 -10.109375 L 2.296875 -6.421875 C 2.535156 -6.796875 2.867188 -7.085938 3.296875 -7.296875 C 3.734375 -7.515625 4.222656 -7.625 4.765625 -7.625 Z M 4.765625 -7.625 "/></g></g></g><g fill="#303030" fill-opacity="1"><g transform="translate(64.102369, 117.419255)"><g><path d="M 0.59375 -3.765625 C 0.59375 -4.535156 0.742188 -5.207031 1.046875 -5.78125 C 1.359375 -6.363281 1.785156 -6.8125 2.328125 -7.125 C 2.867188 -7.445312 3.472656 -7.609375 4.140625 -7.609375 C 4.796875 -7.609375 5.363281 -7.46875 5.84375 -7.1875 C 6.320312 -6.90625 6.679688 -6.550781 6.921875 -6.125 L 6.921875 -7.484375 L 8.1875 -7.484375 L 8.1875 0 L 6.921875 0 L 6.921875 -1.390625 C 6.679688 -0.953125 6.316406 -0.585938 5.828125 -0.296875 C 5.335938 -0.015625 4.769531 0.125 4.125 0.125 C 3.457031 0.125 2.851562 -0.0351562 2.3125 -0.359375 C 1.78125 -0.691406 1.359375 -1.15625 1.046875 -1.75 C 0.742188 -2.34375 0.59375 -3.015625 0.59375 -3.765625 Z M 6.921875 -3.75 C 6.921875 -4.320312 6.804688 -4.816406 6.578125 -5.234375 C 6.347656 -5.648438 6.039062 -5.96875 5.65625 -6.1875 C 5.269531 -6.414062 4.847656 -6.53125 4.390625 -6.53125 C 3.921875 -6.53125 3.492188 -6.421875 3.109375 -6.203125 C 2.734375 -5.984375 2.429688 -5.660156 2.203125 -5.234375 C 1.972656 -4.816406 1.859375 -4.328125 1.859375 -3.765625 C 1.859375 -3.191406 1.972656 -2.691406 2.203125 -2.265625 C 2.429688 -1.847656 2.734375 -1.523438 3.109375 -1.296875 C 3.492188 -1.078125 3.921875 -0.96875 4.390625 -0.96875 C 4.847656 -0.96875 5.269531 -1.078125 5.65625 -1.296875 C 6.039062 -1.523438 6.347656 -1.847656 6.578125 -2.265625 C 6.804688 -2.691406 6.921875 -3.1875 6.921875 -3.75 Z M 6.921875 -3.75 "/></g></g></g><g fill="#303030" fill-opacity="1"><g transform="translate(73.330502, 117.419255)"><g><path d="M 4.703125 -7.625 C 5.609375 -7.625 6.34375 -7.347656 6.90625 -6.796875 C 7.46875 -6.242188 7.75 -5.445312 7.75 -4.40625 L 7.75 0 L 6.53125 0 L 6.53125 -4.234375 C 6.53125 -4.984375 6.34375 -5.554688 5.96875 -5.953125 C 5.59375 -6.347656 5.082031 -6.546875 4.4375 -6.546875 C 3.78125 -6.546875 3.257812 -6.335938 2.875 -5.921875 C 2.488281 -5.515625 2.296875 -4.921875 2.296875 -4.140625 L 2.296875 0 L 1.046875 0 L 1.046875 -7.484375 L 2.296875 -7.484375 L 2.296875 -6.421875 C 2.535156 -6.796875 2.867188 -7.085938 3.296875 -7.296875 C 3.722656 -7.515625 4.191406 -7.625 4.703125 -7.625 Z M 4.703125 -7.625 "/></g></g></g><g fill="#303030" fill-opacity="1"><g transform="translate(82.067198, 117.419255)"><g><path d="M 4.140625 -7.609375 C 4.785156 -7.609375 5.347656 -7.46875 5.828125 -7.1875 C 6.316406 -6.90625 6.679688 -6.550781 6.921875 -6.125 L 6.921875 -7.484375 L 8.1875 -7.484375 L 8.1875 0.15625 C 8.1875 0.84375 8.039062 1.453125 7.75 1.984375 C 7.457031 2.515625 7.039062 2.929688 6.5 3.234375 C 5.957031 3.535156 5.328125 3.6875 4.609375 3.6875 C 3.617188 3.6875 2.796875 3.453125 2.140625 2.984375 C 1.484375 2.523438 1.097656 1.894531 0.984375 1.09375 L 2.21875 1.09375 C 2.351562 1.550781 2.632812 1.914062 3.0625 2.1875 C 3.488281 2.46875 4.003906 2.609375 4.609375 2.609375 C 5.285156 2.609375 5.835938 2.394531 6.265625 1.96875 C 6.703125 1.539062 6.921875 0.9375 6.921875 0.15625 L 6.921875 -1.40625 C 6.679688 -0.96875 6.316406 -0.601562 5.828125 -0.3125 C 5.347656 -0.0195312 4.785156 0.125 4.140625 0.125 C 3.472656 0.125 2.867188 -0.0351562 2.328125 -0.359375 C 1.785156 -0.691406 1.359375 -1.15625 1.046875 -1.75 C 0.742188 -2.34375 0.59375 -3.015625 0.59375 -3.765625 C 0.59375 -4.535156 0.742188 -5.207031 1.046875 -5.78125 C 1.359375 -6.363281 1.785156 -6.8125 2.328125 -7.125 C 2.867188 -7.445312 3.472656 -7.609375 4.140625 -7.609375 Z M 6.921875 -3.75 C 6.921875 -4.320312 6.804688 -4.816406 6.578125 -5.234375 C 6.347656 -5.648438 6.039062 -5.96875 5.65625 -6.1875 C 5.269531 -6.414062 4.847656 -6.53125 4.390625 -6.53125 C 3.921875 -6.53125 3.492188 -6.421875 3.109375 -6.203125 C 2.734375 -5.984375 2.429688 -5.660156 2.203125 -5.234375 C 1.972656 -4.816406 1.859375 -4.328125 1.859375 -3.765625 C 1.859375 -3.191406 1.972656 -2.691406 2.203125 -2.265625 C 2.429688 -1.847656 2.734375 -1.523438 3.109375 -1.296875 C 3.492188 -1.078125 3.921875 -0.96875 4.390625 -0.96875 C 4.847656 -0.96875 5.269531 -1.078125 5.65625 -1.296875 C 6.039062 -1.523438 6.347656 -1.847656 6.578125 -2.265625 C 6.804688 -2.691406 6.921875 -3.1875 6.921875 -3.75 Z M 6.921875 -3.75 "/></g></g></g><g fill="#303030" fill-opacity="1"><g transform="translate(91.295332, 117.419255)"><g><path d="M 7.875 -4.03125 C 7.875 -3.789062 7.863281 -3.539062 7.84375 -3.28125 L 1.859375 -3.28125 C 1.898438 -2.539062 2.148438 -1.960938 2.609375 -1.546875 C 3.078125 -1.128906 3.632812 -0.921875 4.28125 -0.921875 C 4.820312 -0.921875 5.269531 -1.046875 5.625 -1.296875 C 5.988281 -1.554688 6.242188 -1.894531 6.390625 -2.3125 L 7.734375 -2.3125 C 7.523438 -1.59375 7.117188 -1.003906 6.515625 -0.546875 C 5.921875 -0.0976562 5.175781 0.125 4.28125 0.125 C 3.570312 0.125 2.9375 -0.03125 2.375 -0.34375 C 1.820312 -0.664062 1.382812 -1.117188 1.0625 -1.703125 C 0.75 -2.296875 0.59375 -2.976562 0.59375 -3.75 C 0.59375 -4.53125 0.742188 -5.210938 1.046875 -5.796875 C 1.359375 -6.378906 1.796875 -6.828125 2.359375 -7.140625 C 2.921875 -7.453125 3.5625 -7.609375 4.28125 -7.609375 C 5 -7.609375 5.628906 -7.453125 6.171875 -7.140625 C 6.710938 -6.828125 7.128906 -6.398438 7.421875 -5.859375 C 7.722656 -5.316406 7.875 -4.707031 7.875 -4.03125 Z M 6.59375 -4.28125 C 6.59375 -4.757812 6.488281 -5.164062 6.28125 -5.5 C 6.070312 -5.84375 5.785156 -6.101562 5.421875 -6.28125 C 5.066406 -6.46875 4.671875 -6.5625 4.234375 -6.5625 C 3.609375 -6.5625 3.070312 -6.359375 2.625 -5.953125 C 2.1875 -5.554688 1.9375 -5 1.875 -4.28125 Z M 6.59375 -4.28125 "/></g></g></g><g fill="#303030" fill-opacity="1"><g transform="translate(99.759002, 117.419255)"><g/></g></g><g fill="#303030" fill-opacity="1"><g transform="translate(103.403839, 117.419255)"><g><path d="M 7.5 -7.484375 L 2.984375 3.515625 L 1.703125 3.515625 L 3.1875 -0.078125 L 0.15625 -7.484375 L 1.546875 -7.484375 L 3.890625 -1.421875 L 6.21875 -7.484375 Z M 7.5 -7.484375 "/></g></g><g transform="translate(111.089406, 117.419255)"><g><path d="M 4.3125 0.125 C 3.613281 0.125 2.976562 -0.03125 2.40625 -0.34375 C 1.84375 -0.664062 1.398438 -1.117188 1.078125 -1.703125 C 0.753906 -2.296875 0.59375 -2.976562 0.59375 -3.75 C 0.59375 -4.519531 0.753906 -5.195312 1.078125 -5.78125 C 1.410156 -6.375 1.863281 -6.828125 2.4375 -7.140625 C 3.019531 -7.453125 3.664062 -7.609375 4.375 -7.609375 C 5.082031 -7.609375 5.722656 -7.453125 6.296875 -7.140625 C 6.867188 -6.828125 7.320312 -6.378906 7.65625 -5.796875 C 7.988281 -5.210938 8.15625 -4.53125 8.15625 -3.75 C 8.15625 -2.976562 7.984375 -2.296875 7.640625 -1.703125 C 7.296875 -1.117188 6.832031 -0.664062 6.25 -0.34375 C 5.664062 -0.03125 5.019531 0.125 4.3125 0.125 Z M 4.3125 -0.96875 C 4.757812 -0.96875 5.175781 -1.070312 5.5625 -1.28125 C 5.957031 -1.488281 6.273438 -1.800781 6.515625 -2.21875 C 6.753906 -2.644531 6.875 -3.15625 6.875 -3.75 C 6.875 -4.351562 6.753906 -4.863281 6.515625 -5.28125 C 6.285156 -5.695312 5.976562 -6.007812 5.59375 -6.21875 C 5.21875 -6.425781 4.804688 -6.53125 4.359375 -6.53125 C 3.898438 -6.53125 3.484375 -6.425781 3.109375 -6.21875 C 2.734375 -6.007812 2.429688 -5.695312 2.203125 -5.28125 C 1.972656 -4.863281 1.859375 -4.351562 1.859375 -3.75 C 1.859375 -3.144531 1.96875 -2.628906 2.1875 -2.203125 C 2.414062 -1.785156 2.710938 -1.472656 3.078125 -1.265625 C 3.453125 -1.066406 3.863281 -0.96875 4.3125 -0.96875 Z M 4.3125 -0.96875 "/></g></g></g><g fill="#303030" fill-opacity="1"><g transform="translate(119.826101, 117.419255)"><g><path d="M 7.6875 -7.484375 L 7.6875 0 L 6.453125 0 L 6.453125 -1.109375 C 6.210938 -0.722656 5.878906 -0.421875 5.453125 -0.203125 C 5.035156 0.00390625 4.570312 0.109375 4.0625 0.109375 C 3.476562 0.109375 2.953125 -0.0078125 2.484375 -0.25 C 2.015625 -0.488281 1.644531 -0.847656 1.375 -1.328125 C 1.113281 -1.816406 0.984375 -2.40625 0.984375 -3.09375 L 0.984375 -7.484375 L 2.21875 -7.484375 L 2.21875 -3.265625 C 2.21875 -2.523438 2.398438 -1.957031 2.765625 -1.5625 C 3.140625 -1.164062 3.648438 -0.96875 4.296875 -0.96875 C 4.960938 -0.96875 5.488281 -1.171875 5.875 -1.578125 C 6.257812 -1.992188 6.453125 -2.59375 6.453125 -3.375 L 6.453125 -7.484375 Z M 7.6875 -7.484375 "/></g></g></g><g fill="#303030" fill-opacity="1"><g transform="translate(128.562797, 117.419255)"><g><path d="M 2.296875 -6.265625 C 2.515625 -6.691406 2.828125 -7.023438 3.234375 -7.265625 C 3.640625 -7.503906 4.132812 -7.625 4.71875 -7.625 L 4.71875 -6.34375 L 4.390625 -6.34375 C 2.992188 -6.34375 2.296875 -5.582031 2.296875 -4.0625 L 2.296875 0 L 1.046875 0 L 1.046875 -7.484375 L 2.296875 -7.484375 Z M 2.296875 -6.265625 "/></g></g></g><g fill="#303030" fill-opacity="1"><g transform="translate(133.654657, 117.419255)"><g/></g></g><g fill="#303030" fill-opacity="1"><g transform="translate(137.299493, 117.419255)"><g><path d="M 11.015625 -7.484375 L 8.6875 0 L 7.40625 0 L 5.59375 -5.9375 L 3.796875 0 L 2.515625 0 L 0.15625 -7.484375 L 1.4375 -7.484375 L 3.15625 -1.203125 L 5.015625 -7.484375 L 6.28125 -7.484375 L 8.09375 -1.1875 L 9.796875 -7.484375 Z M 11.015625 -7.484375 "/></g></g></g><g fill="#303030" fill-opacity="1"><g transform="translate(148.493389, 117.419255)"><g><path d="M 4.765625 -7.625 C 5.328125 -7.625 5.835938 -7.5 6.296875 -7.25 C 6.753906 -7.007812 7.109375 -6.648438 7.359375 -6.171875 C 7.617188 -5.691406 7.75 -5.101562 7.75 -4.40625 L 7.75 0 L 6.53125 0 L 6.53125 -4.234375 C 6.53125 -4.984375 6.34375 -5.554688 5.96875 -5.953125 C 5.59375 -6.347656 5.082031 -6.546875 4.4375 -6.546875 C 3.78125 -6.546875 3.257812 -6.335938 2.875 -5.921875 C 2.488281 -5.515625 2.296875 -4.921875 2.296875 -4.140625 L 2.296875 0 L 1.046875 0 L 1.046875 -10.109375 L 2.296875 -10.109375 L 2.296875 -6.421875 C 2.535156 -6.796875 2.867188 -7.085938 3.296875 -7.296875 C 3.734375 -7.515625 4.222656 -7.625 4.765625 -7.625 Z M 4.765625 -7.625 "/></g></g></g><g fill="#303030" fill-opacity="1"><g transform="translate(157.230086, 117.419255)"><g><path d="M 4.3125 0.125 C 3.613281 0.125 2.976562 -0.03125 2.40625 -0.34375 C 1.84375 -0.664062 1.398438 -1.117188 1.078125 -1.703125 C 0.753906 -2.296875 0.59375 -2.976562 0.59375 -3.75 C 0.59375 -4.519531 0.753906 -5.195312 1.078125 -5.78125 C 1.410156 -6.375 1.863281 -6.828125 2.4375 -7.140625 C 3.019531 -7.453125 3.664062 -7.609375 4.375 -7.609375 C 5.082031 -7.609375 5.722656 -7.453125 6.296875 -7.140625 C 6.867188 -6.828125 7.320312 -6.378906 7.65625 -5.796875 C 7.988281 -5.210938 8.15625 -4.53125 8.15625 -3.75 C 8.15625 -2.976562 7.984375 -2.296875 7.640625 -1.703125 C 7.296875 -1.117188 6.832031 -0.664062 6.25 -0.34375 C 5.664062 -0.03125 5.019531 0.125 4.3125 0.125 Z M 4.3125 -0.96875 C 4.757812 -0.96875 5.175781 -1.070312 5.5625 -1.28125 C 5.957031 -1.488281 6.273438 -1.800781 6.515625 -2.21875 C 6.753906 -2.644531 6.875 -3.15625 6.875 -3.75 C 6.875 -4.351562 6.753906 -4.863281 6.515625 -5.28125 C 6.285156 -5.695312 5.976562 -6.007812 5.59375 -6.21875 C 5.21875 -6.425781 4.804688 -6.53125 4.359375 -6.53125 C 3.898438 -6.53125 3.484375 -6.425781 3.109375 -6.21875 C 2.734375 -6.007812 2.429688 -5.695312 2.203125 -5.28125 C 1.972656 -4.863281 1.859375 -4.351562 1.859375 -3.75 C 1.859375 -3.144531 1.96875 -2.628906 2.1875 -2.203125 C 2.414062 -1.785156 2.710938 -1.472656 3.078125 -1.265625 C 3.453125 -1.066406 3.863281 -0.96875 4.3125 -0.96875 Z M 4.3125 -0.96875 "/></g></g></g><g fill="#303030" fill-opacity="1"><g transform="translate(165.966782, 117.419255)"><g><path d="M 2.296875 -10.109375 L 2.296875 0 L 1.046875 0 L 1.046875 -10.109375 Z M 2.296875 -10.109375 "/></g></g></g><g fill="#303030" fill-opacity="1"><g transform="translate(169.324953, 117.419255)"><g><path d="M 7.875 -4.03125 C 7.875 -3.789062 7.863281 -3.539062 7.84375 -3.28125 L 1.859375 -3.28125 C 1.898438 -2.539062 2.148438 -1.960938 2.609375 -1.546875 C 3.078125 -1.128906 3.632812 -0.921875 4.28125 -0.921875 C 4.820312 -0.921875 5.269531 -1.046875 5.625 -1.296875 C 5.988281 -1.554688 6.242188 -1.894531 6.390625 -2.3125 L 7.734375 -2.3125 C 7.523438 -1.59375 7.117188 -1.003906 6.515625 -0.546875 C 5.921875 -0.0976562 5.175781 0.125 4.28125 0.125 C 3.570312 0.125 2.9375 -0.03125 2.375 -0.34375 C 1.820312 -0.664062 1.382812 -1.117188 1.0625 -1.703125 C 0.75 -2.296875 0.59375 -2.976562 0.59375 -3.75 C 0.59375 -4.53125 0.742188 -5.210938 1.046875 -5.796875 C 1.359375 -6.378906 1.796875 -6.828125 2.359375 -7.140625 C 2.921875 -7.453125 3.5625 -7.609375 4.28125 -7.609375 C 5 -7.609375 5.628906 -7.453125 6.171875 -7.140625 C 6.710938 -6.828125 7.128906 -6.398438 7.421875 -5.859375 C 7.722656 -5.316406 7.875 -4.707031 7.875 -4.03125 Z M 6.59375 -4.28125 C 6.59375 -4.757812 6.488281 -5.164062 6.28125 -5.5 C 6.070312 -5.84375 5.785156 -6.101562 5.421875 -6.28125 C 5.066406 -6.46875 4.671875 -6.5625 4.234375 -6.5625 C 3.609375 -6.5625 3.070312 -6.359375 2.625 -5.953125 C 2.1875 -5.554688 1.9375 -5 1.875 -4.28125 Z M 6.59375 -4.28125 "/></g></g></g><g fill="#303030" fill-opacity="1"><g transform="translate(47.208025, 136.119387)"><g><path d="M 0.59375 -3.765625 C 0.59375 -4.535156 0.742188 -5.207031 1.046875 -5.78125 C 1.359375 -6.363281 1.785156 -6.8125 2.328125 -7.125 C 2.867188 -7.445312 3.476562 -7.609375 4.15625 -7.609375 C 4.738281 -7.609375 5.28125 -7.472656 5.78125 -7.203125 C 6.28125 -6.929688 6.660156 -6.578125 6.921875 -6.140625 L 6.921875 -10.109375 L 8.1875 -10.109375 L 8.1875 0 L 6.921875 0 L 6.921875 -1.40625 C 6.679688 -0.957031 6.316406 -0.585938 5.828125 -0.296875 C 5.347656 -0.015625 4.785156 0.125 4.140625 0.125 C 3.472656 0.125 2.867188 -0.0351562 2.328125 -0.359375 C 1.785156 -0.691406 1.359375 -1.15625 1.046875 -1.75 C 0.742188 -2.34375 0.59375 -3.015625 0.59375 -3.765625 Z M 6.921875 -3.75 C 6.921875 -4.320312 6.804688 -4.816406 6.578125 -5.234375 C 6.347656 -5.648438 6.039062 -5.96875 5.65625 -6.1875 C 5.269531 -6.414062 4.847656 -6.53125 4.390625 -6.53125 C 3.921875 -6.53125 3.492188 -6.421875 3.109375 -6.203125 C 2.734375 -5.984375 2.429688 -5.660156 2.203125 -5.234375 C 1.972656 -4.816406 1.859375 -4.328125 1.859375 -3.765625 C 1.859375 -3.191406 1.972656 -2.691406 2.203125 -2.265625 C 2.429688 -1.847656 2.734375 -1.523438 3.109375 -1.296875 C 3.492188 -1.078125 3.921875 -0.96875 4.390625 -0.96875 C 4.847656 -0.96875 5.269531 -1.078125 5.65625 -1.296875 C 6.039062 -1.523438 6.347656 -1.847656 6.578125 -2.265625 C 6.804688 -2.691406 6.921875 -3.1875 6.921875 -3.75 Z M 6.921875 -3.75 "/></g></g></g><g fill="#303030" fill-opacity="1"><g transform="translate(56.436159, 136.119387)"><g><path d="M 0.59375 -3.765625 C 0.59375 -4.535156 0.742188 -5.207031 1.046875 -5.78125 C 1.359375 -6.363281 1.785156 -6.8125 2.328125 -7.125 C 2.867188 -7.445312 3.472656 -7.609375 4.140625 -7.609375 C 4.796875 -7.609375 5.363281 -7.46875 5.84375 -7.1875 C 6.320312 -6.90625 6.679688 -6.550781 6.921875 -6.125 L 6.921875 -7.484375 L 8.1875 -7.484375 L 8.1875 0 L 6.921875 0 L 6.921875 -1.390625 C 6.679688 -0.953125 6.316406 -0.585938 5.828125 -0.296875 C 5.335938 -0.015625 4.769531 0.125 4.125 0.125 C 3.457031 0.125 2.851562 -0.0351562 2.3125 -0.359375 C 1.78125 -0.691406 1.359375 -1.15625 1.046875 -1.75 C 0.742188 -2.34375 0.59375 -3.015625 0.59375 -3.765625 Z M 6.921875 -3.75 C 6.921875 -4.320312 6.804688 -4.816406 6.578125 -5.234375 C 6.347656 -5.648438 6.039062 -5.96875 5.65625 -6.1875 C 5.269531 -6.414062 4.847656 -6.53125 4.390625 -6.53125 C 3.921875 -6.53125 3.492188 -6.421875 3.109375 -6.203125 C 2.734375 -5.984375 2.429688 -5.660156 2.203125 -5.234375 C 1.972656 -4.816406 1.859375 -4.328125 1.859375 -3.765625 C 1.859375 -3.191406 1.972656 -2.691406 2.203125 -2.265625 C 2.429688 -1.847656 2.734375 -1.523438 3.109375 -1.296875 C 3.492188 -1.078125 3.921875 -0.96875 4.390625 -0.96875 C 4.847656 -0.96875 5.269531 -1.078125 5.65625 -1.296875 C 6.039062 -1.523438 6.347656 -1.847656 6.578125 -2.265625 C 6.804688 -2.691406 6.921875 -3.1875 6.921875 -3.75 Z M 6.921875 -3.75 "/></g></g></g><g fill="#303030" fill-opacity="1"><g transform="translate(65.664293, 136.119387)"><g><path d="M 7.5 -7.484375 L 2.984375 3.515625 L 1.703125 3.515625 L 3.1875 -0.078125 L 0.15625 -7.484375 L 1.546875 -7.484375 L 3.890625 -1.421875 L 6.21875 -7.484375 Z M 7.5 -7.484375 "/></g></g><g transform="translate(73.34986, 136.119387)"><g><path d="M 1.453125 0.078125 C 1.210938 0.078125 1.007812 0 0.84375 -0.15625 C 0.675781 -0.320312 0.59375 -0.523438 0.59375 -0.765625 C 0.59375 -1.003906 0.675781 -1.203125 0.84375 -1.359375 C 1.007812 -1.523438 1.210938 -1.609375 1.453125 -1.609375 C 1.671875 -1.609375 1.859375 -1.523438 2.015625 -1.359375 C 2.179688 -1.203125 2.265625 -1.003906 2.265625 -0.765625 C 2.265625 -0.523438 2.179688 -0.320312 2.015625 -0.15625 C 1.859375 0 1.671875 0.078125 1.453125 0.078125 Z M 1.453125 0.078125 "/></g></g></g><g fill="#303030" fill-opacity="1"><g transform="translate(76.216593, 136.119387)"><g><path d="M 1.25 -9.515625 L 2.625 -9.515625 L 1.3125 -6.421875 L 0.4375 -6.421875 Z M 3.453125 -9.515625 L 4.828125 -9.515625 L 3.515625 -6.421875 L 2.640625 -6.421875 Z M 3.453125 -9.515625 "/></g></g></g><g fill="#303030" fill-opacity="1"><g transform="translate(81.404008, 136.119387)"><g/></g></g><g fill="#303030" fill-opacity="1"><g transform="translate(85.048844, 136.119387)"><g><path d="M 11.046875 -5.53125 L 11.046875 -4.484375 L 1.03125 -4.484375 L 1.03125 -5.53125 Z M 11.046875 -5.53125 "/></g></g></g><g fill="#303030" fill-opacity="1"><g transform="translate(97.130061, 136.119387)"><g/></g></g><g fill="#303030" fill-opacity="1"><g transform="translate(100.774897, 136.119387)"><g><path d="M 4.015625 -9.515625 C 5.054688 -9.515625 5.957031 -9.320312 6.71875 -8.9375 C 7.476562 -8.550781 8.054688 -8 8.453125 -7.28125 C 8.859375 -6.5625 9.0625 -5.710938 9.0625 -4.734375 C 9.0625 -3.765625 8.859375 -2.921875 8.453125 -2.203125 C 8.054688 -1.492188 7.476562 -0.945312 6.71875 -0.5625 C 5.957031 -0.1875 5.054688 0 4.015625 0 L 1.046875 0 L 1.046875 -9.515625 Z M 4.015625 -1.03125 C 5.242188 -1.03125 6.179688 -1.351562 6.828125 -2 C 7.472656 -2.65625 7.796875 -3.566406 7.796875 -4.734375 C 7.796875 -5.921875 7.46875 -6.84375 6.8125 -7.5 C 6.164062 -8.164062 5.234375 -8.5 4.015625 -8.5 L 2.296875 -8.5 L 2.296875 -1.03125 Z M 4.015625 -1.03125 "/></g></g></g><g fill="#303030" fill-opacity="1"><g transform="translate(110.426215, 136.119387)"><g><path d="M 0.59375 -3.765625 C 0.59375 -4.535156 0.742188 -5.207031 1.046875 -5.78125 C 1.359375 -6.363281 1.785156 -6.8125 2.328125 -7.125 C 2.867188 -7.445312 3.472656 -7.609375 4.140625 -7.609375 C 4.796875 -7.609375 5.363281 -7.46875 5.84375 -7.1875 C 6.320312 -6.90625 6.679688 -6.550781 6.921875 -6.125 L 6.921875 -7.484375 L 8.1875 -7.484375 L 8.1875 0 L 6.921875 0 L 6.921875 -1.390625 C 6.679688 -0.953125 6.316406 -0.585938 5.828125 -0.296875 C 5.335938 -0.015625 4.769531 0.125 4.125 0.125 C 3.457031 0.125 2.851562 -0.0351562 2.3125 -0.359375 C 1.78125 -0.691406 1.359375 -1.15625 1.046875 -1.75 C 0.742188 -2.34375 0.59375 -3.015625 0.59375 -3.765625 Z M 6.921875 -3.75 C 6.921875 -4.320312 6.804688 -4.816406 6.578125 -5.234375 C 6.347656 -5.648438 6.039062 -5.96875 5.65625 -6.1875 C 5.269531 -6.414062 4.847656 -6.53125 4.390625 -6.53125 C 3.921875 -6.53125 3.492188 -6.421875 3.109375 -6.203125 C 2.734375 -5.984375 2.429688 -5.660156 2.203125 -5.234375 C 1.972656 -4.816406 1.859375 -4.328125 1.859375 -3.765625 C 1.859375 -3.191406 1.972656 -2.691406 2.203125 -2.265625 C 2.429688 -1.847656 2.734375 -1.523438 3.109375 -1.296875 C 3.492188 -1.078125 3.921875 -0.96875 4.390625 -0.96875 C 4.847656 -0.96875 5.269531 -1.078125 5.65625 -1.296875 C 6.039062 -1.523438 6.347656 -1.847656 6.578125 -2.265625 C 6.804688 -2.691406 6.921875 -3.1875 6.921875 -3.75 Z M 6.921875 -3.75 "/></g></g></g><g fill="#303030" fill-opacity="1"><g transform="translate(119.654349, 136.119387)"><g><path d="M 2.296875 -10.109375 L 2.296875 0 L 1.046875 0 L 1.046875 -10.109375 Z M 2.296875 -10.109375 "/></g></g></g><g fill="#303030" fill-opacity="1"><g transform="translate(123.01252, 136.119387)"><g><path d="M 0.59375 -3.765625 C 0.59375 -4.535156 0.742188 -5.207031 1.046875 -5.78125 C 1.359375 -6.363281 1.785156 -6.8125 2.328125 -7.125 C 2.867188 -7.445312 3.472656 -7.609375 4.140625 -7.609375 C 4.796875 -7.609375 5.363281 -7.46875 5.84375 -7.1875 C 6.320312 -6.90625 6.679688 -6.550781 6.921875 -6.125 L 6.921875 -7.484375 L 8.1875 -7.484375 L 8.1875 0 L 6.921875 0 L 6.921875 -1.390625 C 6.679688 -0.953125 6.316406 -0.585938 5.828125 -0.296875 C 5.335938 -0.015625 4.769531 0.125 4.125 0.125 C 3.457031 0.125 2.851562 -0.0351562 2.3125 -0.359375 C 1.78125 -0.691406 1.359375 -1.15625 1.046875 -1.75 C 0.742188 -2.34375 0.59375 -3.015625 0.59375 -3.765625 Z M 6.921875 -3.75 C 6.921875 -4.320312 6.804688 -4.816406 6.578125 -5.234375 C 6.347656 -5.648438 6.039062 -5.96875 5.65625 -6.1875 C 5.269531 -6.414062 4.847656 -6.53125 4.390625 -6.53125 C 3.921875 -6.53125 3.492188 -6.421875 3.109375 -6.203125 C 2.734375 -5.984375 2.429688 -5.660156 2.203125 -5.234375 C 1.972656 -4.816406 1.859375 -4.328125 1.859375 -3.765625 C 1.859375 -3.191406 1.972656 -2.691406 2.203125 -2.265625 C 2.429688 -1.847656 2.734375 -1.523438 3.109375 -1.296875 C 3.492188 -1.078125 3.921875 -0.96875 4.390625 -0.96875 C 4.847656 -0.96875 5.269531 -1.078125 5.65625 -1.296875 C 6.039062 -1.523438 6.347656 -1.847656 6.578125 -2.265625 C 6.804688 -2.691406 6.921875 -3.1875 6.921875 -3.75 Z M 6.921875 -3.75 "/></g></g></g><g fill="#303030" fill-opacity="1"><g transform="translate(132.240654, 136.119387)"><g><path d="M 1.6875 -8.703125 C 1.457031 -8.703125 1.257812 -8.78125 1.09375 -8.9375 C 0.925781 -9.101562 0.84375 -9.304688 0.84375 -9.546875 C 0.84375 -9.785156 0.925781 -9.984375 1.09375 -10.140625 C 1.257812 -10.304688 1.457031 -10.390625 1.6875 -10.390625 C 1.914062 -10.390625 2.109375 -10.304688 2.265625 -10.140625 C 2.429688 -9.984375 2.515625 -9.785156 2.515625 -9.546875 C 2.515625 -9.304688 2.429688 -9.101562 2.265625 -8.9375 C 2.109375 -8.78125 1.914062 -8.703125 1.6875 -8.703125 Z M 2.296875 -7.484375 L 2.296875 0 L 1.046875 0 L 1.046875 -7.484375 Z M 2.296875 -7.484375 "/></g></g></g><g fill="#303030" fill-opacity="1"><g transform="translate(135.598825, 136.119387)"><g/></g></g><g fill="#303030" fill-opacity="1"><g transform="translate(139.243662, 136.119387)"><g><path d="M 2.296875 -1.015625 L 5.625 -1.015625 L 5.625 0 L 1.046875 0 L 1.046875 -9.515625 L 2.296875 -9.515625 Z M 2.296875 -1.015625 "/></g></g></g><g fill="#303030" fill-opacity="1"><g transform="translate(145.140937, 136.119387)"><g><path d="M 0.59375 -3.765625 C 0.59375 -4.535156 0.742188 -5.207031 1.046875 -5.78125 C 1.359375 -6.363281 1.785156 -6.8125 2.328125 -7.125 C 2.867188 -7.445312 3.472656 -7.609375 4.140625 -7.609375 C 4.796875 -7.609375 5.363281 -7.46875 5.84375 -7.1875 C 6.320312 -6.90625 6.679688 -6.550781 6.921875 -6.125 L 6.921875 -7.484375 L 8.1875 -7.484375 L 8.1875 0 L 6.921875 0 L 6.921875 -1.390625 C 6.679688 -0.953125 6.316406 -0.585938 5.828125 -0.296875 C 5.335938 -0.015625 4.769531 0.125 4.125 0.125 C 3.457031 0.125 2.851562 -0.0351562 2.3125 -0.359375 C 1.78125 -0.691406 1.359375 -1.15625 1.046875 -1.75 C 0.742188 -2.34375 0.59375 -3.015625 0.59375 -3.765625 Z M 6.921875 -3.75 C 6.921875 -4.320312 6.804688 -4.816406 6.578125 -5.234375 C 6.347656 -5.648438 6.039062 -5.96875 5.65625 -6.1875 C 5.269531 -6.414062 4.847656 -6.53125 4.390625 -6.53125 C 3.921875 -6.53125 3.492188 -6.421875 3.109375 -6.203125 C 2.734375 -5.984375 2.429688 -5.660156 2.203125 -5.234375 C 1.972656 -4.816406 1.859375 -4.328125 1.859375 -3.765625 C 1.859375 -3.191406 1.972656 -2.691406 2.203125 -2.265625 C 2.429688 -1.847656 2.734375 -1.523438 3.109375 -1.296875 C 3.492188 -1.078125 3.921875 -0.96875 4.390625 -0.96875 C 4.847656 -0.96875 5.269531 -1.078125 5.65625 -1.296875 C 6.039062 -1.523438 6.347656 -1.847656 6.578125 -2.265625 C 6.804688 -2.691406 6.921875 -3.1875 6.921875 -3.75 Z M 6.921875 -3.75 "/></g></g></g><g fill="#303030" fill-opacity="1"><g transform="translate(154.369071, 136.119387)"><g><path d="M 10.046875 -7.625 C 10.628906 -7.625 11.148438 -7.5 11.609375 -7.25 C 12.066406 -7.007812 12.425781 -6.648438 12.6875 -6.171875 C 12.945312 -5.691406 13.078125 -5.101562 13.078125 -4.40625 L 13.078125 0 L 11.859375 0 L 11.859375 -4.234375 C 11.859375 -4.984375 11.671875 -5.554688 11.296875 -5.953125 C 10.929688 -6.347656 10.4375 -6.546875 9.8125 -6.546875 C 9.15625 -6.546875 8.632812 -6.335938 8.25 -5.921875 C 7.875 -5.503906 7.6875 -4.90625 7.6875 -4.125 L 7.6875 0 L 6.453125 0 L 6.453125 -4.234375 C 6.453125 -4.984375 6.269531 -5.554688 5.90625 -5.953125 C 5.539062 -6.347656 5.039062 -6.546875 4.40625 -6.546875 C 3.757812 -6.546875 3.242188 -6.335938 2.859375 -5.921875 C 2.484375 -5.503906 2.296875 -4.90625 2.296875 -4.125 L 2.296875 0 L 1.046875 0 L 1.046875 -7.484375 L 2.296875 -7.484375 L 2.296875 -6.40625 C 2.535156 -6.789062 2.863281 -7.085938 3.28125 -7.296875 C 3.695312 -7.515625 4.15625 -7.625 4.65625 -7.625 C 5.28125 -7.625 5.832031 -7.484375 6.3125 -7.203125 C 6.800781 -6.921875 7.164062 -6.503906 7.40625 -5.953125 C 7.613281 -6.484375 7.957031 -6.894531 8.4375 -7.1875 C 8.914062 -7.476562 9.453125 -7.625 10.046875 -7.625 Z M 10.046875 -7.625 "/></g></g></g><g fill="#303030" fill-opacity="1"><g transform="translate(168.429689, 136.119387)"><g><path d="M 0.59375 -3.765625 C 0.59375 -4.535156 0.742188 -5.207031 1.046875 -5.78125 C 1.359375 -6.363281 1.785156 -6.8125 2.328125 -7.125 C 2.867188 -7.445312 3.472656 -7.609375 4.140625 -7.609375 C 4.796875 -7.609375 5.363281 -7.46875 5.84375 -7.1875 C 6.320312 -6.90625 6.679688 -6.550781 6.921875 -6.125 L 6.921875 -7.484375 L 8.1875 -7.484375 L 8.1875 0 L 6.921875 0 L 6.921875 -1.390625 C 6.679688 -0.953125 6.316406 -0.585938 5.828125 -0.296875 C 5.335938 -0.015625 4.769531 0.125 4.125 0.125 C 3.457031 0.125 2.851562 -0.0351562 2.3125 -0.359375 C 1.78125 -0.691406 1.359375 -1.15625 1.046875 -1.75 C 0.742188 -2.34375 0.59375 -3.015625 0.59375 -3.765625 Z M 6.921875 -3.75 C 6.921875 -4.320312 6.804688 -4.816406 6.578125 -5.234375 C 6.347656 -5.648438 6.039062 -5.96875 5.65625 -6.1875 C 5.269531 -6.414062 4.847656 -6.53125 4.390625 -6.53125 C 3.921875 -6.53125 3.492188 -6.421875 3.109375 -6.203125 C 2.734375 -5.984375 2.429688 -5.660156 2.203125 -5.234375 C 1.972656 -4.816406 1.859375 -4.328125 1.859375 -3.765625 C 1.859375 -3.191406 1.972656 -2.691406 2.203125 -2.265625 C 2.429688 -1.847656 2.734375 -1.523438 3.109375 -1.296875 C 3.492188 -1.078125 3.921875 -0.96875 4.390625 -0.96875 C 4.847656 -0.96875 5.269531 -1.078125 5.65625 -1.296875 C 6.039062 -1.523438 6.347656 -1.847656 6.578125 -2.265625 C 6.804688 -2.691406 6.921875 -3.1875 6.921875 -3.75 Z M 6.921875 -3.75 "/></g></g></g><g fill="#303030" fill-opacity="1"><g transform="translate(112.436422, 154.819519)"><g/></g></g><g clip-path="url(#97667d71dc)"><path fill="#eb4646" d="M 104.859375 28.953125 C 103.347656 28.953125 101.933594 29.457031 100.808594 30.277344 C 100.902344 26.8125 103.636719 23.382812 109.007812 19.917969 L 108.203125 18.71875 C 100.421875 23.441406 96.527344 28.667969 96.527344 34.304688 C 96.527344 36.917969 97.234375 38.933594 98.683594 40.414062 C 100.132812 41.898438 101.964844 42.617188 104.183594 42.617188 C 106.398438 42.617188 108.167969 42.019531 109.554688 40.855469 C 110.902344 39.65625 111.578125 38.242188 111.578125 36.570312 C 111.578125 36.539062 111.578125 36.539062 111.578125 36.507812 C 111.609375 36.226562 111.644531 35.910156 111.644531 35.59375 C 111.644531 31.945312 108.589844 28.953125 104.859375 28.953125 Z M 104.859375 28.953125 " fill-opacity="1" fill-rule="nonzero"/></g><g clip-path="url(#87d554880f)"><path fill="#eb4646" d="M 126.796875 40.195312 C 126.890625 40.101562 126.988281 40.003906 127.082031 39.914062 C 128.082031 38.746094 128.691406 37.265625 128.691406 35.632812 C 128.691406 31.949219 125.636719 28.984375 121.90625 28.984375 C 120.199219 28.984375 118.625 29.617188 117.433594 30.652344 C 117.433594 30.621094 117.433594 30.589844 117.433594 30.53125 C 117.433594 27.003906 120.167969 23.472656 125.667969 19.949219 L 124.867188 18.71875 C 117.046875 23.441406 113.160156 28.667969 113.160156 34.304688 C 113.160156 36.917969 113.863281 38.933594 115.3125 40.414062 C 116.765625 41.898438 118.59375 42.617188 120.8125 42.617188 C 123.03125 42.617188 124.800781 42.019531 126.183594 40.855469 C 126.375 40.695312 126.535156 40.507812 126.695312 40.320312 C 126.730469 40.285156 126.761719 40.257812 126.796875 40.195312 Z M 126.796875 40.195312 " fill-opacity="1" fill-rule="nonzero"/></g></svg>