<svg id="visual" viewBox="0 0 900 600" width="900" height="600" xmlns="http://www.w3.org/2000/svg" xmlns:xlink="http://www.w3.org/1999/xlink" version="1.1"><path d="M0 211L82 157L164 211L245 241L327 163L409 211L491 103L573 247L655 127L736 259L818 79L900 211L900 0L818 0L736 0L655 0L573 0L491 0L409 0L327 0L245 0L164 0L82 0L0 0Z" fill="#cedae0"></path><path d="M0 301L82 313L164 367L245 367L327 319L409 313L491 343L573 337L655 313L736 355L818 319L900 307L900 209L818 77L736 257L655 125L573 245L491 101L409 209L327 161L245 239L164 209L82 155L0 209Z" fill="#a2c4cd"></path><path d="M0 409L82 355L164 421L245 445L327 379L409 367L491 397L573 397L655 421L736 415L818 367L900 433L900 305L818 317L736 353L655 311L573 335L491 341L409 311L327 317L245 365L164 365L82 311L0 299Z" fill="#74aeb5"></path><path d="M0 499L82 529L164 529L245 523L327 499L409 523L491 535L573 499L655 535L736 541L818 541L900 559L900 431L818 365L736 413L655 419L573 395L491 395L409 365L327 377L245 443L164 419L82 353L0 407Z" fill="#449997"></path><path d="M0 601L82 601L164 601L245 601L327 601L409 601L491 601L573 601L655 601L736 601L818 601L900 601L900 557L818 539L736 539L655 533L573 497L491 533L409 521L327 497L245 521L164 527L82 527L0 497Z" fill="#038373"></path></svg>