<svg id="visual" viewBox="0 0 900 600" width="900" height="600" xmlns="http://www.w3.org/2000/svg" xmlns:xlink="http://www.w3.org/1999/xlink" version="1.1"><rect x="0" y="0" width="900" height="900" fill="#fff"></rect><path d="M0 136L21.5 136.7C43 137.3 86 138.7 128.8 129.3C171.7 120 214.3 100 257.2 103.3C300 106.7 343 133.3 385.8 146C428.7 158.7 471.3 157.3 514.2 148.5C557 139.7 600 123.3 642.8 126.2C685.7 129 728.3 151 771.2 152.7C814 154.3 857 135.7 878.5 126.3L900 117L900 0L878.5 0C857 0 814 0 771.2 0C728.3 0 685.7 0 642.8 0C600 0 557 0 514.2 0C471.3 0 428.7 0 385.8 0C343 0 300 0 257.2 0C214.3 0 171.7 0 128.8 0C86 0 43 0 21.5 0L0 0Z" fill="#334254" stroke-linecap="round" stroke-linejoin="miter"></path></svg>