<svg id="visual" viewBox="0 0 900 600" width="900" height="600" xmlns="http://www.w3.org/2000/svg" xmlns:xlink="http://www.w3.org/1999/xlink" version="1.1"><rect x="0" y="0" width="900" height="600" fill="#101827"></rect><path d="M0 386L21.5 397.7C43 409.3 86 432.7 128.8 437.5C171.7 442.3 214.3 428.7 257.2 416.8C300 405 343 395 385.8 405C428.7 415 471.3 445 514.2 457C557 469 600 463 642.8 447.5C685.7 432 728.3 407 771.2 408.5C814 410 857 438 878.5 452L900 466L900 601L878.5 601C857 601 814 601 771.2 601C728.3 601 685.7 601 642.8 601C600 601 557 601 514.2 601C471.3 601 428.7 601 385.8 601C343 601 300 601 257.2 601C214.3 601 171.7 601 128.8 601C86 601 43 601 21.5 601L0 601Z" fill="#334254" stroke-linecap="round" stroke-linejoin="miter"></path></svg>