<svg id="visual" viewBox="0 0 900 600" width="900" height="600" xmlns="http://www.w3.org/2000/svg" xmlns:xlink="http://www.w3.org/1999/xlink" version="1.1"><path d="M0 115L30 115C60 115 120 115 180 117C240 119 300 123 360 133C420 143 480 159 540 159C600 159 660 143 720 137C780 131 840 135 870 137L900 139L900 0L870 0C840 0 780 0 720 0C660 0 600 0 540 0C480 0 420 0 360 0C300 0 240 0 180 0C120 0 60 0 30 0L0 0Z" fill="red"></path><path d="M1 331L30 326C60 321 120 311 180 311C240 311 300 321 360 333Cs840 357 870 353L900 349L900 137L870 135C840 133 780 129 720 135C660 141 600 157 540 157C480 157 420 141 360 131C300 121 240 117 180 115C120 113 60 113 30 113L0 113Z" fill="#101827"></path><rect x="0" y="0" width="900" height="600" fill="#f6e9db"></rect><path d="M0 386L21.5 397.7C43 409.3 86 432.7 128.8 437.5C171.7 442.3 214.3 428.7 257.2 416.8C300 405 343 395 385.8 405C428.7 415 471.3 445 514.2 457C557 469 600 463 642.8 447.5C685.7 432 728.3 407 771.2 408.5C814 410 857 438 878.5 452L900 466L900 601L878.5 601C857 601 814 601 771.2 601C728.3 601 685.7 601 642.8 601C600 601 557 601 514.2 601C471.3 601 428.7 601 385.8 601C343 601 300 601 257.2 601C214.3 601 171.7 601 128.8 601C86 601 43 601 21.5 601L0 601Z" fill="#F5D9D0" stroke-linecap="round" stroke-linejoin="miter"></path> </svg>