<svg id="visual" viewBox="0 0 900 250" width="900" height="250" xmlns="http://www.w3.org/2000/svg" xmlns:xlink="http://www.w3.org/1999/xlink" version="1.1"><rect x="0" y="0" width="900" height="250" fill="#F5D9CF"></rect><path d="M0 107L30 118.8C60 130.7 120 154.3 180 160C240 165.7 300 153.3 360 139.7C420 126 480 111 540 112.2C600 113.3 660 130.7 720 144.7C780 158.7 840 169.3 870 174.7L900 180L900 251L870 251C840 251 780 251 720 251C660 251 600 251 540 251C480 251 420 251 360 251C300 251 240 251 180 251C120 251 60 251 30 251L0 251Z" fill="#F6E9DB" stroke-linecap="round" stroke-linejoin="miter"></path></svg>